<svg xmlns="http://www.w3.org/2000/svg" viewBox="0 0 512 512"><path fill="#292927" d="M0 0h512v512H0z"/><path fill="#fff" d="M224.4 243.5a16.2 16.2 0 0 0 0-9c-1.9-4.8-7.1-7.6-17-9.3-2.4-.4-5.3-.4-30.2-.5h-27.6v61.9h19.3v-21.5h.6l3.7-.5c11.8-1.5 24.2-3.4 27.2-4.2 13-3.4 21.7-9.5 24-16.9zm-19.6-.9c-.4 2.7-2.6 4.7-6.3 5.6-1.9.5-3.6.7-16.9 1.9l-11.5 1.1-1 .2v-13.2l13.6-.7 13.8-.8a18.4 18.4 0 0 1 5.3.7 4.6 4.6 0 0 1 3 5.2zm93.6 36.1c0-5.6-.3-6.8-1.6-8.6s-5.3-3.5-8.8-3.5h-1l1.8-.9c6.1-3.3 9.1-6.8 9.3-11.2s-.6-5-2.8-6.2-6.8-.8-12.4 1.1-5.6 1.9-37.7 16.9l-24.1 11.2v4.4c0 3.7.1 4.5.4 4.5s4.6.2 9.8.2h9.3v-5.9l.7-.2 6.6-1.1 13.4-2.3c10.8-1.9 14.5-1.8 16.4.2s1.2 2.3 1.2 5.5-1.1 3.8 10.7 3.8 10 .2 9.2-1.8-.4-2.2-.4-6.1zm-20.8-15.6c-.5 2-3 3.4-8.2 5l-10.3 3-12.5 3.8-5.8 1.7a6.1 6.1 0 0 1-.1-2.4v-2.4l15.2-5.4 16.8-5.9a6.7 6.7 0 0 1 4 0c1.1.4 1.4 1.3.9 2.6zm-154.7-38.5V241c-.1 18.4 0 17.5-1.9 21.4a15.3 15.3 0 0 1-6.6 6.5c-6.7 3.3-17.5 3.2-24-.2a15.5 15.5 0 0 1-7.9-11.9c-.1-1.1-.3-8.3-.3-17v-15.2H62.6V242c.1 16.6.1 17.6.6 19.9 3.3 14.9 13.6 23.3 31.2 25.2a122.1 122.1 0 0 0 17.1-.1c15-1.8 24.8-9.1 29-21.5 1.6-4.7 1.6-4.8 1.7-23.7v-17.2h-19.3zm293.5 0h-33v31 31h33 33v-7.2-7.3h-23.5l-23.4-.1v-5-5l23.4-.1h23.5l-.1-7.1v-7l-23.4-.1h-23.4l-.1-4.6v-4.5h23.5 23.5v-7-7h-33zm-49.3.2l-5.1.5c-16.1 1.5-36.2 6.5-55.9 14l-3.1 1.2v5.2c0 4 0 5.2.3 5.2l2.6-.7c4.7-1.3 23-5.8 23.6-5.8s.2 7.7.2 21v21.1H349v-22.8c0-18.8.1-22.8.4-22.8l4.8-.5c4.5-.5 10.6-.9 17.7-1.2h3.9v-14.6H367zm-76.3 6.3l-16.6-4.7-6.1-1.8H245l-6.4 9.9-14 22-9.2 14.4a19.6 19.6 0 0 0-1.5 2.6l9.9-3.8 9.7-3.9 3.1-4.6 3.2-4.6 6.6-2.6 21.3-8.4 14.8-5.7 1.9.9 2 .9c.3.1 15.4-7.2 15.1-7.3s-5-1.6-10.7-3.3zm-43.4 14.3c.1-.1 2.3-3.5 5.1-7.5a74.9 74.9 0 0 1 5.2-7.2l9.2 3.2 8.9 3.1c-.2.2-28.4 8.5-28.4 8.4z"/></svg>