<svg xmlns="http://www.w3.org/2000/svg" viewBox="0 0 512 215"><path d="M218.2,214.4a49.7,49.7,0,0,1-31.6-15.1,54.8,54.8,0,0,1-15.9-32.7c-.3-2-.3-4.3-.3-43.8V81.1H273.7v42c0,30.8-.1,41.7-.2,42.8a57.1,57.1,0,0,1-6,19.9,53.5,53.5,0,0,1-10.1,13.6,49.4,49.4,0,0,1-13.4,9.9,50.9,50.9,0,0,1-16.2,5,63.1,63.1,0,0,1-9.7.2ZM182.8,71.9a69.1,69.1,0,0,1-4.6-7.3,43.7,43.7,0,0,1,5.6-2.2,118.1,118.1,0,0,1,27.1-5c3.9-.3,14.2-.5,18.6-.2,13.2.6,24.8,2.8,34.3,6.4l2.3,1c.2.2-4.5,7.3-4.8,7.4l-2.4-.6a134,134,0,0,0-39.6-4.9,131.4,131.4,0,0,0-35.9,5.4Zm-9.4-14.1a23.7,23.7,0,0,1-3.2-7.8,26.2,26.2,0,0,1,.1-7.9,20.8,20.8,0,0,1,5.6-10.4,20.4,20.4,0,0,1,10.5-5.6l2.6-.3h1.2v8.6l-1.3.2a11.2,11.2,0,0,0-6,2.6,13.1,13.1,0,0,0-4,6.2,19.4,19.4,0,0,0,0,5.9,14.1,14.1,0,0,0,3.2,5.5l.5.5-1.4.5-5.8,2.5-1.1.6a4.9,4.9,0,0,1-.9-1Zm95.7.6a53.1,53.1,0,0,0-6-2.6,5.1,5.1,0,0,1-1.5-.7l.6-.7a11.8,11.8,0,0,0,.1-16.3,11.9,11.9,0,0,0-6.9-3.6l-1.4-.2V25.7h1.1a20.4,20.4,0,0,1,15.7,9.1,19.7,19.7,0,0,1,3.4,11.2,20.2,20.2,0,0,1-1.9,8.8,16.9,16.9,0,0,1-2.4,3.9l-.8-.4Zm-74.3-7.1a20.4,20.4,0,0,1-2.5-9.8,19.2,19.2,0,0,1,1.9-8.7A20.6,20.6,0,0,1,211.3,21h1.3v8.7h-.9a12.4,12.4,0,0,0-7.2,3.4,11.7,11.7,0,0,0-.2,16.4,8.3,8.3,0,0,1,.9,1.1l-2.8.3-4.8.7-2.2.4c-.1,0-.3-.3-.5-.7Zm51.1.2-4.7-.6a14.5,14.5,0,0,1-2.3-.4c0-.1.2-.2.3-.3a11.3,11.3,0,0,0,2.8-3.8,10.4,10.4,0,0,0,1.1-4.9,11.1,11.1,0,0,0-3.2-8.1,12.4,12.4,0,0,0-4-2.9,15.2,15.2,0,0,0-3.8-.8h-.5V20.9h1.2A20.2,20.2,0,0,1,246,27.2a20.7,20.7,0,0,1,5.5,10.3,26.8,26.8,0,0,1,0,8,25.4,25.4,0,0,1-1.9,5.3c-.5,1-.7,1.2-.9,1.2l-2.8-.5ZM217.5,35.2V20.7h9v29h-9.1Zm3.1-17a5.5,5.5,0,0,1-2.6-2.4,5,5,0,0,1-.1-3.8,4.6,4.6,0,0,1,7.2-1.5,4.2,4.2,0,0,1,1,1.4,4.2,4.2,0,0,1-.7,5,4.8,4.8,0,0,1-4.8,1.3Zm.7-11.4a3.1,3.1,0,0,1-.1-1.2v-1h-2.2V3h2.2V.6h1.5V2.8h2.4V4.4h-1.1l-1.2.2a2.2,2.2,0,0,0-.2,1.2V7h-.7c-.5,0-.8,0-.8-.2Z" fill="#efae22"/><path d="M63.4,124.1a23,23,0,0,1-4.7-1c-1.7-.5-1.6-.3-1.3-2.9s.3-2.4.3-2.4l.9.3c5.8,2.6,10.8,1.9,12.7-1.8a13.1,13.1,0,0,0,1-4.6c0-1.7,0-1.8-.2-1.9s-.4,0-.6.2a8.6,8.6,0,0,1-5,3.2,11,11,0,0,1-6.7-.7,8.6,8.6,0,0,1-4.2-4.9c-1.9-4.8-1.4-10.8,1.3-14.7a9.1,9.1,0,0,1,7.9-4.2,7.7,7.7,0,0,1,6.3,2.7c1.4,1.4,1.5,1.4,1.5-.6V89.2h5.5v12.1c0,13.3,0,13.4-.9,15.9-1.5,4.1-4.8,6.4-10.1,6.9a24.1,24.1,0,0,1-3.8,0Zm5.4-15.6a5.7,5.7,0,0,0,2.6-2.5c.7-1.5.8-2.5.8-5.1s0-2.4-.4-3.5c-.9-2.9-2.5-4.2-5.1-4.2A4.8,4.8,0,0,0,63,94.6c-1.5,1.4-2.2,3.5-2.2,6.6s1.6,6.8,4.1,7.6a6.5,6.5,0,0,0,3.9-.3Zm233.7,5.8a9,9,0,0,1-4.7-1.9,6.6,6.6,0,0,1-1.9-2.1c-2.7-4-3-11.4-.6-16.2a8.6,8.6,0,0,1,6.1-4.8,9.3,9.3,0,0,1,8.7,2.1c.6.6,1.1.9,1.2.8s.2-1,.2-7V78.3h5.9v35.5h-5.8v-1.3c-.1-1.6-.2-1.6-1.4-.4a10,10,0,0,1-7.8,2.2Zm5.3-4.9a6.6,6.6,0,0,0,3.3-4.5,13.4,13.4,0,0,0,0-6.3c-.7-2.4-1.8-3.9-3.5-4.6a3.5,3.5,0,0,0-2.1-.4,4.4,4.4,0,0,0-4.5,2.9,11.5,11.5,0,0,0-1,5.2c0,4.2,1.4,7.1,4,8a6.2,6.2,0,0,0,3.8-.3Zm26.1,4.9c-5.5-.5-9.1-3.5-10.4-8.5a19.8,19.8,0,0,1-.2-7.3c1-4.8,3.5-7.7,7.4-9a8.9,8.9,0,0,1,3.7-.4,11.3,11.3,0,0,1,3.8.4,9.6,9.6,0,0,1,3.2,1.6c2.7,2,4.1,5.8,4.3,11.2v1.1h-8.5c-7.3,0-8.5.1-8.6.2a9.3,9.3,0,0,0,.8,3.2,8.1,8.1,0,0,0,2.7,2.5c2.6,1.3,6.8.9,10.5-.9l1.1-.5a9.3,9.3,0,0,1,.1,2.3v2.3l-.8.3a19,19,0,0,1-9.2,1.4Zm6.1-15a6.5,6.5,0,0,0-.6-3.1,4.7,4.7,0,0,0-4.6-2.9,5.6,5.6,0,0,0-2.5.3,5.9,5.9,0,0,0-3.5,4.6c-.3,1.4-.7,1.3,5.6,1.3s5.5,0,5.6-.2Zm76.9,15c-3.5-.4-5.6-2.4-6.6-6.1-.3-1.2-.3-1.4-.3-9.9V89.7h6v7.8c0,8.3,0,9.1.7,10.4s2.1,2.2,4.1,2a7.4,7.4,0,0,0,1.7-.3,5.9,5.9,0,0,0,2.6-2.6c1-2,1-2,1.1-10V89.7h6v24.2h-5.5v-1.6c0-2-.1-2.1-1.2-1a10.4,10.4,0,0,1-8.5,3Zm49.1,0a10.6,10.6,0,0,1-4.5-1.3,9.6,9.6,0,0,1-4.9-5.5,16.7,16.7,0,0,1-.6-9.9,11.1,11.1,0,0,1,7.7-8.1,21.1,21.1,0,0,1,9,.1c.5.2.5.2.4.7s-.1,1.3-.2,2.2a4.7,4.7,0,0,1-.3,1.7l-.7-.2a11.5,11.5,0,0,0-4.5-.4A6.7,6.7,0,0,0,462,99a14.8,14.8,0,0,0,.3,6.3,6.6,6.6,0,0,0,3.8,4.2,5.9,5.9,0,0,0,2.7.3,9.3,9.3,0,0,0,3.1-.4l1.4-.4a9.8,9.8,0,0,1,.3,2.8v1.8h-.4a23.7,23.7,0,0,1-7.3.6Zm31.3,0c-4.3-.5-7.1-3.3-7.1-7.1s2.9-7.2,8.6-8H506c.2-.2.2-.4.2-1.4s-1-3.3-2.7-3.9-1.1-.3-3.1-.3-2.5,0-3.8.5a7.6,7.6,0,0,0-2.4,1.1l-1.1.5s-.1-1.1-.1-2.4V90.8l1.2-.5,2.8-.8a13.4,13.4,0,0,1,4.5-.4,15,15,0,0,1,3.9.3c2.9.8,4.6,2.2,5.5,4.5s.7,2.4.9,10c0,4,.1,7.9.2,8.6v1.4h-2.5a9.1,9.1,0,0,1-2.7-.2c0-.1-.1-.9-.2-1.7a12.6,12.6,0,0,0-.1-1.6c0-.1-.1-.1-.3-.1s-.4.2-.6.5a8.7,8.7,0,0,1-8.3,3.5Zm5.4-4.7a6.6,6.6,0,0,0,3.5-6.2v-.8h-2.5c-3.5,0-5.1.3-6.4,1.4a3.5,3.5,0,0,0-1.3,2.7c-.2,2.3,1.5,3.7,4.5,3.5a4.1,4.1,0,0,0,2.3-.5ZM37.2,113.8a11.2,11.2,0,0,1-7.2-4.4,13,13,0,0,1-2.2-7.1c-.2-5.6,2-10.3,5.8-12.3,1.8-1,2.8-1.2,5.6-1.2a14.3,14.3,0,0,1,3.6.3,9.2,9.2,0,0,1,6,5,17.7,17.7,0,0,1,1.7,7.6v1.5H42c-7,0-8.4.1-8.5.2a7.4,7.4,0,0,0,.8,3.1c1.2,2.3,3.9,3.5,7.1,3.3a14.6,14.6,0,0,0,5.7-1.5l1.6-.6s.1,1,.1,2.2v2.2l-.5.3a22,22,0,0,1-4.5,1.4,24.3,24.3,0,0,1-6.6,0Zm7.6-15.2a7.1,7.1,0,0,0-.8-3,5.1,5.1,0,0,0-2-2.1,6.8,6.8,0,0,0-3.2-.6,5.8,5.8,0,0,0-5.2,4.8c-.2.9-.2,1.1,0,1.3s.9.2,5.6.2h5.5v-.6Zm61.8,15.1c-4.5-.9-7.5-3.8-8.9-8.4-.4-1.2-.4-1.5-.4-3.8a11.2,11.2,0,0,1,1.3-6.2,10.3,10.3,0,0,1,5.1-5.2,12.3,12.3,0,0,1,5.4-1.3c4.2-.2,7.2.9,9.9,3.6a8.2,8.2,0,0,1,2,2.7,14.5,14.5,0,0,1,.5,11.7,11.3,11.3,0,0,1-8.6,6.9,16.7,16.7,0,0,1-6.3,0Zm4.6-4.3c2.3-.4,3.9-2.1,4.7-4.8a20.8,20.8,0,0,0,.1-6.1,6.3,6.3,0,0,0-8.6-4.9,7.4,7.4,0,0,0-3.8,5.1,14.5,14.5,0,0,0,.3,6.2,5.9,5.9,0,0,0,7.3,4.5Zm254.1,4.3c-.1-.1-.1-7.5-.1-16.5V80.8h5c4.8-.1,5.1,0,5.2.2s.4,1.1.8,2.2l3.3,10.5c1.4,4.7,2.9,9.4,3.2,10.3s.9,2.3,1.2,2,.6-1.7,1.2-3.5c1.1-3.8,5.3-17.2,6.2-19.9l.6-1.8h10.3v33h-5.9V100.2c0-13.4,0-13.7-.3-13.7s.3-1.9-5.5,15.8c-1.2,3.8-2.6,8-3,9.2l-.8,2.3h-6l-.2-.6c-.6-1.9-5.1-15.6-6.7-20.7a54.9,54.9,0,0,0-2.2-6.1h-.3c-.1.1-.2,6.2-.2,13.8v13.6h-2.9c-2.1,0-2.9-.1-2.9-.2Zm74.2-11.9V89.6h5.1v2.6a9.7,9.7,0,0,0,.2,2.7c.2.1.6-.2.6-.5a9.7,9.7,0,0,1,1.5-2.8A6.6,6.6,0,0,1,452,89c1.6,0,1.5-.2,1.5,3.1V95l-.8-.2h-2a3.2,3.2,0,0,0-1.9.4,5.3,5.3,0,0,0-2.5,2.8c-.8,1.9-.8,2.4-.9,9.3v6.6h-5.8Zm39.1,12c0-.1-.1-5.5-.1-12.2v-12h6v24.1h-2.9a25.8,25.8,0,0,1-3,0ZM0,113.4V80.5H6.5a51.7,51.7,0,0,1,8,.3c4.9.8,7.2,2.7,7.9,6.5s-1.2,8-5,9.2c-1.7.5-1.8.6-.8,1.1a5.7,5.7,0,0,1,2.2,2.4c.5.9,5.6,13.2,5.6,13.4a50.7,50.7,0,0,1-6.8.1L15.4,108c-1.1-2.9-2.2-5.6-2.4-6a3.7,3.7,0,0,0-1.9-2,5.7,5.7,0,0,0-2.7-.3h-2v13.7H3.2C.8,113.6.1,113.5,0,113.4Zm12.3-19c2.6-.7,3.7-2.1,3.7-4.6A3.4,3.4,0,0,0,15,87c-1.1-1.2-3-1.7-6.4-1.6H6.4v4.5c-.1,2.5,0,4.6,0,4.7s4.7.2,5.9-.2Zm73.2,19V89.2h5.9v24.3h-3c-2.2.1-2.9,0-3-.1Zm42.6,0V89.2h5.4v1.6c0,1.9.2,2,1.3.8a8.6,8.6,0,0,1,6.6-2.8c2.8-.1,4.6.5,6.1,2a8.3,8.3,0,0,1,2.2,3.8c.3,1.2.3,1.2.3,10v8.9h-5.8v-8.1c0-5.5-.1-8.4-.2-8.8a4.7,4.7,0,0,0-2.5-3.2,4.8,4.8,0,0,0-1.8-.1,3.3,3.3,0,0,0-2.1.4q-2.4,1-3.3,4.5c-.3,1-.3,1.6-.4,8.2v7.1h-2.8c-2.2.1-2.9,0-3-.1Zm-21.2-28c-.1-.1,3.4-6.3,3.6-6.5a34.3,34.3,0,0,1,5.6.1l-5.6,6c-.5.5-.5.5-2,.5Zm371.7-.9c0-.1-.1-1.3-.1-2.8V79h6v5.5h-5.9ZM85.5,84.1V78.6h5.9v5.6h-3c-2.3,0-2.9,0-3-.2Z" fill="#787776"/><path d="M218.9,214.1c-25.3-1.8-46.1-23.4-48.2-49.9-.1-1.4-.2-14.6-.1-42.6V81H273.7v41.3c0,43.7,0,42.3-.7,46.6a56.3,56.3,0,0,1-8.6,21.8,59.5,59.5,0,0,1-14.7,14.9,50.6,50.6,0,0,1-23.8,8.4,54.5,54.5,0,0,1-7,.1Zm18.5-20.7c.1-.1,1.2-6.1,1.2-6.8s-2.2-.4-2.7.7a1.7,1.7,0,0,0,0,1.8c.2.5.2.5,0,.6h-3.5c0-.1,0-.2.2-.4a2.1,2.1,0,0,0,0-1.9,2.2,2.2,0,0,0-3.7,0,1.9,1.9,0,0,0,0,1.8c.1.2.2.5.1.5a25.7,25.7,0,0,1-3.9.1,3.6,3.6,0,0,0,.6-1.8,1.9,1.9,0,0,0-1.1-1.4,2.3,2.3,0,0,0-1.8-.1,53.7,53.7,0,0,0,1.1,7c.3.3,13.2.3,13.5,0ZM228,182.8a56.5,56.5,0,0,0,1.1-7c-.1-.3-1.2-.3-1.8,0a2,2,0,0,0-.8,2.8l.2.5h-3.8l.2-.4a2.6,2.6,0,0,0,0-2.1,2.6,2.6,0,0,0-1.8-.9,2,2,0,0,0-2,1.7,2.2,2.2,0,0,0,.5,1.7h-4l.2-.6a2,2,0,0,0-1.9-2.9c-.3,0-.6.1-.6.2a34.7,34.7,0,0,0,1,7c.2.2,13.3.3,13.5,0Zm19.7,0a53.8,53.8,0,0,0,1.2-7c-.1-.2-.3-.2-.9-.2a2,2,0,0,0-1.4.6,1.5,1.5,0,0,0-.6,1.4,1.6,1.6,0,0,0,.3,1.1l.2.3a12.1,12.1,0,0,1-3.8,0l.2-.5a2,2,0,0,0-2.8-2.6,2.9,2.9,0,0,0-.8.7,2.5,2.5,0,0,0-.1,1.9,1.5,1.5,0,0,1,.3.5h-4c.6-1.2.6-1.8.1-2.6s-2.2-1.1-2.4-.6a62.4,62.4,0,0,0,.9,6.9l.2.3h6.6c5.2,0,6.7-.1,6.8-.2Zm-30.2-10.2a53.8,53.8,0,0,0,1.2-7c-.1-.3-1.3-.3-1.9,0a1.9,1.9,0,0,0-.7,2.6c.3.7.3.7-1.9.7s-1.9,0-1.4-.6a2.1,2.1,0,0,0-.7-2.5,2.4,2.4,0,0,0-2.2-.2c-.9.5-1.4,2-.8,2.7s.3.6-1.8.6h-2a2.2,2.2,0,0,0,.5-1.7,2.1,2.1,0,0,0-1.1-1.5c-.6-.3-1.6-.3-1.7,0s.9,6.8,1,7,13.3.2,13.5,0Zm20.6-.2a61.5,61.5,0,0,0,1.1-6.9c-.1-.2-1.4-.1-1.9.2a1.9,1.9,0,0,0-.7,2.6c.2.4.2.4-.3.5s-3.4.2-3.3,0,.7-1.9.1-2.6a2.2,2.2,0,0,0-3.5.1,2.6,2.6,0,0,0,0,2.1l.2.5h-3.9l.2-.5a2.1,2.1,0,0,0-.7-2.6c-.6-.4-1.7-.4-1.9-.1a56.5,56.5,0,0,0,1.1,7c.1.1,1.6.2,6.7.2H238v-.4Zm19.7.2c.1-.2,1.2-6.3,1.2-6.9s-.1-.3-.8-.3-.9,0-1.4.5a1.7,1.7,0,0,0-.5,2.3c.4.7.3.7-1.8.7s-2,0-1.5-.6a2.1,2.1,0,0,0-.1-2,2.1,2.1,0,0,0-3.8,1.1,2.4,2.4,0,0,0,.2.9c.5.6.3.6-1.8.6a5.8,5.8,0,0,1-1.9-.1,3.7,3.7,0,0,0,.5-1.7,2.6,2.6,0,0,0-1.2-1.5c-.5-.3-1.6-.3-1.7,0a56.5,56.5,0,0,0,1.1,7c.1.3,13.3.2,13.5,0Zm-20.3-10c.1-.3,1.1-6.8,1-7s-.3-.3-.6-.3a2.1,2.1,0,0,0-2.1,2.8l.4.7h-3.8a3.9,3.9,0,0,1,.2-.6,2,2,0,1,0-3.7.1,1.7,1.7,0,0,1,.2.5h-4l.3-.6a2.1,2.1,0,0,0-1.9-3c-.8,0-.8.1-.2,3.8a19.5,19.5,0,0,0,.6,3.5c.1.2,13.4.2,13.6,0ZM189.7,138c.2-.1.2-1,.2-2.8s0-2.6.3-3.1a2.6,2.6,0,0,1,4.2.2c.2.4.2,1,.2,3a8.5,8.5,0,0,0,.2,2.7,22,22,0,0,0,4.5.1.8.8,0,0,0,.2-.6c0-.8-1.2-10.9-1.3-11.3l-.2-.3h-5.6c-4.5,0-5.6,0-5.7.2s-1.7,10.5-1.7,11.4a3.5,3.5,0,0,0,.1.6,23.6,23.6,0,0,0,4.6-.1Zm18.5,0a8.5,8.5,0,0,0,.2-2.7c0-2.8.1-3.3,1-3.8a3.2,3.2,0,0,1,2.7-.1c.9.5,1,.9,1,3.8a9.5,9.5,0,0,0,.2,2.8,7.3,7.3,0,0,0,2.4.2c1.9,0,2.2-.1,2.3-.3s-1.1-11.6-1.4-11.8-1.4-.2-5.7-.2-5.6,0-5.7.2-1.7,10.7-1.7,11.5a.8.8,0,0,0,.2.5,22.2,22.2,0,0,0,4.5-.1Zm-10.1-15.9v-2.4h-2.2a3.9,3.9,0,0,0-.3,1.1v.9h-1.8v-2.1h-2.5c-.2.1-.3.6-.3,1.1v.9h-.8c-.9,0-1.1-.1-1.1-1.3v-.9h-2.2c-.2.2-.2.7-.2,2.4a10.5,10.5,0,0,0,.1,2.3h11.5Zm18.5,0v-2.4h-2.2a3.9,3.9,0,0,0-.3,1.1v.9h-1.8v-2.1h-2.6a2.3,2.3,0,0,0-.2,1.1v.9h-.8c-.9,0-1.1-.1-1.1-1.3v-.9h-2.2c-.2.2-.2.7-.2,2.2a10.5,10.5,0,0,0,.1,2.3c.1.2.7.3,5.8.2h5.7Zm-26.9-6.7c.2-.2.2-1,.2-2.8s0-2.7.3-3.1a2.6,2.6,0,0,1,4.2.2c.2.4.2,1,.2,3a9.7,9.7,0,0,0,.2,2.7,22.5,22.5,0,0,0,4.5,0c.3-.1.3-.4-.4-6.5-.5-4-.7-5.4-.9-5.5H186.7c-.2.2-1.7,10.6-1.7,11.5a2,2,0,0,0,.1.5,23.6,23.6,0,0,0,4.6,0Zm18.5,0a9.7,9.7,0,0,0,.2-2.7c0-2.9.1-3.3,1-3.9a3.2,3.2,0,0,1,2.7,0c.9.5,1,.9,1,3.8a10.1,10.1,0,0,0,.2,2.8h2.4c1.9,0,2.2,0,2.3-.2a28.8,28.8,0,0,0-.3-3.8c-.2-1.9-.5-4.4-.7-5.6a7.8,7.8,0,0,0-.4-2.4c-.3-.3-11.2-.4-11.4-.1s-1.7,10.8-1.7,11.6.1.4.2.4a22.5,22.5,0,0,0,4.5,0Zm-10.5-13.5h.4V97.1h-1a1.9,1.9,0,0,0-1.2.1,3,3,0,0,0-.3,1.1v.9h-1.8V97.1h-1.2a2.1,2.1,0,0,0-1.3.1c-.2.1-.3.5-.3,1.1v.9h-.8c-.9.1-1.1-.1-1.1-1.2v-.9h-1a1.9,1.9,0,0,0-1.2.1c-.2.1-.2.7-.2,2.4s0,2.2.3,2.3a99.1,99.1,0,0,0,10.9,0Zm18.7,0c.3-.2.3-.5.2-2.5V97.1h-1a1.9,1.9,0,0,0-1.2.1,3,3,0,0,0-.3,1.1v.9h-1.8V97.1H211a2.7,2.7,0,0,0-1.4.1,2,2,0,0,0-.2,1.1v.9h-.8c-.9.1-1.1-.1-1.1-1.2v-.9h-1a1.9,1.9,0,0,0-1.2.1c-.2.1-.2.6-.2,2.3a9.9,9.9,0,0,0,.1,2.2c.2.3.7.3,6,.3s5.1,0,5.3-.1Z" fill="#931f2c"/></svg>