<svg xmlns="http://www.w3.org/2000/svg" viewBox="0 0 512 512"><g fill="#fff"><path d="M112.7 432.4H97.5l-3.1 8.8h-7.7l14.3-38.6h8.5l14.2 38.6h-7.9zm-12.8-6.9h10.4l-5.2-14.6zm27 26.2l6.1-13.9-11-23.4h7.8l6.9 15.7 6.4-15.7h7.5l-16.3 37.3zm43.9-13.4c-1.4 2.5-4.4 3.6-7.1 3.6-6.3 0-9.9-4.8-9.9-10.6v-16.9h7v15.5c0 2.9 1.5 5.3 4.8 5.3s4.9-2.1 4.9-5.2v-15.6h7v21.9c0 2.1.1 3.9.2 4.9H171a20.7 20.7 0 0 1-.2-2.9zm20.6 2.9h-7v-26.8h6.8v3.3a8.7 8.7 0 0 1 7.5-4c6.4 0 9.4 4.7 9.4 10.6v16.9h-7v-15.6c0-3-1.4-5.4-4.8-5.4s-4.9 2.5-4.9 5.6zm31.9-26.8h5.2v6.4h-5.2V432c0 2.4 1.1 3.1 3.1 3.1l2.1-.2v6a9.6 9.6 0 0 1-3.9.6c-5.1 0-8.2-3.1-8.2-8.2v-12.5h-4.7v-6.4h1.3c2.7 0 4-1.8 4-4.2v-3.8h6.3zm17 11.4l6.4-1c1.4-.2 1.9-1 1.9-1.9s-1.4-3.5-4.4-3.5a4.6 4.6 0 0 0-4.9 4.4l-6.2-1.4c.4-4.2 4.1-8.8 11.1-8.8s11.3 4.8 11.3 10.2v13.1a27.2 27.2 0 0 0 .3 4.3h-6.4a15.1 15.1 0 0 1-.3-3.2 8.6 8.6 0 0 1-7.6 3.9c-5.6 0-9-3.8-9-8s3.5-7.5 7.8-8.1zm8.3 4.5v-1.1l-5.8.9a3.2 3.2 0 0 0-3.2 3.3 3 3 0 0 0 3.3 3.1c3 0 5.7-1.4 5.7-6.2zm13.4 10.9v-26.8h6.7v3.3c1.4-2.6 4.7-4 7.6-4s6.4 1.5 7.7 4.4a8.9 8.9 0 0 1 8.2-4.4c4.8 0 9.4 3 9.4 10.1v17.4h-6.8v-15.9c0-2.9-1.4-5.1-4.6-5.1s-4.8 2.4-4.8 5.3v15.7h-6.9v-15.9c0-2.9-1.5-5.1-4.6-5.1s-4.9 2.4-4.9 5.3v15.7zm49.7-40a4.5 4.5 0 0 1 0 8.9 4.5 4.5 0 0 1 0-8.9zm-3.5 40v-26.8h7v26.8zm37.2-7.7c-1.3 4.6-5.4 8.5-11.8 8.5s-13.4-5.3-13.4-14.3 6.1-14.1 12.8-14.1 12.8 5.3 12.8 13.9c0 1-.1 2.1-.1 2.2h-18.6a6.5 6.5 0 0 0 6.5 6.1 5.7 5.7 0 0 0 5.9-4.1zm-6.5-8.8c-.1-2.6-1.8-5.2-5.8-5.2a5.6 5.6 0 0 0-5.8 5.2zm18.9 16.5h-7v-26.8h6.8v3.3a8.6 8.6 0 0 1 7.5-4c6.4 0 9.3 4.7 9.3 10.6v16.9h-7v-15.6c0-3-1.4-5.4-4.8-5.4s-4.8 2.5-4.8 5.6zm31.9-26.8h5.2v6.4h-5.2V432c0 2.4 1 3.1 3 3.1l2.2-.2v6a9.9 9.9 0 0 1-4 .6c-5 0-8.2-3.1-8.2-8.2v-12.5H378v-6.4h1.3c2.8 0 4-1.8 4-4.2v-3.8h6.4zm35.6 13.4c0 8.2-5.9 14.2-13.6 14.2s-13.6-6-13.6-14.2 5.8-14.2 13.6-14.2 13.6 5.9 13.6 14.2zm-7 0c0-5.1-3.2-7.6-6.6-7.6s-6.6 2.5-6.6 7.6 3.2 7.6 6.6 7.6 6.6-2.6 6.6-7.6zm-255.1 78.5l.2 4.9h-6.7a20.2 20.2 0 0 1-.3-3.1c-1.1 2.1-3.8 3.7-7.2 3.7-7.4 0-12.7-5.9-12.7-14s5.1-14 12.5-14c4.4 0 6.5 1.9 7.3 3.3v-15.3h6.9zm-13.2-.9c3.6 0 6.4-2.9 6.4-7.7s-2.8-7.4-6.4-7.4-6.4 2.7-6.4 7.5 2.7 7.6 6.4 7.6zm43.5-1.9c-1.3 4.6-5.4 8.5-11.8 8.5s-13.4-5.3-13.4-14.3 6.1-14.1 12.8-14.1 12.8 5.3 12.8 13.9c0 1-.1 2.1-.1 2.2h-18.6a6.5 6.5 0 0 0 6.5 6.1 5.7 5.7 0 0 0 5.9-4.1zm-6.5-8.7c-.1-2.7-1.8-5.3-5.8-5.3a5.6 5.6 0 0 0-5.8 5.3zm59.4 16.4v-27l-10.7 27h-6.1l-10.8-26.8v26.8h-6.9v-38.6h9.6l11.2 27.9 11-27.9h9.9v38.6zm31.4-2.9c-1.4 2.5-4.4 3.6-7.1 3.6-6.3 0-9.9-4.7-9.9-10.6v-16.9h7v15.5c0 3 1.5 5.4 4.8 5.4s4.9-2.2 4.9-5.3v-15.6h7v21.9c0 2.1.1 4 .2 4.9H278a20.7 20.7 0 0 1-.2-2.9zm29.4-16.7l-2.1-.2c-3.6 0-6.7 1.8-6.7 7.6v12.2h-7v-26.8h6.8v4c1.6-3.5 5.2-4.2 7.4-4.2h1.6zm9.3 6.2c0 4.9 3 7.6 6.6 7.6a6.1 6.1 0 0 0 6-4.5l6.1 2.1a12.1 12.1 0 0 1-12.1 9c-7.6 0-13.7-6-13.7-14.2s5.9-14.2 13.5-14.2 11.1 4.5 12.2 9l-6.3 2.2a5.7 5.7 0 0 0-5.8-4.5c-3.5 0-6.5 2.7-6.5 7.5zm26.8-26.6a4.5 4.5 0 1 1-4.3 4.5 4.4 4.4 0 0 1 4.3-4.5zm-3.4 40v-26.8h7v26.8zm20.1-15.4l6.4-1c1.4-.2 1.9-1 1.9-1.9s-1.4-3.5-4.4-3.5a4.7 4.7 0 0 0-4.9 4.4l-6.2-1.4c.4-4.2 4.1-8.8 11.1-8.8s11.3 4.8 11.3 10.2v13.1a25.4 25.4 0 0 0 .3 4.3h-6.4a15.1 15.1 0 0 1-.3-3.2 8.6 8.6 0 0 1-7.7 3.9c-5.5 0-8.9-3.8-8.9-8s3.5-7.4 7.8-8.1zm8.3 4.6v-1.2l-5.8.9c-1.8.3-3.2 1.3-3.2 3.4a3.1 3.1 0 0 0 3.3 3.1c3 0 5.7-1.5 5.7-6.2zM190.8 316h130.3v10.86H190.8zM180 337.7h152v10.86H180z"/><path d="M203.1 73.6l.3-.2.5-.3.6-.3.6-.3.5-.3.6-.3.5-.3.6-.3.6-.3.6-.3.5-.3.6-.3.6-.2.6-.3.5-.3.6-.3.6-.2.6-.3.6-.3.6-.2.6-.3.5-.2.6-.3.6-.2.6-.2.6-.3.6-.2.6-.2.7-.3.6-.2.6-.2.6-.2.6-.2.6-.2.6-.2.6-.2.7-.2.6-.2.6-.2.6-.2.7-.2h.6l.6-.2.6-.2h.7l.6-.2.6-.2h.7l.6-.2h1.3l.6-.2h1.3l.7-.2h40l.6.2h1.3l.7.2h1.2l.7.2h.6l.7.2.6.2h.6l.6.2.7.2h.6l.6.2.7.2.6.2.6.2.6.2.6.2.7.2.6.2.6.2.6.2.6.2.6.2.6.3.6.2.6.2.6.3.6.2.6.2.6.3.6.2.6.3.6.2.6.3.6.3.5.2.6.3.6.3.6.3.6.2.5.3.6.3.6.3.5.3.6.3.6.3.5.3.6.3.6.3.5.3.6.3.3.2 7.1-12.3a118.4 118.4 0 0 0-60-16.1c-19.7 0-43.3 5.4-60 16.1zm-8-28.6l-6.6 3.4-8.5-15.8 7.3-3.8zm14.3-5.8c-2.5.8-5 1.8-7.4 2.8l-7-16.6 8.4-3.2zm3-19.8l8.5-2.2 3.9 17.6c-2.5.5-5 1.2-7.4 1.9zm18.1-4c3.3-.5 6.6-1 10-1.3l1.8 17.9c-2.9.3-5.8.6-8.8 1.1zM277.9 33l-8.8-1.1 1.6-17.9 9.9 1.3zm16.6 3.6l-7.9-2 3.8-17.5 9 2.3zM310 42l-7.5-2.9 5.8-17 8.5 3.3zm13.4 6.4L317 45l7.7-16.2 7.3 3.8zm-71.1-17h7.5L261.4.1h-10.7z"/><path d="M245.1,294.3h21.7V261.7a10.9,10.9,0,0,0-21.8,0v32.6Zm-32.5-86.9v86.9h21.7V261.7a21.7,21.7,0,0,1,43.4,0v32.6h21.7V207.4Zm-10.9-10.8H310.3V305.1H201.7Z"/><path d="M245.2,153.1h21.7v21.7H245.2Zm-54.4,0v43.5h10.9V185.7H310.3v10.9h10.9V153.1H310.3v21.7H299.4V153.1H288.6v21.8H277.7V131.4H266.8v10.9H245.1V131.4H234.3v43.5H223.4V153.1H212.5v21.7H201.7V153.1Z"/></g></svg>