<svg xmlns="http://www.w3.org/2000/svg" viewBox="0 0 494 512"><g fill="var(--text,#bd1828)"><path d="M440.4,481.3l14.8-.2L448,465.7Zm10-35.9h-4.7l-27.2,57.5h11.9l6.2-13.3H459l6.6,13.4h11.6Zm-42.2-8.2h79.4v73.7l-79.4.2Z"/><path d="M194,320.1l14.8-.2-7.2-15.4Zm10-35.9h-4.7l-27.2,57.5H184l6.3-13.3h22.3l6.6,13.4h11.6Zm35.3,66H163.6V275.5h75.7Z"/><path d="M11,294.7H32v46.9H42.8V294.7H66.6V284.2H11Zm65.6,55.4H1V275.6H76.6Z"/><path d="M448,282.8a29,29,0,0,0-14.9,4,28.1,28.1,0,0,0-10.9,11,30.1,30.1,0,0,0,26.2,45.1,29.9,29.9,0,0,0,30-30.1,28.8,28.8,0,0,0-8.7-21.3c-5.9-5.9-13.2-8.7-21.7-8.7m.3,10.6A19.4,19.4,0,0,1,465,303a18.9,18.9,0,0,1,2.6,9.8,19.2,19.2,0,0,1-2.6,9.9,17.5,17.5,0,0,1-7,7,19.3,19.3,0,0,1-9.7,2.6,18.3,18.3,0,0,1-13.6-5.6,18.5,18.5,0,0,1-5.6-13.7,19.2,19.2,0,0,1,9.6-17,18.2,18.2,0,0,1,9.6-2.6m-40.1,56.4v-74h80.3v73.9Z"/><path d="M255.3,294.7h21.1v46.9h10.8V294.7H311V284.2H255.3Zm65.6,55.4H245.4V275.6h75.5Z"/><path d="M6.3,503.4H16.9l4.2-30.9,15.4,30.9h4.7l15.1-30.6,4.2,30.6H71.2L63,446H58L38.8,485.1,19.4,446H14.5Zm70.3,8.5H1V437.4H76.6Z"/><path d="M100.2,444.7v34.2c0,5.2.3,9.3,1,11.7,2.7,8.6,10.9,12.9,19.5,12.9A18.5,18.5,0,0,0,138.6,491a42.5,42.5,0,0,0,1.5-12.1V444.7H129.4v34.2c0,6.4-.5,14.2-9,14.2a11.5,11.5,0,0,1-4.7-1.1,7.7,7.7,0,0,1-3.3-2.6,8.9,8.9,0,0,1-1.3-4,45.1,45.1,0,0,1-.2-6.5V444.7Zm57.3,66.4H82.7V437.2h74.8Z"/><path d="M311.8,458.3c-3.6-5-6.6-8.4-12.2-11.1a31.1,31.1,0,0,0-14.4-3.2c-17,0-30.8,12.3-30.8,29.8a30.1,30.1,0,0,0,7.3,20.3c5.9,6.7,13.8,10,23.6,10a33,33,0,0,0,14.1-3c5.7-2.6,8.7-5.9,12.5-10.6l-8.4-6.4c-5.1,5.9-9.6,9.6-17.9,9.6a19.8,19.8,0,0,1-14.5-5.6,18.4,18.4,0,0,1-5.7-13.9,20.2,20.2,0,0,1,2.5-9.9,18.6,18.6,0,0,1,7.2-7,20.2,20.2,0,0,1,10.2-2.7,19.8,19.8,0,0,1,9.2,2.1c4.2,1.9,6.2,4.5,8.9,8Zm9.1,52.7H245.4V437.1h75.5Z"/><path d="M359.2,502.9h10.7V445.4H359.2Zm42.9,8.2H327V437.2h75.1Z"/><path d="M67.4,378.1c-3.5-5-6.6-8.4-12.2-11.1a31,31,0,0,0-14.3-3.2c-17.1,0-30.8,12.3-30.8,29.7a30.2,30.2,0,0,0,7.2,20.3c5.9,6.8,13.9,10.1,23.6,10.1a33.1,33.1,0,0,0,14.2-3c5.6-2.6,8.7-5.9,12.4-10.6l-8.4-6.4c-5.1,5.9-9.6,9.5-17.9,9.5-5.9,0-10.7-1.8-14.5-5.5A18.5,18.5,0,0,1,21,394a19.3,19.3,0,0,1,2.6-10,18.4,18.4,0,0,1,7.2-6.9,19.9,19.9,0,0,1,10.1-2.7,21.8,21.8,0,0,1,9.3,2c4.1,2,6.1,4.6,8.8,8.1ZM76.6,431H1V356.5H76.6Z"/><path d="M114.8,422.6h10.7V365.1H114.8Zm42.7,8.7H82.7v-75h74.8Z"/><path d="M174.6,365.1v57.5h10.7V398.4h11L215,422.6h13.4l-19-24.5a20.2,20.2,0,0,0,6-1.6,15.3,15.3,0,0,0,6.9-5.9,16.1,16.1,0,0,0,2.4-8.9,15.3,15.3,0,0,0-3.5-10.3c-5.5-6.6-13.6-6.3-21.3-6.3Zm10.7,10.6h18.6c3,0,7.1-.2,9,2.8a5.7,5.7,0,0,1,.9,3.2,6.4,6.4,0,0,1-.9,3.4,5.2,5.2,0,0,1-2.6,2c-1.2.5-3.3.8-6.7.8H185.3Zm54,55.4-75.7.2V356.5h75.7Z"/><path d="M311.8,378.1c-3.6-5-6.6-8.4-12.2-11.1a31.1,31.1,0,0,0-14.4-3.2c-17,0-30.8,12.3-30.8,29.7a30.3,30.3,0,0,0,7.3,20.3c5.9,6.8,13.8,10.1,23.6,10.1a32.7,32.7,0,0,0,14.1-3c5.7-2.6,8.8-5.9,12.5-10.6l-8.4-6.4c-5.1,5.9-9.6,9.5-17.9,9.5-5.9,0-10.7-1.8-14.5-5.5a18.5,18.5,0,0,1-5.7-13.9,20.3,20.3,0,0,1,2.5-10,18.4,18.4,0,0,1,7.2-6.9,20.2,20.2,0,0,1,10.2-2.7,21.1,21.1,0,0,1,9.2,2c4.1,2,6.2,4.6,8.9,8.1Zm9.1,52.9H245.4V356.5h75.5Z"/><path d="M364.2,363.8a29.6,29.6,0,0,0-25.8,15,31.1,31.1,0,0,0-4,15.2c0,16.9,13.5,29.8,30.2,29.8a29.9,29.9,0,0,0,30.1-30,29.3,29.3,0,0,0-8.8-21.4c-5.9-5.8-13.1-8.6-21.7-8.6m.2,10.6a19.5,19.5,0,0,1,16.8,9.6,18.6,18.6,0,0,1,2.6,9.8,19.2,19.2,0,0,1-2.6,9.9,17.2,17.2,0,0,1-6.9,7,19.8,19.8,0,0,1-9.9,2.6,18.7,18.7,0,0,1-13.5-5.6,18.5,18.5,0,0,1-5.6-13.7,19.2,19.2,0,0,1,9.6-17,18.4,18.4,0,0,1,9.5-2.6m37.7,56.5H327V356.6h75.1Z"/><path d="M337.6,284.1v57.5h10.7V317.4h11.1L378,341.6h13.4l-18.9-24.5a23.9,23.9,0,0,0,6-1.5,15.5,15.5,0,0,0,6.9-6,15.9,15.9,0,0,0,2.4-8.9,15.7,15.7,0,0,0-3.5-10.3c-5.5-6.6-13.6-6.3-21.4-6.3Zm10.7,10.7h18.6c3.1,0,7.1-.2,9.1,2.7a5.7,5.7,0,0,1,.9,3.2,6.4,6.4,0,0,1-.9,3.4,6.7,6.7,0,0,1-2.6,2.1,21.9,21.9,0,0,1-6.7.8H348.3Zm53.8,55.1H327V275.7h75.1Z"/><path d="M174.6,445.4v57.5h10.7V478.7h11L215,502.9h13.4l-19-24.5a20.2,20.2,0,0,0,6-1.6,15.3,15.3,0,0,0,6.9-5.9,16.4,16.4,0,0,0,2.5-8.9,15.4,15.4,0,0,0-3.6-10.3c-5.5-6.7-13.6-6.3-21.3-6.3ZM185.3,456h18.6c3,0,7.1-.2,9,2.7a6.3,6.3,0,0,1,.9,3.3,6.7,6.7,0,0,1-.9,3.4,4.8,4.8,0,0,1-2.6,2c-1.1.5-3.3.8-6.7.8H185.3Zm54,55.1H163.6V437.2h75.7Z"/><path d="M98.8,284.2v57.5h42.4V331.1H109.5V316.2h31.7V305.6H109.5V294.9h31.9V284.2Zm58.7,66.1-74.8.2V275.4h74.8Z"/><path d="M493.7,236.1a3.9,3.9,0,0,1-3.8,3.8c-81.2,0-241.5-.8-485.8-.8a4,4,0,0,1-3.8-3.9C.4,98.1,111.3,0,247.9,0S493.7,98.9,493.7,236.1"/></g></svg>