<svg xmlns="http://www.w3.org/2000/svg" viewBox="0 0 512 470"><g fill="var(--text,#28201a)"><path d="M321.2,193.1c0-20.5-1.1-40.9.3-61.3,2.1-30.2,13.9-56.1,39.7-74.1a86.7,86.7,0,0,1,37.6-14.5,134.7,134.7,0,0,1,50.2,2c34.1,8,53.8,30.3,60.8,63.8,2.2,10.2,1.5,21,2,31.5,0,.7-1.5,2.1-2.2,2.1H459.9c-2.9,0-2.4-1.5-2.6-3.3-.7-8.8-.7-17.7-2.6-26.1-3.5-15.5-13.1-23.5-28.9-24.6-7.1-.5-14.7-.2-21.5,1.8-11.2,3.2-18.2,12.1-21.2,23s-5,20.4-5.2,30.6c-.6,33.8-.4,67.7.1,101.5a99,99,0,0,0,4.7,26.3c5.8,18.9,21.2,28.8,40.9,27.4a53.1,53.1,0,0,0,10.6-1.5c9.9-2.5,17.2-8.5,19.3-18.4s2.8-19.7,3.7-29.6c.2-2.6.3-3.8,3.5-3.8,15.9.2,31.9,0,47.8.2,1.2,0,3.3,1.2,3.3,1.9.6,17.1.3,33.9-6.8,50-9.6,22-25.8,36.5-48.9,42.8s-47.5,7-70.9-.6c-35-11.2-54.9-36.3-61.9-71.9-1.9-9.4-2.5-19.2-2.8-28.8-.4-15.5-.1-31-.1-46.5Z"/><path d="M413.1,393.3c4.9,2.5,6.6,6.4,6.8,11.5s.9,9.2,1.5,14.4a87.9,87.9,0,0,1-8.8-.1,4.4,4.4,0,0,1-2.7-2.8,85.9,85.9,0,0,1-.7-10.2c-.2-7.1-6.2-11.1-12.7-8.2-.7.3-1,1.9-1.1,2.9-.1,4.9-.2,9.9.1,14.8.1,3-1,4-3.8,3.6h-3.6c-2.9.5-3.5-.8-3.4-3.5.1-15.8.1-31.5-.1-47.3,0-2.8.7-3.6,3.5-3.5,4.6.3,9.2.2,13.9.1,7.2-.2,13.2,1.7,16.4,8.9S419.8,386.9,413.1,393.3Zm-17.7-11.9c0,8.5,0,8.5,7.1,7.7,4.5-.4,6.7-3.4,6.4-8.5s-3.1-7.3-10.5-7.1c-5.7.1-1.9,4.4-3,6.6C395.2,380.4,395.4,381,395.4,381.4Z"/><path d="M466.8,391.8c.4-4.7.3-9.6,1.3-14.2,2-9.1,9.1-13.8,19.3-13.5s16.3,5.9,17.1,14.5a129.2,129.2,0,0,1,0,27.1c-.9,9.4-9.4,15-19.4,14.4s-17.1-7.2-17.8-18c-.3-3.4-.1-6.9-.1-10.3Zm27.9.6c-.2-4.4-.1-8.5-.6-12.4s-3.7-7.2-7.7-7.4a7.4,7.4,0,0,0-8,7.3,200.2,200.2,0,0,0,.1,24.5c.3,4.7,3.6,7.1,7.7,7.1s7.1-2.4,7.8-7.1S494.5,396.1,494.7,392.4Z"/><path d="M323.1,392.2c0-4.4-.4-8.9.1-13.3,1.1-9.7,8.4-15.2,18.9-14.8s15.3,5.9,16.1,15.5c.3,2.8-.6,3.5-3,3.2a28.1,28.1,0,0,0-4.1,0c-2.1.2-3-.4-3.3-2.8-.6-5.5-2.8-7.4-7.1-7.4s-6.7,2.7-7,7.8c-.3,7.5-.1,15.1-.1,22.7a11.3,11.3,0,0,0,.6,3.1c1.2,3.7,3.8,5.5,7.8,5.3s5.3-2.6,5.7-6.2,2.6-4.6,8.8-3.6c3.8.6,1.6,3.3,1.4,4.8-.8,8.6-6.6,13.4-15.8,13.6s-17.8-5.3-18.9-14.5c-.6-4.4-.1-8.9-.1-13.4Z"/><path d="M426,392.1c.6-5.5.6-11,1.9-16.3,2.1-8.6,10-12.8,20.4-11.6,8.1,1,12.9,6.4,13.8,15.1.3,2.7-.3,3.9-3.2,3.5s-3.1.3-4.4-.1a4,4,0,0,1-2.6-2.3c-1-5.8-2.9-7.8-7.3-7.7s-6.8,2.7-7,8.2c-.3,7.7-.2,15.4.1,23.1.1,4.2,2.5,7.1,6.9,7.5s6.8-1.3,6.8-5.4,2.4-4.6,5.8-4.5c5.5.2,5.5.1,4.7,5.5-1.4,8.6-7.5,13.3-17.3,13s-16.7-6.2-17.7-15.5c-.4-4.1,0-8.3,0-12.4Z"/><path d="M462.5,450.5c0,5.2-.2,10.3.1,15.5.1,2.9-1.2,3.1-3.5,3.1s-3.5-.3-3.4-3.1c.1-8.8,0-17.6.1-26.3,0-1.3.9-3.6,1.5-3.7,2.3-.2,4.9-1.2,6.3,2.2a109.9,109.9,0,0,0,8.9,16.9c0-5.2.1-10.3,0-15.5-.1-2.5.1-3.9,3.4-4s3.3,1.8,3.3,4.1c0,8.4.1,16.7-.1,25,0,1.5-.8,3.9-1.6,4.1-2.4.5-5.1,1-6.5-2.6-2.2-5.4-5-10.6-7.6-15.9Z"/><path d="M375.9,392.2c0,7.8-.1,15.5,0,23.2.1,2.8-.4,4-3.5,3.9-7.2-.2-7.2,0-7.2-7.3,0-14.3.1-28.6-.1-42.9-.1-3.1.5-4.8,4-4.2a10.9,10.9,0,0,0,3.6.1c2.5-.4,3.3.5,3.3,3.1C375.8,376.1,375.9,384.2,375.9,392.2Z"/><path d="M393.6,469.6c-5.5,0-9.9-2.8-11-7.2-.3-1.1.5-2.5.8-3.7l5.3,1.6c.3.2.2,1.4.6,1.6s3.2,2.3,4.9,2.3,3.1-1.8,3.1-2.8a6.6,6.6,0,0,0-2-4.8c-1.8-1.5-4.3-2.1-6.4-3.1-5-2.6-6.8-5.9-5.8-10.8s4.4-6.8,9.5-7.2,9.7,2.1,11,6.5c.3,1.1-.3,2.5-.4,3.7-1.9-.4-3.8-.7-5.6-1.2s-.2-1.3-.6-1.6-2.7-2-4.1-2a4.5,4.5,0,0,0-3.1,2.6,5.3,5.3,0,0,0,1.5,4.2c2,1.4,4.5,2.2,6.7,3.3,5.3,2.7,7.4,6.9,6,12S399.1,469.7,393.6,469.6Z"/><path d="M482.4,468.6c2.8-10.1,5.7-19.9,8.3-29.8.7-2.5,1.8-3.1,4.3-3.1s3.7.3,4.4,3c2.2,8.9,4.9,17.7,7.2,26.6.3,1.1-.3,2.5-.5,3.7-2.1-.3-5.4,1.4-5.6-2.4-.3-5.4-4-4.7-7.3-4.4a4.3,4.3,0,0,0-2.9,2.3C489.7,469.6,486.5,469.6,482.4,468.6Zm13-21.6h-.7c-.6,2.2-1.3,4.4-1.8,6.7s0,2.8.3,2.9a7.5,7.5,0,0,0,3.9-.2c.2,0,.2-1.8,0-2.7S496,449.3,495.4,447Z"/><path d="M345.6,468.6c-4,.9-7.3,1.2-7.8-4.1-.4-3.8-3.6-2-5.6-2.3s-3.7,0-4.2,2.6.1,4.3-3.3,4.3-4.7-.2-3.4-4.2c2.7-8.4,4.9-17.1,7.2-25.7.7-2.7,2-3.6,4.9-3.5s3.4,1.2,4,3.4C340.1,448.9,342.9,458.7,345.6,468.6Zm-12.2-21.4h-.8c-.6,2.2-1.2,4.4-1.7,6.7a12.9,12.9,0,0,0-.1,2.8h4.3a13.1,13.1,0,0,0,0-2.8C334.6,451.6,334,449.4,333.4,447.2Z"/><path d="M360,452.2c0-4.6-.1-9.2.1-13.9a3.8,3.8,0,0,1,2.4-2.4c4.9-.2,9.8-.2,14.8,0,.8,0,1.9,1.5,2.2,2.5s-.1,3.2-2.5,2.9-3.5,0-5.3,0c-5.2,0-5.8.6-4.8,6a2.8,2.8,0,0,0,2,1.8,28.1,28.1,0,0,0,5.8.1c2-.1,3.2,0,3.2,2.7s-1.3,2.8-3.2,2.7H372c-4.2-.8-5.7.7-5.4,5.1s1,4.5,4.3,4.1a16.1,16.1,0,0,1,6.2.1c1.1.2,1.9,1.7,2.8,2.7-.9.8-1.7,2.3-2.6,2.3-4.8.3-9.5,0-14.3.2-2.3,0-3.1-.7-3.1-3.1C360.1,461.4,360,456.8,360,452.2Z"/><path d="M407.4,452.5c0-2.2-.1-4.4.1-6.7a11,11,0,0,1,17-8.8c1.9,1.3,3.1,4.1,4.2,6.4s-.7,2.3-1.1,3.5c-1.7-.6-4.5,1.7-5.2-2.3-.3-1.5-2.6-3.6-4-3.6s-3.7,2.2-3.9,3.7a76.2,76.2,0,0,0-.1,15.1c.2,1.6,2.4,3.8,4.1,4.3s3.5-1.3,4.3-3.8c.4-1,3.1-1.4,4.8-1.8a6,6,0,0,1,1.3,3c-.4,4.7-3.6,7.7-8.6,8.1s-10.7-2-12-6.9c-.9-3.2-.8-6.7-1.2-10.1Z"/><path d="M433,452.3c0-4.5.1-9,0-13.4-.1-2.2.3-3.3,2.8-3.2,4.8.2,9.5,0,14.3.2.9.1,2.1,1.4,2.5,2.4s-.1,3.2-2.5,3-4.2.2-6.2-.1c-3.7-.4-4.5,1.1-4.5,4.5s1.1,3.8,3.9,3.6a13.4,13.4,0,0,1,4.9,0,3.8,3.8,0,0,1,2.2,2.6,3.8,3.8,0,0,1-2.2,2.6,7.3,7.3,0,0,1-3.9.1c-4.1-.8-5,.9-4.9,4.8s1,4.8,4.5,4.4a18.4,18.4,0,0,1,6.2.1,3.5,3.5,0,0,1,2.4,2.5c0,.8-1.4,2.5-2.2,2.5a121.8,121.8,0,0,1-14.8,0,3.7,3.7,0,0,1-2.4-2.3c-.2-4.8-.1-9.6-.1-14.3Z"/><path d="M352,459c-1.7-2-3-2.9-3.3-4.1-.7-3.4,2-2.7,3.9-2.8s4.1.3,3.3,3C355.5,456.3,353.8,457.2,352,459Z"/></g><g fill="#c6e601"><path d="M198.9,384.5c-6.8-5-13.3-10.3-20.1-15.4-13.2-9.8-26.5-19.4-39.6-29.3s-26.7-19.9-39.4-30.6S73,286.5,62.7,272c7.2-14.7,14.1-29.6,21.8-44.1,6.6-12.4,14.1-24.3,21.1-36.4h.9c3.1,6.8,6,13.7,9.1,20.4,4.7,10.1,9.4,20,14.3,30a102,102,0,0,0,5.7,10.2c8.6,13.9,17,27.9,25.9,41.7,6.7,10.3,13.9,20.4,21,30.5,5.7,8.1,11.2,16.2,17.3,24s13,17.4,21.1,24.9c3.4,3.2,5.9,7.4,8.9,11.1s8,10.1,12.4,14.8c6.1,6.4,12.9,12.2,19.1,18.5,8.3,8.7,16.3,17.7,24.6,26.5,1.6,1.7,5.4,1.5,4.8,5.3-3.4-2-7.1-3.9-10.3-6.2C268,434.5,256,425.5,243.6,417c-7.5-5.1-15.5-9.4-23.2-14.2Z"/><path d="M290.7,449.4l4.7,3.5Z"/><path d="M221.1,65.3c.6,1.7,1.7,3.5,1.6,5.1-1,11.7-2.4,23.4-3.4,35.2-.6,7.3-.3,7.4,7.1,4.9l18-5.8c-2.2,10.3-4.6,20.5-6.5,30.9-2.3,12.6-4.3,25.3-6,38s-3,26.5-4.4,39.7a6.6,6.6,0,0,0-.1,1.4c-.3,12-1.2,24-.8,36s2.1,25.7,3.3,38.5c.3,3.2.7,6.5,1,9.7-4.5-1.3-3.3-5.7-4.1-8.5a196.1,196.1,0,0,1-5.4-26.4c-1.7-12-3.3-24-3.8-36.1-1-26.3-1.5-52.7-1.8-79-.1-10.2,1.1-20.4,1.7-30.6.2-2.9.1-4.4-3.9-3.9a272.7,272.7,0,0,1-28.6,1.8c-5.6.1-11.2-1.1-16.8-1.7,2.9-3.4,5.4-7.3,8.7-10.3C191.5,91.1,206.4,78.3,221.1,65.3Z"/><path d="M230.9,300.7l.9,3.6Z"/><path d="M232.7,307.8l.9,1.9Z"/></g><g fill="#e1fe02"><path d="M230.9,300.7v-1.8c-.3-3.2-.7-6.5-1-9.7-1.2-12.8-2.8-25.6-3.3-38.5s.5-24,.8-36a6.6,6.6,0,0,1,.1-1.4c1.4-13.2,2.6-26.5,4.4-39.7s3.7-25.4,6-38c1.9-10.4,4.3-20.6,6.4-30.9l5.4-2.8,12.7-7c11.4-6.2,22.4-12.9,31.9-21.8,4.8-4.6,9.3-9.5,15-15.3l-2.8,9.8c-2.2,8-4.5,16-6.7,24-1.6,6.2-3.1,12.5-4.6,18.7-.9,3.6-1.8,7.2-2.4,10.8-2,12.5-4.1,25-5.7,37.6-2,15.5-3.5,31.2-5.5,46.8a423.6,423.6,0,0,0-3,72.1c.9,18.2,3.2,36.4,4.9,54.6.6,6.8,1.1,13.6,2.1,20.3,1.5,9.8,3.3,19.5,4.9,29.3.8,4.3,1.3,8.7,2.1,13.1l5.1,26.7c1.4,7.1,2.6,14.2,4,21.3,1,5.1,2.2,10.2,3.3,15.3-3-4.1-6.2-8.2-8.9-12.5-4.8-7.7-9.3-15.6-13.7-23.6-12.8-23-25.2-46.3-34.7-70.9-4.8-12.4-9-25.1-13.5-37.6a26.3,26.3,0,0,1-.6-3.9l-.9-1.9-.9-3.5Z"/><path d="M105.6,191.5c-7,12.1-14.5,24-21.1,36.4-7.7,14.5-14.6,29.4-21.8,44.1h-.8a253.8,253.8,0,0,1-33.3-50.1c-6.6-13.3-13-26.8-18.1-40.7-4.4-11.8-6.9-24.4-10-36.6a29.4,29.4,0,0,1-.3-8.9c.2-2.5,1.5-3.8,4.2-2.4a6.4,6.4,0,0,0,3.3.8c10.6.1,21.3.9,31.7-.1s21.9-4,32.9-6.3c5.4-1.2,10.8-2.9,16.2-4.4.7,1.3,1.8,2.6,1.8,3.9.5,7.3,0,14.3,3.4,21.5s4.6,16.2,6.7,24.4C102.1,179.2,105.7,184.8,105.6,191.5Z"/><path d="M165.6,114.6c-5.1-1.3-10.2-2.2-15.2-3.8s-12.7-4.7-19.1-7.1c5-3.3,9.9-6.8,15-10,14-8.8,26.4-19.6,38.3-31,17.6-16.9,32.1-36.2,44.7-57.1.6-.9.9-2.1,1.5-3.1A5.6,5.6,0,0,1,233.6.3c-.7,4.3-1.4,8.7-2.3,13s-2.2,9.7-2.9,14.6c-1.4,9.8-2.6,19.6-3.9,29.4a5.5,5.5,0,0,1-.8,1.5l-.7-.5c-.1.1-.1.2-.1.4l-1.8,6.6c-14.7,13-29.6,25.8-44.2,38.9-3.3,3-5.8,6.9-8.7,10.3Z"/><path d="M130,103.7c-6.2,3.5-12.1,8-18.7,10.1s-11.7,5.5-17.7,7.5c-1.5.5-3.3.3-4.9.4-3.1-13.9-1.7-28-1.8-42.6,7.4,4.7,14.1,9.2,21.2,13.2s13.2,6.6,19.8,9.9A15.9,15.9,0,0,1,130,103.7Z"/></g><g fill="#d7ef04"><path d="M220.4,402.8c-6.4-2.8-14.2-6.9-20.5-10-13.9-6.8-27.9-13.1-43-17.1-13-3.5-26-7.1-39.1-10.2a98.8,98.8,0,0,0-17.1-2.2c-15.3-.8-30.5-1.6-45.8-1.7a53.9,53.9,0,0,0-25.4,6.5c-.3.1-1.9-1.2-1.8-1.6,1.3-6.3,2.2-12.8,4.3-18.9,4.2-12.4,8.8-24.8,13.7-37S55.9,287.2,61,275.4a27.9,27.9,0,0,0,.9-3.4h.8c10.3,14.5,23.7,25.9,37.1,37.2s26.1,20.5,39.4,30.6,26.4,19.5,39.6,29.3c6.8,5.1,13.3,10.4,20.1,15.4Z"/><path d="M105.6,191.5c.1-6.7-3.5-12.3-5.2-18.4-2.1-8.2-3.2-16.9-6.7-24.4s-2.9-14.2-3.4-21.5c0-1.3-1.1-2.6-1.8-3.9a8.8,8.8,0,0,0,.2-1.6c1.6-.1,3.4.1,4.9-.4,6-2,11.4-5.5,17.7-7.5s12.5-6.6,18.7-10.1h1.3c6.4,2.4,12.6,5,19.1,7.1s10.1,2.5,15.2,3.8c-3.2,4-6.2,8.2-9.7,11.8-16.1,16.7-29.5,35.5-43.1,54.1-2.5,3.4-4.2,7.3-6.3,11Z"/><path d="M221.1,65.3l1.8-6.6c0-.2,0-.3.1-.4l.7.5c.2,2.9,1.5,2.7,3.4,1.3,5.9-4.3,11.6-8.8,17.6-12.9s10-6.4,15.1-9.5c2.4-1.4,3-.1,2.5,2-1.3,5-2.7,9.9-4.1,14.8-2.2,7.1-4.5,14.3-6.5,21.4s-3.6,14.6-5.7,21.8c-1.2,3.9.2,4.7,3.7,4.2l-5.3,2.8-18,5.8c-7.4,2.5-7.7,2.4-7.1-4.9,1-11.8,2.4-23.5,3.4-35.2C222.8,68.8,221.7,67,221.1,65.3Z"/></g><path fill="#b5df00" d="M305,458.2l-1.5,1.3-8.1-6.6-4.7-3.5h0c.6-3.8-3.2-3.6-4.8-5.3-8.3-8.8-16.3-17.8-24.6-26.5-6.2-6.3-13-12.1-19.1-18.5-4.4-4.7-8.4-9.8-12.4-14.8s-5.5-7.9-8.9-11.1c-8.1-7.5-14.4-16.4-21.1-24.9s-11.6-15.9-17.3-24c-7.1-10.1-14.3-20.2-21-30.5-8.9-13.8-17.3-27.8-25.9-41.7a102,102,0,0,1-5.7-10.2c-4.9-10-9.6-19.9-14.3-30-3.1-6.7-6-13.6-9.1-20.4,2.1-3.7,3.8-7.6,6.3-11,13.6-18.6,27-37.4,43.1-54.1,3.5-3.6,6.5-7.8,9.7-11.8h2.6c5.6.6,11.2,1.8,16.8,1.7a272.7,272.7,0,0,0,28.6-1.8c4-.5,4.1,1,3.9,3.9-.6,10.2-1.8,20.4-1.7,30.6.3,26.3.8,52.7,1.8,79,.5,12.1,2.1,24.1,3.8,36.1a196.1,196.1,0,0,0,5.4,26.4c.8,2.8-.4,7.2,4.1,8.5v1.8l.9,3.6.9,3.5.9,1.9a26.3,26.3,0,0,0,.6,3.9c4.5,12.5,8.7,25.2,13.5,37.6,9.5,24.6,21.9,47.9,34.7,70.9,4.4,8,8.9,15.9,13.7,23.6C298.8,450,302,454.1,305,458.2Z"/></svg>