<svg xmlns="http://www.w3.org/2000/svg" viewBox="0 0 310 119.4"><path fill="#ce3238" d="M0 0v119.4h50.7c25.7 0 40.4-6.3 45.2-26.4h1v26.4h213.2V0z"/><path fill="#fff" d="M130.9 36.2h-24.5v9.6h18.3c7.8 0 12.7 1.6 12.7 7.6V55h-15.5c-13.1 0-18.9 4.5-18.9 15.4-.518 7.003 4.702 13.116 11.7 13.7a13.1 13.1 0 0 0 2.8-.1h13.9c12.1 0 18.3-5.8 18.5-16.5V54.1c.2-12-6.4-18-19-17.9zm-1.6 38.3h-6.5c-4.5 0-6.8-.5-6.8-4.5s2.5-4.8 7.7-4.8h14v2.3h0c0 5-2.6 6.5-8.4 7zm125.5-39.2h0a25 25 0 0 0-13.2 2.8 25.2 25.2 0 0 0-13.2-2.8h0c-13.4 0-19.3 4.9-19.3 17.3V84H222V55.1c0-6.4.9-9.1 6.5-9.3s7 2.9 7 9.3V84H248V55.1c0-6.4 1.3-9.1 7-9.3s6.9 2.9 6.9 9.3V84h12.5V52.6c-.2-12.4-6.2-17.3-19.6-17.3zm-70.5 29.8c13 0 18.6-4.5 18.6-15.4a12.7 12.7 0 0 0-11.8-13.6 12.2 12.2 0 0 0-2.7.1h-13.8c-12 0-18.3 5.8-18.5 16.4V66c0 12 6.5 18 19.2 18h24.5v-9.7h-18.3c-7.8 0-12.6-1.7-12.6-7.6v-1.6zM168.8 55v-2.4h0c0-4.9 2.4-6.7 8.2-6.9h6.5c4.5 0 6.7.5 6.7 4.4s-2.4 4.9-7.6 4.9z"/><path fill="#1b1a1b" d="M78.3 35.4h-1.7C63.7 35.4 58 40.1 58 52.1V84h12.4V54.7c0-6.2.8-8.7 6.2-8.9h1.7c5.4 0 6.2 2.7 6.2 8.9V84h12.4V52.1c0-12-5.4-16.7-18.6-16.7zM35.5 84H48V36.2H35.5z"/><path fill="#fff" d="M106.5 93.7h.9v6.4h-.9zm2.7 0h.8l2.9 4.1a2.2 2.2 0 0 0 .5 1h0v-5.1h1.2v6.4h-1.2l-2.8-4.2c0-.3-.6-.9-.6-.9h0v5.1h-.8zm6.9 5a2.4 2.4 0 0 0 1.6.7.9.9 0 0 0 1.1-.9h0c0-1.4-3.1-1.1-3.1-3.1a2 2 0 0 1 2-1.8h.1a2.3 2.3 0 0 1 1.8.6l-.4.7a2.4 2.4 0 0 0-1.4-.5 1.1 1.1 0 0 0-1.2.9c0 1.4 3.1 1 3.1 3.1a1.8 1.8 0 0 1-1.9 1.8h-.1a2.7 2.7 0 0 1-2.1-.9zm6.4-4.3h-2.1v-.7h5.4v.7h-2.3v5.8h-.9zm3.9-.7h1v6.4h-1zm4.1.7h-2.2v-.7h5.3v.7h-2.2v5.8h-.9zm4-.7h.8v4.1a1.6 1.6 0 0 0 1.4 1.6h.3a1.5 1.5 0 0 0 1.6-1.3v-4.4h1v4.1a2.6 2.6 0 0 1-2.6 2.6 2.6 2.6 0 0 1-2.5-2.6zm8.1.7h-2.2v-.7h5.3v.7h-2.2v5.8h-.9zm6.7-.8a3.3 3.3 0 0 1 3.4 3.2 3.5 3.5 0 0 1-3.3 3.5A3.4 3.4 0 0 1 146 97v-.2a3.2 3.2 0 0 1 3.3-3.2zm0 5.7a2.3 2.3 0 0 0 2.3-2.5h0a2.4 2.4 0 0 0-2.2-2.5h-.1a2.4 2.4 0 0 0-2.4 2.5h0a2.5 2.5 0 0 0 2.4 2.6h0zm7.1-5.6h.8l2.9 4.1a2.2 2.2 0 0 0 .5 1h0v-5.1h.9v6.4h-.7l-2.9-4.2c0-.3-.5-.9-.5-.9h0v5.1h-.9zm10.2 4.5h-2.4l-.7 1.9h-.9l2.3-6.4h.9l2.4 6.4h-1zm-1.2-3.7v1l-.8 2h2l-.7-2v-1zm6.5-.9a3 3 0 0 1 2.3.8l-.5.7a2.6 2.6 0 0 0-1.8-.7 2.2 2.2 0 0 0-2.4 2.2v.2a2.4 2.4 0 0 0 2.2 2.6h.2a2.8 2.8 0 0 0 2-.9l.4.7a3.5 3.5 0 0 1-2.4 1 3.3 3.3 0 0 1 0-6.6zm3.7.1h.9v6.4h-.9zm5.5-.1a3.2 3.2 0 0 1 3.4 3.2 3.4 3.4 0 1 1-6.7.2v-.2a3.2 3.2 0 0 1 3.3-3.2zm0 5.7a2.5 2.5 0 0 0 2.4-2.5h0a2.5 2.5 0 0 0-2.3-2.5h-.1a2.5 2.5 0 0 0-2.4 2.5h0a2.5 2.5 0 0 0 2.4 2.6h0zm4.6-5.6h.9l2.9 4.1.6 1h0v-5.1h.9v6.4h-.9l-2.9-4.2-.6-.9h0v5.1h-.9zm10.1 4.5h-2.4l-.6 1.9h-1l2.4-6.4h.9l2.3 6.4h-.9zm-1.2-3.7v1l-.7 2h1.6l-.7-2v-1zm3.8-.8h.9v5.7h2.9v.8h-3.8zm7.2 0h2.1a3.3 3.3 0 0 1 3.7 2.7 3.3 3.3 0 0 1-2.8 3.7h-3zm2.1 5.7a2.5 2.5 0 0 0 2.1-2.8 2.7 2.7 0 0 0-2.1-2.1h-1.2v4.9zm4.7-5.7h3.7v.7h-2.9v2h2.3v.7h-2.3v2.1h3v.7h-3.8zm-105.9 9.8h.9v5.8h2.9v.8h-3.8zm8.1 4.6h-2.4l-.7 1.9h-.9l2.3-6.5h1l2.3 6.5h-1zm-1.2-3.7v.9l-.8 2.1h2l-.7-2.1v-.9zm3.8 4.2a2 2 0 0 0 1.6.7.9.9 0 0 0 1.1-.8v-.2c0-1.3-3.1-1.1-3.1-3a1.9 1.9 0 0 1 2-1.8h.1a3 3 0 0 1 1.8.6l-.4.8a2.4 2.4 0 0 0-1.4-.5c-.7 0-1.2.4-1.2.9s3.1 1 3.1 3a1.7 1.7 0 0 1-1.9 1.8h-.1a2.8 2.8 0 0 1-2.1-.8zm10.5-.5h-2.5l-.6 1.9h-.9l2.3-6.5h1l2.3 6.5h-.9zm-1.3-3.7v.9l-.6 2.1h1.9l-.7-2.1v-.9zm3.8-.9h2a2.4 2.4 0 0 1 1.2 0 1.9 1.9 0 0 1-.1 3.5h0v.3l1.3 2.5h-.9l-1.4-2.6h-1.4v2.6h-.7zm2.3 3.1a1.2 1.2 0 0 0 1.1-1v-.2a1.1 1.1 0 0 0-.6-1h-1.9v2.3zm5.2-2.3h-2.2v-.8h5.3v.8h-2.2v5.8h-.9zm3.8-.8h3.7v.8h-2.8v2h2.3v.8h-2.3v2.1h3v.8h-3.9zm5.2 5.1a2.3 2.3 0 0 0 1.7.7 1 1 0 0 0 1.1-.8v-.2c0-1.3-3.1-1.1-3.1-3a1.8 1.8 0 0 1 2-1.8h.1a3 3 0 0 1 1.8.6l-.4.8a2.4 2.4 0 0 0-1.4-.5c-.7 0-1.2.4-1.2.9s3.1 1 3.1 3a1.8 1.8 0 0 1-1.9 1.8h-.1a2.6 2.6 0 0 1-2.1-.8zm7.4-5.1h3.7v.8H155v2h2.4v.8H155v2.1h3v.8h-3.9zm5.2 5.1a2.3 2.3 0 0 0 1.7.7 1 1 0 0 0 1.1-.8v-.2c0-1.3-3.1-1.1-3.1-3a1.8 1.8 0 0 1 2-1.8h.1a2.5 2.5 0 0 1 1.7.6l-.4.8a2.1 2.1 0 0 0-1.3-.5c-.7 0-1.2.4-1.2.9s3.1 1 3.1 3a1.8 1.8 0 0 1-2 1.8h-.1a3.2 3.2 0 0 1-2.1-.8zm7.8-5.2a3.5 3.5 0 0 1 2.4.8l-.5.7a2.4 2.4 0 0 0-1.8-.7 2.3 2.3 0 0 0-2.4 2.2v.3a2.4 2.4 0 0 0 2.2 2.5h.2a3.2 3.2 0 0 0 2-.8l.5.6a3.5 3.5 0 0 1-2.5 1 3.3 3.3 0 0 1-3.8-2.9 3.4 3.4 0 0 1 2.9-3.7h.8zm3.8.1h3.7v.8h-2.8v2h2.3v.8h-2.3v2.1h3v.8h-3.9zm2.2-1.6h1l-.9 1.1h-.8zm3 1.6h.9l2.9 4.1.5 1h0v-5.1h.9v6.5h-.9l-2.9-4.3c0-.3-.5-.9-.5-.9h0v5.2h-.9zm7 0h.8v6.5h-.8zm5.5-.1a3 3 0 0 1 2.3.8l-.4.7a3 3 0 0 0-1.9-.7 2.3 2.3 0 0 0-2.4 2.2v.3a2.4 2.4 0 0 0 2.3 2.5h.1a3.2 3.2 0 0 0 2-.8l.4.6a3.1 3.1 0 0 1-2.4 1 3.2 3.2 0 0 1-2.9-3.7 3.4 3.4 0 0 1 2.9-2.9zm6.9 4.7h-2.4l-.7 1.9h-.9l2.3-6.5h.9l2.4 6.5h-1zm-1.2-3.7v.9l-.8 2.1h2l-.7-2.1v-.9zm3.7 4.2a2.3 2.3 0 0 0 1.7.7 1 1 0 0 0 1.1-.8v-.2c0-1.3-3.1-1.1-3.1-3a1.8 1.8 0 0 1 2-1.8h.1a3 3 0 0 1 1.8.6l-.4.8a2.4 2.4 0 0 0-1.4-.5c-.7 0-1.2.4-1.2.9s3.1 1 3.1 3a1.7 1.7 0 0 1-1.9 1.8h-.2a3.4 3.4 0 0 1-2.1-.8zm9-1.4l-2.2-3.7h1.1l1.1 2.1.4.8h0a1.2 1.2 0 0 1 .4-.8l1.2-2.1h1l-2.2 3.7v2.8h-.8zm6.1-3.7h2.1a3.2 3.2 0 0 1 3.3 3.2 3.3 3.3 0 0 1-3.2 3.3h-2.2zm2 5.8a2.5 2.5 0 0 0 2.5-2.5 2.5 2.5 0 0 0-2.5-2.4H214v4.9zm4.8-5.8h3.7v.8h-2.9v2h2.3v.8h-2.3v2.1h3v.8h-3.8zm7.5 0h.9v5.8h2.9v.8h-3.8zm8.1 4.6h-2.4l-.6 1.9h-1l2.3-6.5h1l2.3 6.5h-.9zm-1.2-3.7v.9l-.7 2.1h1.9l-.7-2.1v-.9zm6.5-.9h.9l1.5 3.5v.8h0l.4-.8 1.5-3.5h.9l.5 6.5h-.9l-.3-4.1v-1h0l-.4 1-1.3 2.8h-.8l-1.3-2.8-.3-1h0v1l-.4 4.1h-.9zm7.4 0h1v4.1a1.5 1.5 0 0 0 1.3 1.6h.3a1.5 1.5 0 0 0 1.6-1.3.4.4 0 0 0 .1-.3v-4.1h.8v4.1a2.6 2.6 0 1 1-5.1 0zm2.9-1.6h.9l-.9 1.1h-.7zm3.9 6.7a2.2 2.2 0 0 0 1.7.7 1 1 0 0 0 1.1-.8v-.2c0-1.3-3.2-1.1-3.2-3a1.9 1.9 0 0 1 2.1-1.8h0a3.1 3.1 0 0 1 1.9.6l-.4.8a2.5 2.5 0 0 0-1.5-.5c-.7 0-1.1.4-1.1.9s3.1 1 3.1 3a1.8 1.8 0 0 1-1.9 1.8h-.2a3.2 3.2 0 0 1-2.1-.8zm5-5.1h.9v6.5h-.9zm5.5-.1a3.6 3.6 0 0 1 2.3.8l-.4.7a2.8 2.8 0 0 0-1.9-.7 2.3 2.3 0 0 0-2.4 2.2v.3a2.4 2.4 0 0 0 2.2 2.5h.2a2.8 2.8 0 0 0 2-.8l.5.6a3.5 3.5 0 0 1-2.5 1 3.4 3.4 0 0 1-2.9-3.7 3.4 3.4 0 0 1 2.9-2.9zm6.9 4.7H270l-.6 1.9h-.9l2.3-6.5h.9l2.3 6.5h-.9zm-1.2-3.7v.9l-.7 2.1h2l-.8-2.1v-.9z"/></svg>