<svg xmlns="http://www.w3.org/2000/svg" viewBox="0 0 491 512">
	<path fill="#f8c040" fill-rule="evenodd" d="M0.2,256a245.3,256 0 1,0 490.6,0a245.3,256 0 1,0 -490.6,0 M357.2 91.1c15.3-.6 30.8 1.7 45.5 5.2 4.8 2.3 6.1 9.5 2.4 13.3-7.7 4.4-17.7 1.4-26.1.8s-7.9 2-10.7 7.7l-10.2 25.5c-.7 1.9-.1 2.5 1.7 2.9 17.6 4.7 29.4 23.3 25.6 41.4-4.6 28.8-24.2 63.5-57.7 58.7-10.4-1-17.5-6.3-23.1-14.8-16.7-24.9-15.6-66.2 12.8-81.5 39.3-15.7 28.6 12.5 44.1-35 1.3-3.6.4-9.4-2.8-11.3-4.8-1.2-9.1-3.9-14.2-4.5-2.6-.5-6.4-1.7-5.6-5.2 2.9-6.3 12.8-2.1 18.3-3.2zm19.2 89.6c0-4.1.3-8.2-2.6-11.7s-15.9-19.7-19-14.2c-2.5 12.7-15.6 23.5-9.2 36.9 1.5 14.5-16.4 20-21.7 6.2-4.1-19 10.1-14.4 13.3-22.2s5.6-15.3 8.8-22.8c.7-1.5-.1-1.7-1.3-1.7-12.9.1-26.3 2.8-33.4 14.9-13.7 20.5-12.4 43.6 2.5 63 29.2 29.8 64.6-18.6 62.6-48.4zm-250.2-44.3c-3.9.1-37.1 2.7-26.3-6.1a456.5 456.5 0 0 1 65-4.9c6.7 2.8-.4 8.4-3 11.6-20 24.4-40.6 49-53.8 78.1-1.6 5.5-10 11.2-10.1 15.8.7 1.7 2.6 1.6 4.1 1.7 17.9 1.2 35.9 1.1 53.8 2.9 3.7.3 4.9 1.7 4.6 4.9-.9 7.1-18.4 2.6-23.9 3.3-74-2.8-57.1 5.6-26.8-54.3 9.5-20.1 28.7-34.2 38.7-53.3-6.8-1.5-15.1 0-22.3-.5zm133.1 178.9c.5 15.2.8 30.5.6 45.8.5 3.5-2.3 7.4-5.8 4.6s-3.2-5-3.2-8.1c0-.8.4-1.9-.4-2.2s-1.4.6-2 1.1c-3.9 5-8.7 6.4-14.7 4.9-13.6-2.4-16.2-17.9-18.1-29.3-2.4-20.7-9.1-41.5-4.6-62.3.1-4.8 7.2-7.2 7.2-1.1 0 21.1 3.8 41.9 6.5 62.9 1.7 7.1 2.6 15.5 9.1 20.1 3.4 2.5 6.1 1.8 7.7-2.2 6.1-26.8 5.5-55.1 8.6-82.4.1-2.2.7-3.6 3.4-3.5s4.6.8 4.8 3.8c1.1 15.9.9 31.9.9 47.9zM195 198c.6-15-2.5-64.8 14.7-69 6.6-1 15.7 1.4 17.6 8.5s4.7 18.9-6.1 21.2c-7.9 2.1-6.8 4.3-4.9 10 6.6 21 14.9 41.5 21.4 62.6 1.9 3.8-3.7 6.1-6.1 3.1-12.6-19.8-15.2-44.2-24.2-65.7-8.3-17.6-3.4 49.3-4.3 52.9s-.4 10.4-5.2 10.4-1.9-28.2-2.9-34zm11.1-52.1c-1.1 8.8 5.8 5.9 11.3 4.5s1.5-6.6 1.1-9.8-2.9-4.7-6-4.5c-5.8-.1-5.9 5.6-6.4 9.8zm-90 134.1c-5.6-1.1-27 3.3-27.3-3.8.1-1.6 1.5-2 2.8-2 19.2-.8 38.3-1.5 57.4-3.3 3.9-.2 6.9 3.8 3.2 6.6-14.3 18.4-29.2 36.4-40.1 57.1-19.1 37-21.9 17.5 35.8 21.9 2.3.1 4.1.7 4.1 3.6.4 4.7-6.2 4-9.6 3.9-11.9-1.1-23.6.4-35.3 1.9s-25.6 2.8-15.6-14.1c13.9-20.1 22.4-43.5 40.1-61 16-18 3.8-8.1-15.5-10.8zm158.8 53.6c-1.1 7.5 4.5 32.6-4.8 34.2-1.5-.2-1.6-1.6-1.8-2.7-1.7-29.3-2.9-59.3 3.7-88.1 2.3-18.9 33.9-14.9 26.2 3.8-7.6 11.9-14.5 4.4-13.6 11.4 6.6 23.6 16.2 46.4 23.8 69.7 1.7 4.4 3.8 12.3-4 8.9-14.7-14.9-31.3-120.5-29.5-37.2zm8.1-50.7c3.3 1.1 9.9-7.2 5.3-10.1-7-4.7-15.8 9-5.3 10.1zm33 46.6c-.7-19.5.2-39.2 5.4-58.1 2.4-12 18.6-12 25.4-3.6 4.7 6-4.4 12.4-9.7 13.9s-6 2.7-4.3 7.7l23.5 69.9c2 4.1-4 6.3-6.3 2.8-11.3-18.1-14.4-39.8-21.7-59.6-9.7-21.3-1 58.5-6.5 61-8.7 10.6-5-30.2-5.8-34zm17.7-60.2c-5.8-.7-9 7.9-2.6 6.4s12.8-4.5 2.6-6.4zm-79.5-86.8c-2 19.6.8 39.8 2.2 59.6 1.1 4.6-6.5 4.9-7.3.8-2.7-23.3-2.8-46.9-4.8-70.3-.5-12.3-2.8-24.4-2.6-36.7.1-3.4 1.3-5.3 3.5-5.2 5.4-1.6 5.3 27.9 7 32.8-.6 7.7 14.5-11.7 17.6-12.4 1.2-.8 2.7-1.7 3.9-.3 3.2 4.9-5.3 8.3-7.7 11.9-7.4 7.3-7.5 8.2-4 17.9s8.9 17 12.9 25.8c3.3 7.1 6.6 14.4 12.3 20.1 3.1 4 15.9 13.2 15 17.5s-6.7 1-8.9-1.2a223.4 223.4 0 0 1-18.5-19.2c-6.3-13.7-11.8-29.1-20.6-41.1zm-97.8 179.8c4.5-19.6 13.3-37.9 19.2-57.1 1.7-4.5-6.5-1.4-6.2-5.8 0-2.2 1.9-3 3.6-3.2 6-.4 8.1-3.7 8.7-9.5.7-4.3 4.1-23.5 7.8-24.2 11.3 1.6-2 31.3 12.1 31.5 7.5 1.3 1.4 6.5-3.2 6.4-7.5-.1.9 22.3 1.5 27.1s10.4 39.9 3.7 39.1c-2.6.3-3.8-.8-4.3-3.8-3.5-20.5-5.1-43.1-12.9-62-4.8 3.4-7.5 17.9-10.1 23.9-3.5 10.3-8.3 20.1-11 30.7-.3 3.6-7.8 16.1-8.9 6.9zm218.5 7.2c-14.8 2.5-8.2-33.3-10.5-42.6-.1-8.1-5.8-4.4-7.9-8.8.5-5.8 8.5-2.3 8.1-14.9l.9-24.5c-.9-15.3 11.4-15.3 23.4-14 9.4 3-8.1 7-11.1 6.4s-4.2.2-4.4 4.3l-.9 22.5c.6 3.8-3.4 14.3 3.5 12.6 3.1-.8 8 0 8 4-1 5.8-11.6 1.2-11.4 7.9a351.9 351.9 0 0 0 .7 35.6c-.3 9.6 16.3-.5 22 .6 12.5 3.9-18.2 11.2-20.4 10.9zM179 185.2c-.9-.7 2 59.7-5.7 44.5-2.8-32.4-2-65 1.3-97.3 9-12.3 3.3 44.6 4.4 52.8zm79.3 221.9c1.3-6.3 2.4-12.3 4-18.3.1-.7.1-1.4 1.1-1.3s.3 2.9.2 4.1c-1.8 1.8-3.3 28.5-6.3 20.3-1.5-5.8-1.8-11.9-5.2-17.2.2 6.4.1 12.7.1 19a.8.8 0 0 1-.8.8c-1.2 0-.9-1.4-1-2.2l-.4-22.6c-.2-2.2 2.5-2.8 2.8-.3 1.7 5.9 4.8 11.4 5.5 17.7zM116.7 398c.4-1.6-1.8-9.9 2.2-9.1 5.7.7 7.8 6.6 3.2 11.2-1.2 1.2-2.3 2.3.5 3.1s3.4 11.2 1.6 11.4-1-.6-1-1.3c-.5-2.8.7-6.4-1.3-8.7-6.3-4.2-.1 8.7-3.2 9.6s-1.3-13.1-2-16.2zm1.8 3c8.7-5.2 1.3-13.3 0-9.1zm13.6 2.3c-.3 3.1 2 11-.5 11.9s-.9-1.3-.9-2.1c.5-4-2.8-23 0-23.8s.7 1.3.8 2c.3 2.2-.1 4.5.5 6.9 3.8-1.9 2.4-8.7 5.1-9 1.7 2.3-1.4 8.1-3.3 10.1s-1.8 2 .3 3.3 4.7 5.8 4.4 9.9c0 .8.3 2.1-1 2s1.2-7.5-5.4-11.2zm244.2-.2c-.9 3.8 1.4 11.2-4.2 11.7-2.3.2-3-1.4-3.2-3.2-.1-5.4-4.8-22.1 2.8-23s3.6 10 4.6 14.5zm-1.9-.7c-.8-2.9 1.2-11.5-2.8-12.2-4.3 1.3-1.1 16.6-.9 20.7.1.9 0 2.3 1.4 2.3 3.5-1 1.5-7.5 2.3-10.8zM177.2 410c3.7-33.6 8-23.8 9.2 2.4 0 .7.5 1.6-.6 1.7-3 .5-.1-10.2-3-9.4-4.7-.9-3.2 3.9-3.9 7.1 0 .8.5 2.1-1 2s-.6-2.7-.7-3.8zm4.8-17.2c.1 2.3-3.2 10.9-.9 10.5 5.2 1.1 1.8-7.3.9-10.5zm12.9 9.2c3.8 2 7 9.5 3.6 12.7-2.5-2.1.4-7.4-2.1-9.9s-3.8-1.2-2.9 1.2 1.5 7.1-.4 8.3-.9-.8-1-1.5c.4-3-3.9-26.9 1.3-23.8 7.9 2.2 6.4 8.3 1.5 13zm-1.6-1.3c8.5-5.3.1-13.4-.5-8.4a50.3 50.3 0 0 0 .5 8.4zm196.3 5.9c-.3 1.8 1.6 6.6-.1 7.5s-1.1-.5-1.2-1.1.5-8.8-1.8-8.2c-4.8-1-3.2 4.3-3.8 7.3s-2.5 2.2-1.9 0c.3-7.5 2.3-14.7 3.5-22 .2-.7.1-1.8 1.2-1.8 4.1 2.4 3.7 13.7 4.1 18.3zm-3.8-13.9c0 2.5-3.6 11.3-.6 10.6 4.7.5 1.3-7.3.6-10.6zm-53.7 17.9c3.6-32.7 7.7-26.6 9.2 1.6.2.7.6 1.8-.6 1.9-3 0 .1-10.2-3.1-9.4-4.6-.8-3 4.3-3.7 7.3-.1.7.3 1.8-.9 1.9s-.7-2.2-.9-3.3zm4.8-17.1l-1.5 7.8c-.1.6-.8 1.6.1 1.9 5.9 1.5 2.5-6.7 1.4-9.7zM151 399.3c-.2 4.4 2.7 11.6-2.5 14-2.4.6-3.8-.2-4.4-2.6-1-6.7-.5-13.4-1.1-20.1 0-.9 0-2.1 1.3-1.9s-.4 24.5 2.9 23.2c5.6.5-.4-21.9 2.9-22.7 2 .7.4 7.9.9 10.1zm168.2 1.9c0-3.5-.2-7.1.1-10.6.1-1.2-1.8-2.2-.4-3 4.6-.1 10.2 2.1 8.4 7.8-1.4 8.6-7.7 7.1-6.2 17 0 .7-.1 1.4-.9 1.5s-.4-10.2-1-12.7zm1.9 1.7c3.5-3 7.3-10.9 1.9-13.1-1.2-.4-1.9-.2-1.9 1.2zm-220.7-14.4c4.8-.1 5.1.3 3.6 4.4s-10.2 21.9-4.2 20.8c1.2-.1 3.7-1.3 3.8.2s-2.5 1-3.9 1.2c-4.7.6-4.5.6-3.7-3.7 1.2-6.7 3.7-12.9 6.3-19.1.8-2 .3-2.7-1.8-2.4-4.1.5-3.9-1.9-.1-1.4zm251.7 0c4.1-.1 4.5.4 3 4.3-2.4 6.3-5.1 12.4-6.3 19.1-1.4 4 5.5 0 5.8 1.9s-2.6 1.1-4.1 1.3c-4.5.7-4.3.6-3.5-3.7 1.3-6.6 3.7-12.7 6.2-18.8.9-2.1.8-3.1-1.8-2.7-.8-.2-2.7.6-2.7-.7s2.4-.4 3.4-.7zm-106.7 1.3a1.3 1.3 0 0 1-1.6.9c-6.1-1.3-2.7 6.2-4.1 9.5s3.7.8 4.1 2.9c-1.4 3.1-5.7-2.8-4.9 6.2 0 2.6.6 4.4 3.8 3.5s2.3 1.7.1 1.4c-8.9 2.4-5.2-9.1-5-14.1s-2.6-13.7 7.6-10.3zm-13.3 23.6c-9.9 4-8.2-3.3-7.7-10.2 1.8-3.3-1.3-14.9 3.6-14 1.5.2 4.1-.7 4.1.6s-2.3.6-3.6.8c-3 1-.7 8-1.9 10.8s4.1-.1 4.2 1.8-5.5-1.9-4.9 4.6c.3 8.2 1.2 3.5 6.2 5.6zm57.6-6.6c.5-4.6 1.5-10.2 1.3-15.8 0-2.9 4.1-1.4 6-1.8s1.3 1.3 0 1.5c-6.6-1.2-3.4 4-4.4 8.2-1.4 6.6 2.7 2.2 4 4.2-2.6 3-5.7-2.7-5 6.5.1 6.3 4.4 1.4 5.4 3.8s-1 .7-1.7.8c-5.2.6-5.6.2-5.6-7.4zm24.1 1.4c.4 4.2-4.9 8.5-8.3 6 .2-1.9 5.2.4 6.2-4.3 2.5-7.8-11.9-8.5-8.5-16.3.8-2.9 7-5.4 8.1-2.4-.9 1.8-3.8-2-6.2 2.7-2.8 6.6 9.6 7.4 8.7 14.3zm-106.5-16.6c-.8-.4-2.7 1.1-2.9-.6s1.9-.7 3-.8c2.7.3 10.5-1.6 11.9.1s-.9.8-1.5.8c-4.9.5-5.1.5-4.7 5.4-.2 2.8.7 16.8-1.2 17.4s.1-15.7-.8-18.9-.1-3.5-3.8-3.4zm153.9 16.8c0-3.1-2.1-17.6 0-18.7s1.2 17.4 1.9 20.3c-.2 1.1.7 3.6-.9 3.7s-.6-3.6-1-5.3zM112 409.5c-.3 1.1.8 3.8-.8 4.3s-1-16.5-1.8-20c.2-1.2-.9-3.8.7-4.1s1 16.8 1.9 19.8z"/></svg>