<svg xmlns="http://www.w3.org/2000/svg" viewBox="0 0 788 788"><path fill="var(--text,#e53d32)" d="M379.5 21.2c-.3.7-2.7 9.8-5.4 20.1-2.7 10.4-5.1 19-5.3 19.2-.2.2-4.1-8.2-8.7-18.8l-8.2-19.2-5.3.3c-5.2.4-5.2.4-4.9 3.5.2 1.8 1.4 18.7 2.8 37.7 1.5 18.9 2.7 34.5 2.8 34.5.1.1 2.6-.1 5.5-.3l5.4-.4-.6-4.7c-1-8.6-2.8-36.9-2.5-38 .3-.7 3.2 5.5 6.5 13.6 5.6 13.8 6.2 14.8 8.5 14.4 1.3-.1 2.6-.7 2.9-1.1.3-.5 2.3-8 4.5-16.7l3.9-15.8 1.8 22.9c1 12.6 1.9 23.1 2.1 23.2.2.2 2.7.1 5.5-.3l5.2-.6-.5-4.6c-.3-2.5-1.4-17-2.5-32.1-1.1-15.1-2.2-29.9-2.6-32.8l-.5-5.2h-5c-3.1 0-5.1.5-5.4 1.2zM434.9 23.1c-.1.2-2.2 17-4.8 37.4l-4.7 37 5 .8c2.7.4 5.1.5 5.4.2.7-.7 9.6-73.5 9-74-.6-.6-9.8-1.9-9.9-1.4zM490.5 37.9c-4.7 2.8-8.3 7.6-10 13.3-3.1 10.5-1.6 14.9 8.3 23.7 3.9 3.5 7.4 7.1 7.7 8.1.8 2.7-3.3 14.8-5.5 16-3.2 1.7-7 1.1-9.7-1.6-2.2-2.2-2.4-3.1-1.9-6.7l.7-4.3-5.1-1.5-5-1.6-1 3.6c-1.3 4.7-1.3 6.5.2 11.3 2.3 7.7 12.3 13.7 21.1 12.5 8-1.1 14.2-9.3 16.7-22.4 1.1-5.7 1.1-6.5-.9-10.5-1.3-2.6-4.6-6.3-8.7-9.6-3.6-2.9-6.8-6-7.1-6.9-1-2.7 1.6-10.7 4.3-13.1 5.2-4.6 11.8-.1 11.2 7.7l-.3 4.5 4.5 1.3c2.5.7 4.8.9 5.3.4 1.3-1.3 2-8.5 1.3-12.6-.8-4.3-5.9-10.3-10.3-12.1-4.7-2-12.2-1.7-15.8.5zM274.7 39.1c-5.3 2.8-9.1 8.9-9 14.7 0 4.7 10.5 39.3 14.6 48 5.6 12.1 24.7 12.6 31.4.7 3.6-6.3 3-10.5-4.8-34.6-7.4-23.1-9.4-27-15.6-29.5-4.6-2-12.1-1.7-16.6.7zm14 10.3c2 1.8 14.4 41.4 14.1 44.8-.6 6.5-8.8 8.8-12.2 3.5-.8-1.2-4.5-11.5-8.2-22.9-6.5-20.2-6.6-20.8-5-23.3 2.8-4.3 8-5.3 11.3-2.1zM541 91.6c-9.4 18.5-17 33.7-16.8 33.9 1.2 1 9.1 4.6 9.4 4.2.3-.2 8-15.4 17.3-33.6l16.8-33.2-4.8-2.4-4.8-2.5L541 91.6zM205.2 70.6c-5.1 3-8.2 8.6-8.2 14.7 0 3.7 1.6 7.2 11.1 23.8 12.7 22.1 14.9 25.3 19.3 28 9.1 5.6 23.8-1.9 25.3-12.8.6-4.2-1-10.8-3.1-13.6-1.4-1.8-1.6-1.8-4.8-.1-5.7 2.9-5.9 3.2-4.1 6.9 2 4.2 1.1 8.2-2.3 9.7-5.2 2.4-6.9.6-19-20.2-6.5-11.1-11.4-20.6-11.4-22.1 0-5.7 7.1-7.8 11.5-3.4 1.4 1.3 2.5 2.9 2.5 3.5 0 .6 2.2-.1 5-1.6 4.4-2.4 4.8-2.9 3.8-4.8-1.6-3.1-6-7.6-9-9.2-4.4-2.3-11.7-1.8-16.6 1.2zM600.1 93.1c-3.5 1.8-6.9 5.7-18.6 21.3-15.7 20.9-17.6 24.9-15.6 31.6 3.9 12.9 19.7 18.2 29 9.7 3.4-3.2 27.3-34.6 29.3-38.7 7.6-14.8-9.2-31.4-24.1-23.9zm12.6 11.1c4.4 4.2 3.4 6.6-10.9 25.6-7.3 9.6-14.3 17.9-15.5 18.5-4.9 2.2-11.2-2.6-9.9-7.6.6-2.4 20.7-29.9 25.9-35.5 3.6-3.8 7.1-4.1 10.4-1zM638.3 161.5c-15.4 13.2-28.2 24.4-28.3 24.8-.1.5 1.2 2.6 2.9 4.8l3.2 3.9 11.2-9.7c25-21.7 24.3-21.2 22-17.3-2.2 3.6-19.2 34-21.1 37.5-.9 1.7-.5 2.7 2.2 5.9l3.2 3.9 28.8-24.6 28.7-24.7-3.8-3.9-3.8-4-16.7 14.5c-9.3 7.9-16.8 14.2-16.8 13.9 0-.3 5.2-9.6 11.5-20.6 6.3-11.1 11.5-20.3 11.5-20.6 0-.3-1.5-2.2-3.3-4.2l-3.3-3.6-28.1 24zM151.6 152.7c-.9 4.7-1.8 8.9-2.1 9.2-.3.3-3.6-2.5-7.3-6.1l-6.7-6.5-3.2 3.7c-1.8 2.1-3.3 3.9-3.3 4.2 0 .2 3.2 3.1 7.2 6.3 8 6.6 8.3 6-3.9 9.5l-7.1 2.1 1.5 4.5c.8 2.4 1.8 4.4 2.1 4.4.4 0 4.2-1.2 8.5-2.6 4.3-1.4 8.1-2.4 8.4-2.1.3.3-.4 4.3-1.5 8.9l-1.9 8.3 4.4 1.3c2.5.8 4.7 1.2 4.9.9.3-.2 1.2-4.2 2-8.8.9-4.6 1.8-8.6 2-8.8.3-.3 3.5 2.5 7.3 6.3l6.8 6.7 3.6-4.4 3.6-4.4-2.7-1.6c-1.5-.9-4.9-3.6-7.6-6l-4.9-4.3 8.4-2.4c4.6-1.3 8.7-2.6 9.1-3 .9-.7-2.1-9-3.3-9-.5 0-4.5 1.3-8.9 2.9-4.4 1.6-8 2.6-8 2.1 0-.9 2.8-13.4 3.6-16.1.3-1.3-.6-1.9-4-2.8-2.5-.6-4.7-1.1-4.9-1.1-.3 0-1.2 3.9-2.1 8.7zM682.5 220.5l-33.1 18 5.7 10.5c3.2 5.8 6.7 12.2 7.8 14.2l2.1 3.7 4.5-2.6c2.5-1.3 4.5-2.7 4.5-3 0-.2-2.2-4.4-4.9-9.3l-4.9-8.9 3.1-1.9c1.8-1.1 6.1-3.5 9.8-5.5l6.5-3.6 4.5 8.4 4.4 8.4 3.5-2.1c1.9-1.2 3.9-2.5 4.4-2.9.4-.4-1.1-4.2-3.4-8.4s-3.8-8-3.4-8.4c.5-.5 4.8-2.9 9.5-5.5 9.9-5.3 8.6-5.8 14.9 6l4.3 8.1 4.4-2.4c2.3-1.4 4.3-2.6 4.3-2.7 0-.4-15-27.9-15.3-28.1-.1 0-15.1 8-33.2 18zM308.7 228.1c-4.3 1-11.1 3.4-15.1 5.2-15.4 7.2-21.2 12.1-62.1 52.8l-39 38.9L335 467.5 477.5 610l20.7-20.7 20.8-20.8-60.5-60.5-60.5-60.5 11.9-11.9 11.8-11.8 79.4 41.6 79.4 41.6 22-22c12-12 21.7-22.1 21.5-22.4-.3-.2-39-19.4-86-42.6-47-23.2-85.8-42.5-86.2-42.9-.4-.4-.1-4 .8-8.1 2.5-11.8 1.5-32.9-2.1-44-5.8-18-17.7-36.1-35.5-53.9-23.4-23.4-44.9-37.1-66.8-42.7-12.1-3.1-27.8-3.2-39.5-.3zm28.6 58c8.9 3 18.2 9.6 31.3 22.2 14.4 13.8 22.7 24.1 27.3 33.7 3.1 6.4 3.6 8.5 3.6 14.6s-.5 8-3.8 14.8c-3.3 6.6-6.2 10.1-19.2 23.4l-15.4 15.7-44.1-44-44.1-44 13.8-13.6c23.9-23.4 34.5-28.2 50.6-22.8zM66.5 232.6c-.6.1-2.2.5-3.7.8-4.9 1.1-9 5.7-13.5 15.5-2.4 5.2-4 9.7-3.6 10.1 1.7 1.5 67.6 29.9 68.3 29.5.4-.3 2.4-4.3 4.4-8.9 6.5-15.2 4.6-23.2-7.1-29.3-16.3-8.6-41.4-18.5-44.8-17.7zm23.3 19.6c10.2 4.5 19.4 9 20.4 10 2.2 2.2 2.3 5.9.3 9.8-.9 1.7-1.7 3-1.9 3-.8 0-48.2-21.2-48.9-21.9-1-1 1.9-7 4.2-8.9 2.4-1.9 5.7-.9 25.9 8zM726 274.6c-9.9 3.6-13.2 8.4-14.5 20.9-.4 3.8-1.3 8-2.1 9.2-1.5 2.3-9.6 5.3-14.6 5.3-3.7 0-6-3.6-5.6-8.7.2-3.2.8-4.1 3.6-5.5 1.9-.9 3.6-1.8 3.8-2.1 1-.9-2.1-9.7-3.3-9.7-2.2 0-8.6 3.6-11 6.2-9.1 9.8-2.9 28.4 10.1 30.3 5.1.8 15-1.5 21-4.8 5.4-3 7.5-7 8.6-16.7.5-4.5 1.2-9 1.5-10 .7-2.2 7.4-5 12-5 8.7 0 8.5 12.5-.3 14.7-1.4.3-2.1 1.1-1.8 1.9.3.7 1 3.1 1.6 5.3l1 4 4.3-1.5c10.8-3.8 15.5-14.6 10.8-25-4-8.8-14.7-12.6-25.1-8.8zM31.6 300.2c-.3.7-1.8 7.7-3.4 15.6-2.2 10.2-2.7 14.5-1.9 14.7 2.8 1 72.2 15.4 72.5 15 .2-.2 1.7-6.6 3.3-14.2 1.6-7.6 3.2-14.5 3.4-15.4.4-1.1-.7-1.8-4.7-2.6-2.9-.6-5.4-1-5.5-.9-.1.1-1.2 4.7-2.3 10.1-1.2 5.5-2.3 10.1-2.5 10.3-.3.3-20.7-3.8-21.3-4.3-.3-.2.7-4.7 3.3-16.1.4-1.9-.2-2.3-4.5-3.1-5.6-1.1-5.1-1.7-7 8.3-1.7 8.9-1.8 9-8.2 7.6-2.9-.6-7.6-1.7-10.4-2.2l-5.1-1.1 2.2-10.4c2.5-11.6 2.9-10.6-4.3-12-2.2-.5-3.3-.3-3.6.7zM78.7 377.8 62 383.5l-2.5-2.8c-3.5-3.7-7-5.3-13.2-6.2-6.8-.9-15.5 1-19.3 4.2-5.1 4.2-6.2 7.5-6.7 20.4l-.6 11.9H96v-11H64V393.3l16-4.8 16-4.9v-5.8c0-3.2-.1-5.8-.2-5.7-.2 0-7.8 2.6-17.1 5.7zm-26.8 9.6c1.6 1.5 2.1 3.1 2.1 7.3v5.3H31v-5.3c0-7.9 2.6-9.8 12.7-9.4 4.3.2 6.8.8 8.2 2.1zM693.2 390.8l.3 5.5 7.3 1.7c4 1 7.4 1.9 7.5 2.1.1.2.1 3.6-.1 7.5l-.4 7.1-7.6 1.1c-4.1.7-7.8 1.4-8 1.7-.3.2-.7 2.8-1 5.6-.4 4.8-.3 5.2 1.4 4.7 1.1-.3 18.2-3.3 37.9-6.8 19.8-3.5 36.2-6.5 36.4-6.6.2-.2.6-2.3.8-4.6l.5-4.4-26.8-7.2c-14.8-3.9-31.8-8.5-37.7-10.1l-10.8-2.9.3 5.6zm51.3 18c-.6.7-25.8 4.3-26.2 3.8-.3-.3-.2-2.7.2-5.4l.6-4.8 12.9 3c7.1 1.7 12.7 3.2 12.5 3.4zM686.6 454.2c-2.1 6.5-2.7 9-2.4 9.2.1.1 7.2 2 15.6 4.2l15.3 3.8-.7 3.1c-.3 1.6-.7 3.1-.8 3.2 0 .1-7.6.5-16.9.9l-16.7.7-1.5 5c-.8 2.8-1.5 5.3-1.5 5.7 0 .3 8-.1 17.7-.8 19.5-1.4 17.9-1.8 21.4 4.6 2.7 4.8 11.7 8.5 21.1 8.6 12 .1 15.6-3.5 19.9-19.8l2.7-10.6-3.6-.9c-2.1-.6-17.6-4.6-34.7-9.1-17-4.4-31.8-8.3-32.8-8.6-.9-.3-1.9 0-2.1.8zm50.4 23c4.7 1.1 8.9 2.4 9.4 2.8 1 1-1.1 7.9-3.3 10.4-3.3 3.8-18.1.3-20-4.8-.6-1.3-.5-4.1.2-7 .9-4.1 1.3-4.7 3.1-4.2 1.2.4 5.9 1.6 10.6 2.8zM74 493.3c-17.3 10.9-32.1 20.1-32.8 20.6-1.1.6-1 1.6.4 5 1.6 4.1 1.8 4.2 5.3 3.7 4.1-.7 70.7-8.6 72-8.6.5 0 .2-2.3-.7-5.1l-1.6-5.1-6.1.7c-11.5 1.3-10.5 1.8-13.1-5.7l-2.3-6.8 7-4c3.8-2.3 6.9-4.6 6.8-5.3 0-.7-.8-3-1.7-5.2l-1.7-4L74 493.3zm14.2 9.5 1.5 4.8-12.4 1.8c-6.8 1-12.6 1.6-12.9 1.3-.5-.5 19.6-12.6 21.2-12.6.5-.1 1.7 2.1 2.6 4.7zM662.3 522.9l-2 4.9 19.1 9.3c10.5 5.1 23.7 11.4 29.3 14.1l10.3 4.9-2.9 5.7-2.9 5.7 4.8 2.1 4.8 2.2 7.6-16.1c4.2-8.8 7.5-16.1 7.4-16.2-.2-.2-2.2-1.2-4.6-2.4l-4.3-2.2-2.5 5.6c-1.4 3-2.8 5.5-3.1 5.5-.2 0-13.5-6.3-29.5-14s-29.1-14-29.2-14c-.1 0-1.1 2.2-2.3 4.9zM124.9 535.8l-4.6 2.6 5.3 8.8c3 4.9 5.4 9.2 5.4 9.6 0 .4-12.4 8.1-27.5 17l-27.4 16.4 2.7 4.7 2.6 4.8 31.6-18.9c17.3-10.5 31.9-19.3 32.3-19.7.6-.6-12.8-24.6-15.2-27.2-.3-.4-2.7.5-5.2 1.9zM639 564.3c-1.4 2.3-2.5 4.5-2.5 4.9 0 .4 13.8 10.3 30.6 22l30.6 21.4 3.1-4.4 3.1-4.5-21.7-15.1c-11.9-8.4-26-18.2-31.2-21.8l-9.6-6.6-2.4 4.1zM612 599.6c-11.3 4.9-15.4 16.7-9.2 26.5 3.2 5 9.6 11 14.1 13.3 4.5 2.4 8.4 2 17.8-2 9.9-4 12.3-3.7 16.8 2.1 3.4 4.5 3.3 8.7-.2 11.5-3.1 2.4-6.1 2.1-10.1-1.1l-2.6-2-3.8 3.8-3.9 3.8 3.7 3.2c6.1 5.4 12.3 6.5 18.9 3.4 7.3-3.4 11.5-9.5 11.5-16.8 0-11-14.2-24-23.7-21.7-1.5.4-6.1 2-10.1 3.6-8.1 3.2-9.7 3.1-14.8-1.4-6.8-6-7.6-11.4-2.2-15.2 3.2-2.3 6.2-2 9.6.9l2.9 2.4 3.6-3.7 3.7-3.8-3.3-3.2c-5.3-5.1-12.2-6.4-18.7-3.6zM705.2 607.1c-1.9 3.1-1.9 3.3-.2 11.3 1 4.4 1.9 8.9 2.1 9.9.3 1.5 1.1.8 3.7-2.8l3.3-4.6-3.4-8.5-3.5-8.5-2 3.2zM183.9 614.1c-2.7 3.4-3 4.2-1.8 5.3.8.7 4.2 3.7 7.7 6.6 3.4 2.9 6.2 5.7 6.2 6.2s-3 4.4-6.7 8.7l-6.8 7.8-7-5.8-7-5.9-3.4 3.7-3.4 3.6 2.9 2.6c1.6 1.4 4.8 4.2 7.1 6.1l4.2 3.6-7.3 8.5-7.2 8.6-5-4.5c-2.7-2.4-6.3-5.5-8.1-6.9l-3.2-2.5-3 3.4c-1.7 1.8-3.1 3.6-3.1 3.9 0 .4 5.4 5.3 12.1 10.9 10.1 8.6 12.3 10 13.3 8.9 4.6-4.9 46.6-55 46.8-55.8.3-.7-22.7-21.1-23.7-21.1-.2 0-1.8 1.8-3.6 4.1zM561.2 641.1l-4.2 3.1 13.7 20.1c7.5 11.1 15.6 23 18 26.4 2.3 3.4 4.3 6.5 4.3 7 0 .4-2.2 2.3-5 4.2l-4.9 3.4 2.4 3.2c1.4 1.7 2.5 3.7 2.5 4.3 0 .7 6.9-3.4 15.4-9l15.4-10.3-3-4.2-2.9-4.3-5.1 3.4-5.1 3.5-2.6-3.7c-1.5-2-9.4-13.6-17.5-25.7-8.2-12.1-15.4-22.6-16-23.3-.9-1-2-.6-5.4 1.9zM237.5 655c-5.2 1.6-10 7.9-20.4 27.1-11.4 20.9-12.8 25.6-9.6 32.3 2.1 4.4 5.3 7 15.5 12.5l7.4 4 3.7-6.7c2-3.7 10.2-18.7 18.1-33.3l14.5-26.6-9.5-4.8c-9.9-4.9-14.7-6-19.7-4.5zm11.6 11.6c1.7.8 2.9 1.9 2.7 2.3-.2.4-6.1 11.4-13.2 24.4-12.1 22.2-13 23.6-15 22.5-4.1-2.1-6.6-5.1-6.6-8 0-3 17.6-36.5 21.3-40.6 2.4-2.6 6.5-2.9 10.8-.6zM519.8 664.5l-4.6 2.5 2.5 5.1c1.3 2.9 8.3 17.9 15.5 33.3 7.1 15.5 13.3 28.5 13.8 28.9.4.5 2.8-.2 5.3-1.5l4.5-2.3-15.3-33c-8.5-18.2-15.7-33.5-16.2-34.2-.6-.9-2-.6-5.5 1.2zM471.1 681c-4 .9-7.7 3.6-10.5 7.4-1.7 2.2-2.1 4.2-2.1 10.1 0 4 .2 7.6.5 7.9.3.3 2.8-.1 5.5-.8l4.9-1.2-.3-5c-.2-5.4.6-6.8 5-7.9 5.1-1.3 6.6 1.4 12.3 23 2.9 11 5.6 21.2 6 22.6.8 3.5-2.6 7.9-6 7.9-3 0-7.4-4.1-7.4-7 0-2.3-.5-2.4-6.6-.9-4.2 1.1-4.5 1.4-3.9 3.8 2.4 9.6 10.2 15.7 18.8 14.7 9.5-1 15.9-7.7 15.9-16.4 0-6.1-11.6-48.5-14.3-52.3-3.6-5.1-11-7.6-17.8-5.9zM336.1 689.7c-3.9 1.9-7.5 7.2-8.9 12.8-3.8 15.1-2 21.3 7.9 27.3 3.5 2 7.6 4.9 9.2 6.5 2.6 2.4 2.8 3.1 2.2 7-1.3 7.5-3.1 9.7-8.1 9.7-4.1 0-6.7-3-7-8.1-.1-2.2-.3-4.1-.5-4.3-.2-.2-2.5-.6-5.1-.9l-4.7-.6-.6 4.4c-1.7 11.1 6.7 20.4 18.5 20.5 10.6 0 18-9.2 18.1-22.3.1-8.5-2-12-9.7-16.7-3.2-1.9-7.1-4.7-8.7-6.3-2.7-2.6-2.8-3.1-2.2-8 .9-6.1 2.2-9.9 3.8-10.9.7-.4 2.9-.8 4.9-.8 4.9 0 8.2 3.9 7.3 8.6-.6 3.2-.6 3.2 4.7 4.1l5.3.8.8-3.3c.8-4-.7-10.5-3.4-14.4-4.4-6-16.5-8.7-23.8-5.1zM421.2 691.9c-.8.4-1.8 4.3-2.4 8.5l-1.1 7.6h-3.6c-2 0-5.3.3-7.3.6-4.1.7-3.3 2-6.8-11.6l-1.1-4h-5.5c-4.8 0-5.5.2-5 1.7.3 1 4.6 16.4 9.6 34.3 12 43.1 10.5 39 14.3 39 1.8 0 3.8-.4 4.5-.8.7-.5 3.6-14.7 7.2-36.3 3.3-19.5 6.2-36.4 6.5-37.7.5-2 .2-2.2-3.7-2.2-2.4 0-4.9.4-5.6.9zm-5.2 27.8c-.1 1-.9 7.4-1.8 14.3l-1.8 12.5-3.2-12.7c-1.8-7-3.2-13.2-3.2-13.7 0-.9 2.3-1.4 8.3-1.9 1-.1 1.7.5 1.7 1.5z"/></svg>