<svg xmlns="http://www.w3.org/2000/svg" viewBox="0 0 512 512"><path fill="#292927" d="M0 0h512v512H0z"/><path fill="#fff" d="M448 226.3c1.9-6 1.9-16.4-.1-21.3-4.5-11.5-16.9-18.3-40.6-22.2-5.6-1-12.6-1.1-71.9-1.3l-65.6-.2V255l.2 73.7h23.1l23.1.2v-51.1l1.3-.3 8.8-1.2c28.1-3.7 57.7-8.2 64.9-10.1 30.6-7.8 51.2-22.3 56.8-39.9zm-46.8-2.2c-.9 6.5-6.1 11.2-15 13.4-4.4 1.1-8.4 1.6-40.2 4.5l-27.5 2.7-2.2.3v-31.3l32.3-1.7 32.9-1.8c.3-.1 9.7.5 12.6 1.6 5.2 1.9 7.8 6.6 7.1 12.3zm-195-42.8l-.2 39.1c-.2 43.6 0 41.6-4.5 50.8-2.9 6.2-9.4 12.5-15.8 15.7-15.9 7.8-41.5 7.5-57.3-.7-10-5.2-16.9-15.6-18.7-28.4-.3-2.4-.6-19.5-.6-40.3v-36.2H62.6l.2 41.5c.2 39.4.3 41.9 1.5 47.3 7.7 35.5 32.3 55.4 74.3 60.1 8.3.8 32.2.7 40.7-.3 35.6-4.4 59-21.8 69-51.2 3.8-11.2 3.8-11.5 4.1-56.5l.2-40.9h-46.4z"/></svg>