<svg xmlns="http://www.w3.org/2000/svg" viewBox="0 0 402 512"><path fill="#3fabc7" d="M185 439.4c-.2-26.6 22-48.3 49.1-47.4s46.2 22.6 45.5 48.7-22.4 46.5-47.8 45.9-47.4-22-46.8-47.2z"/><path fill="#e31d20" d="M295.4 39.7c17.8-.9 32.6 15.6 32.4 32.7s-14.4 32.5-33 32.3a32.7 32.7 0 0 1-32.4-32.8c.1-17.5 14.8-33.1 33-32.2z"/><g fill="#fbfbfa"><path d="M11 152.5c.9-2 2.3-2.4 4.1-2.5 5.8-.1 5.8-.1 7.3 5.3l17.7 63.2 17.7-65.7c.3-.9-.1-2.6 1.5-2.7a4.7 4.7 0 0 1 5.4 2.3c1.6-3.7 5.9-2 9-2.3 1 .1 2.6-.8 2.7 1.1 1.1 5.5-5.6 2.1-5 9.6v74.3c-.3 6.6 6.4 3.3 5 8.8 0 1.6-1.4.9-2.2.9-3.3-.1-7.1.9-9.6-1.7-2.7 2.6-6.3 1.6-10.1 1.7-.7 0-1.9.4-1.8-.9s-1-2.8.9-3.3 4.1-3.4 4-6.5l-.4-59.9C30.7 268 42.4 268.1 14 175.3v59.3c0 2.9 1 5 3.9 5.8s1 2.3 1.2 3.4-1.2 1-1.9 1-4.8.7-5.6-2.4c-1.3 2.3-8.3 4.5-7.7.7.2-.9-.8-2.1.9-2.6s4-3.1 4-6.2q-.2-36.9 0-73.8c.2-7.6-6.1-3.6-4.9-9.3-.2-1.4 1-1.1 1.8-1.1s4.2 0 5.3 2.4z"/><path d="M142.7 32c.8-2.2 2.3-2.6 4-2.7s7.7-1.1 7.7 1.1c1.3 5.7-5.1 2-4.9 9.3 2 32.3-8.8 27.3 20.5 27.6 3.6 1.5.8-24.2 1.6-27.8s-.9-4.8-3.8-5.6-.6-2.3-.9-3.5 5.5-.6 7.1-1.1 3.6.5 4.6 2.6c1.8-4.1 6.6-2.1 10-2.6.8.1 2.1-.3 1.8 1.2s1 2.9-1.1 3.5c-7.4 1.8-2.7 21.1-4 27.6v51.9c-.1 8.4 6.4 3.9 5.1 9.7-.1 2.3-6.8.5-8.7 1a3 3 0 0 1-3-2.3c-1.8 3.5-5.9 2.1-9.1 2.3-.9-.1-2.5.8-2.7-.9-1.4-5.4 5.3-2.4 4.7-9.1l.1-40.5c0-1.3-.2-1.9-1.7-1.9-3.3.9-21.3-1.9-20.5 1.8v41.1c0 6.6 6.3 3.1 4.9 8.5.1 1.5-1.2 1-1.9 1-3.4-.3-7.7 1.2-10-1.9-2.1 3.3-6.7 1.5-10 1.9-.6 0-1.8.4-1.5-.9s-1.1-2.8.8-3.4 4-3.3 4-6.3q-.2-36.6 0-73.2c.3-8.3-6.4-4.1-4.8-10.2-.2-1.3 1.1-.8 1.7-.8 3.6.3 7.9-1.5 10 2.6zm22.2-32h159.2a10.9 10.9 0 0 1 3.1.3 3.3 3.3 0 0 1 2.6 3.2 3.6 3.6 0 0 1-2.2 3.6 9.7 9.7 0 0 1-3.4.5H5.6C1.8 7.6.2 6.4.3 3.7A3.2 3.2 0 0 1 3.1.2 19.4 19.4 0 0 1 6.5 0zm25.3 152.7c1.3-2.8 8.8-4.8 7.6-.2.8 3.5-5.6 1-5.1 8.1v74.3c-.1 7.2 6.4 3.3 5.1 8.9.3 1.6-1.1 1-1.8 1s-4.3.5-5.3-2.1c-2.1 2.1-9.8 4.4-10-.1l-25.9-68.1c-1.6 19 0 40.1-.6 59.8-.2 7.9 6.4 3.9 5.1 9.5.3 1.5-1.1 1-1.8 1s-4.8.8-5.6-2.4c-1.4 2.2-8.7 4.7-7.8.6-1-4.4 5.4-1 4.9-9.1q-.1-36.6 0-73.2c.2-8.1-6.2-3.7-4.9-9.6-.2-1.2.8-1 1.6-1s4.5-.3 5.5 2.5c1.6-2.4 8-4.6 8.8-.8 9.3 23.5 17.3 47.4 27.5 70.6v-61.5c.3-8.4-6.3-3.8-4.9-9.8-.2-1.3.9-1 1.6-1 2.4-.1 4.9-.4 6 2.6z"/><path d="M221.2 242.4c-1.6 3.9-5.8 2.1-8.9 2.4-.9-.1-2.5.9-2.7-.9s-.8-3.1 1.7-3.8c5.9-2.5 2-15.1 3-20.6l.1-58.7c.2-8.1-6.1-3.9-4.8-9.7-.2-2.2 5-.5 6.6-1.1s3.8.2 5.1 2.3c2.3-4.8 23.8-1.1 30-2.3 4.3-.3 2.6 9.2 3.9 12.2.1.8.7 2.1-.9 1.9-6.2 1.8-.7-9.7-13.7-9.7-4.3.3-12.2-1.5-12.4 4.7l-.2 27.7c.5 2.5 8.2.6 10.5 1.1a4.1 4.1 0 0 0 4-3.3c.6-2.5 2.3-1.4 3.5-1.5s1.2 1.5 1.2 2.3 1.3 12.3-1.1 11.9-2.9 1.1-3.4-1.2c-1.5-5.6-8.5-3.1-12.8-3.7-1.3-.1-1.9.3-1.9 1.7l.1 41.1c0 7.6 9.2 5.1 14.2 5.4s8.5-2.9 9.5-7.8c.5-2.4 2-2 3.4-1.9s.8 1.6.7 2.4c-1 3 .6 11.4-3.2 11.6-6.3-1.1-29.7 2.6-31.5-2.5z"/><path d="M100 242.4c-1.8 3.8-5.8 2.2-8.9 2.4-1-.1-2.6.9-2.8-.8-1.6-5.1 5.2-2.8 4.7-8.6v-75.6c.1-6.7-6-3-4.7-8.6-.3-2.5 6.6-.5 8.3-1.2s2.3 1.4 3.5 2.1c2.8-4.5 24.4-1 30.8-2.1 3 .5 1.9 9.6 3 12.3 0 .7.6 1.9-.7 1.8s-3 1.2-3.4-1.2c-1.2-9.6-12.4-9.3-19.8-8.1-2.1.4-3.2 2.5-3.2 4.7.8 3.9-2 29.5 1.6 28.5s11.3 1.9 12.9-3.5c.7-2.5 2.4-1.2 3.7-1.3s.9 1.3.9 2.1 1.2 12.2-.8 12-3 1.1-3.6-.9-3-4.1-6-4-8.5-1.7-8.7 1.8v41.6c.5 7.1 10.3 4.6 15.2 4.8a9.3 9.3 0 0 0 8.5-7.8c.3-2.4 1.8-1.9 3.1-1.9s1.1 1.4 1 2.3c-1 2.8.4 11.4-3 11.7-5.9-1.1-30.6 2.6-31.6-2.5z"/><path d="M111.3 33.1c.9-2 8.3-3 7.6-.5s1.4 17.3-1 17.5c-4.3 1.1-3.9-4.5-5.8-7-4.6-12-25.8-14-25.9 1.6v50.8c-.2 9.4-2 25.2 11.1 25 7.3-.1 12.6-5.2 12.5-12.1s4-15.6 12.2-14.6c1 0 1 .5 1.1 1.3.7 14-8.8 27.7-23 30-8.9 1.4-19.3-4-24.3-12.9-8.4-17-2.8-37.3-4.3-55.6a27.7 27.7 0 0 1 37.4-26.4c1.5.3 1.9 1.5 2.4 2.9z"/><path d="M319.1 242.5c-1.8 2.2-9.2 4.6-9.3.4l-9-33c-.7-2.5-1.7-3.1-4.1-3s-14.2-1.9-15.2 1.9l-7.1 26.4c-.8 3-.2 4.3 2.7 5.2s1 2.3 1.2 3.5-1.2.9-2 .9-4 .3-5.1-2.6c-1.4 3.5-4 2.5-6.3 2.6s-.9-.6-.8-1.2-.9-2.5.7-3 3.7-3 4.3-5.5l22.5-83.1c.5-2 1.5-2 2.9-1.9s2.7-.4 3.3 1.8l23 82.2c.8 2.7 1.4 5.4 4.6 6.5 1.4.6.6 2.4.6 3.6s-1 .6-1.6.6-4.2.5-5.3-2.3zm-20.6-39.9l-7.5-27h-.5l-7.3 27zM214 121.4c-1.2 4.4-6 2.5-9.3 2.8-.9-.1-2.4.9-2.5-.9s-.9-3.2 1.7-3.8c6.2-1.7 2.1-18.4 3.2-24.1V40.9c.5-9.3-6.2-4.2-4.9-10.6-.1-2.2 5.8-.4 7.4-1s3.5.6 4.4 2.7c1.6-3.8 5.7-2.4 8.9-2.7s3.4.2 3 3.4-5.3.8-5 7.1-.1 14.1-.1 21.1v52.4c-.3 8.5 6.4 4.2 5 10 .3 2.1-5.9.4-7.5.9s-3.6-.3-4.3-2.8z"/><path d="M57.7 124.3c-2.4-1.3-6.4 1.9-7.1-2.1s-2.6-17.1-6.6-17c-6.8 0-6.8-.1-8.6 6.3-.1 3.1-4.1 8.4-1 10.4s.5 3.2-.8 2.3-5.1 1.2-5.5-.6 2.5-1.6 2.7-5.3c15.5-56.2 9.7-54.4 25.6.3.4 1.3.7 2.8 2.2 3.4s.6.9.6 1.5-.9.6-1.5.8zm-16-34.1h-.6l-3.4 12.9c11.8.7 6.1-1 4-12.9zm-24.6 34c-3.5.2-7.5-.5-11.4 0-.6.1-1.5.4-1.8-.6s3-1.9 2.4-5V82.3c0-1.3-.2-2.5-1.6-3.1a1.5 1.5 0 0 1-.8-1.9c1.8-1.6 7.5.3 10.4-.6 1.3-.6 2 1.8.7 2.3s-1.7 2.3-1.7 3.8l.1 34.7c-1.9 7 9.5 5.6 9.9.5.2-.9.8-.8 1.4-.8s.7.9.6 1.6c-.6 5.4-.6 5.4-8.2 5.4z"/></g><g fill="#f7e821"><path d="M369.7 368.7a32 32 0 0 1-32-32.5c.1-17.6 14.5-31.5 32.7-31.5s31.5 14.7 31.4 32.1a32 32 0 0 1-32.1 31.9z"/><path d="M59.7,355.4c.5-1.9-1.2-10.4,1.1-10s2.8-.8,3.4,1.4c1.3,5.5,5.1,9.1,9.6,12.1,20.1,13,27.9-20.2,14.6-29.6s-31.3-20.5-27.8-39.1C62,273.5,80.3,265.4,95,271.9c1.1.4,2,.9,2.9-.3,3.1-1.9,6.8-1.9,6.2,2.7-.6,2.5,1.3,17.3-1.1,16.7s-2.6.6-3.3-1.5c-2.3-12.2-21.6-22.9-26.6-6.6-8.9,29,47.3,31.9,32.6,68.4-7.8,17.8-23.9,16.1-39.4,12.9-1.5,1.7-4.2,1.9-6.1,1.2s-.4-2.2-.5-3.4Z"/><path d="M195.1 356.8c.6 6.9 8.8 3.9 13.6 4.5s9-2.9 10-8c.4-2.5 2-1.9 3.4-1.8s.7 1.6.7 2.4c-1 2.8.3 11.6-3.1 11.7H192c-1.8.1-2.9-1.9-4-1.7-2.4 1.9-5.8 1.8-8.9 1.7s-3.2-.4-2.8-3.3c.1-.5.1-1 .8-1 6.6-1.4 3.3-9.9 4-14.6v-65.4c0-2.7-.2-5.3-3.8-6-1.8-.3-.8-2.4-.9-3.7s6.1-.3 7.7-.9a4 4 0 0 1 3.9 2.2c3.2-4.7 23.7-1.1 30.4-2.2 4-.3 2.4 9.3 3.6 12.3.1.8.5 2-1 1.8-7.6.9 1.9-11.8-20.7-9.8-3.3.1-5.2 2-5.2 5.3l-.1 26.4c.1 3.8 6.8 1.1 9.3 1.9a4.7 4.7 0 0 0 5.1-3.4c.7-2.3 2.4-1.2 3.7-1.3s1 1.3 1 2.2 1.4 12.1-1.2 11.8c-5.1 1.1-2.1-4.3-7.7-4.6-3.4-.4-6.8-1-10.2.3l.1 43.2z"/><path d="M131.8 318.1v32.5c-.6 13.7 19.8 14.4 23.2 2.6.3-6.4.3-14.5 7.3-17.6 15.1-6.3 1.4 31.4-17.4 30.7-15.7 1.9-28-13.2-27.9-28v-40.4a27.7 27.7 0 0 1 37.3-26.5c2.6 4.9 10.7-2.9 10.2 4.4-.8 2.6 1.4 16-1.2 15.5-4.8 1.6-4.1-9.3-11-13.4-7.2-6.4-20.6-3.4-20.5 7.6v32.6z"/><path d="M148.2 483.9c-2 3.4-5.1 2.1-7.8 2.3-.6 0-.9-.4-1.1-1l-9.6-34.8a2.4 2.4 0 0 0-2.8-2.2c-3.9 1-15.1-2-16.3 1.9l-6.9 25.9c-.9 3.4-.4 4.4 2.8 5.7s.9 2.2 1 3.4-1 1.1-1.8 1.1c-3 .1-3.6 0-5.4-2.2a4 4 0 0 1-4.1 2.2c-1-.1-2.7.9-2.9-1.1s-.7-3 1.8-3.7 2.7-3 3.3-5.1l13-48.2 9.2-34.3c.5-2 1.3-2.5 3.3-2.6s2.8.9 3.3 2.8l16.5 59c3 6.7 4.6 26.3 10.8 28.8 1.7.5.6 2.3.7 3.4s-6.6 1-7-1.3zm-28-66.9h-.6c-.1 3.4-9.4 28-5.7 26.9s14.7 1.8 13.3-1.9l-7-25z"/><path d="M15.7 483.6c-1.7 3.9-6 2.4-9.3 2.6-.9-.1-2.6.8-2.5-1.2s-.8-2.9 1.6-3.5c6.3-1.8 2.1-19.1 3.3-24.9v-54.5c0-3.1-.8-5.4-3.9-6.3s-.8-2.3-1-3.4 1.1-1 1.9-1 4.2.1 6.3-.1 2.5 1.9 3.7 1.9 1.7-2 3.4-1.9 8.2-1.1 8.3 1 1 2.8-.9 3.4-4.1 3.3-4.1 6.4v73c0 3.2.6 5.7 4.2 6.7 1.7.4.7 2.1.8 3.1-.1 2.7-5.8.7-7.8 1.3a3.6 3.6 0 0 1-4-2.6z"/><path d="M329.7 507.7c-.2-2.2-1.8-3.1-3.8-3.3H4.4c-2.2.1-4 .9-4.1 3.4s1.1 3.7 3.5 4l2.8.2h317.1l3.1-.2a3.5 3.5 0 0 0 2.9-4.1zM206.1 257.4c0 2-.7 3.4-2.3 4.1-3.5.8-8.1 5.4-11.5 3.4-.6-1.8 5.1-7.5 6.3-9.7s7.5-1.5 7.5 2.2zm-156.9 94c-1.4.1-2.7-.3-3.1 1.9a9 9 0 0 1-8.5 7.9c-5.1-.2-14.9 2.4-15.1-5.2v-41.4c0-1.2.3-1.7 1.6-1.7 18-1.4 9 6.1 16.5 4.9 2.3.3.6-9.6 1-11.6s.7-2.3-.8-2.3c-5.6-1.7-2.8 5.3-9.3 4.7-2.8-.9-9.2 2.2-9.1-2.4l.1-26.1c0-8.7 16.1-6.2 19.8-2.4s1.4 8.3 6.2 7.1c1.8 0 1-1.3.9-2.1-1.2-3 .5-12.3-3.5-12-9.2 1.1-22.3-2.2-30.2 1.7-.8.3-2-1.9-3.8-1.7s-8.3-1.1-8 .9-1 2.9 1.1 3.6 3.2 2.2 3.8 4.3v77.1c-1.5 5.6-6.3 2.7-5.1 8.1 0 2.1 6.4.3 8 .9s2.7-1.5 3.8-1.7 2.2 1.8 4 1.7h27.7c3.4 0 2.1-9.2 3.1-11.9.1-.9.9-2.3-1.1-2.3zm236 9.9c-4.4-1-4.2-4.3-4.2-7.7q0-35.7-.1-71.4c0-3.2.4-6 4-7.1 1.2-.4 1.1-1.6 1.1-2.7-.5-3.6-6.4-1.6-7.7.7-1.1-2.3-8-4.4-7.6-.7.2 1-.8 2.7.6 3 4 .6 4.4 3.3 4.4 6.5l-.1 60.7c-10.4-22.9-18.1-46.8-27.5-70.2-.2-.7-.2-1.7-1.3-1.7-2.6.2-5.6-1-7.5 2.4-1.1-2.8-3.3-2.4-5.4-2.4s-1.9-.3-1.7 1c-1.1 5.6 3.6 1.6 5 8.2l-.1 58.4c-1.3 6.9 3.9 20-4.3 23-1.3.4-.4 2.1-.6 3.1.3 3.2 6.8.7 7.7-1.4 1 2.9 3.4 2.7 5.7 2.6.7 0 2 .4 1.8-1.1s1-2.9-.9-3.3c-3.5-.9-4-3.5-4-6.4.7-19.7-1.4-40.6.7-59.6 8.1 22.9 17.2 45.4 25.7 68.2.4.8.2 2.3 1.5 2.1s5.5 1.2 7.7-1.3c.3-.4.7-.7 1-.2s3.2.9 4.8 1.5 2 .8 2-.7.8-3.1-.7-3.5zM89.4 456.8c-2.6-4.4-12.2 2.4-12.3 6.7s.1 9.6-2.5 13.6-9.8 6.2-14.6 4.6-7.4-5.3-7.4-11.7q-.1-31.5 0-63c0-2.8.4-5.6 2.4-7.8 8.6-9.9 23.6-.1 25.7 10.9.6 2.4 2.1 1.9 3.6 1.9s.5-12.9 1.1-15.3 0-4.1-3.9-3.5c-8.1-.2-16.5-5.3-24.7-1.6-11.3 3.9-17.7 12.3-18.8 24.4-.5 14.4 0 28.8-.2 43.1a32.5 32.5 0 0 0 3.5 13.4c13.5 27.2 50.3 12.3 48.1-15.7z"/></g></svg>