<svg xmlns="http://www.w3.org/2000/svg" viewBox="0 0 766.36 478.22"><g fill="#cb313b"><path d="M300.98 148c-2.265-7.24-9.936-11.308-17.2-9.12a13.66 13.66 0 0 0-9.69 14.6l-116.77 34.84h0a21.66 21.66 0 0 0-7.44-9h0l45.65-84.43a16.59 16.59 0 0 0 9.79.1c8.601-2.534 13.523-11.556 11-20.16v-.13c-2.689-8.656-11.85-13.528-20.53-10.92a16.2 16.2 0 0 0-5 28.66l-45.6 84.37h0a22.11 22.11 0 0 0-14.3-.57l-.91.32-73.34-147a16.18 16.18 0 0 0 5.17-20.41C57.752 1.031 47.925-2.323 39.75 1.62c-8.068 3.878-11.469 13.558-7.6 21.63l.09.18a16.53 16.53 0 0 0 19.59 8.55l73.35 147a21.79 21.79 0 0 0-9.1 12.63l-80.55-5.88a17.69 17.69 0 0 0-4.24-9.75c-6.474-7.38-17.667-8.212-25.16-1.87-7.381 6.316-8.245 17.419-1.93 24.8l.08.09c6.474 7.38 17.667 8.212 25.16 1.87a17.54 17.54 0 0 0 5.79-9.85l79.93 5.83a21.28 21.28 0 0 0 1 6.48 21.73 21.73 0 0 0 8.37 11.5h0L68.24 319.19a12.34 12.34 0 0 0-5.73.3 12.18 12.18 0 0 0-8.25 15.14v.08c2.03 6.476 8.891 10.114 15.39 8.16a12.15 12.15 0 0 0 3.57-21.6l56.12-103.81a21.8 21.8 0 0 0 14.24.57 21.47 21.47 0 0 0 11.6-8.3l54 28.66a19 19 0 0 0-.33 12c3.214 10.171 13.983 15.891 24.21 12.86 10.167-2.989 15.987-13.653 13-23.82v-.13c-3.205-10.178-13.982-15.903-24.21-12.86a19.23 19.23 0 0 0-10.22 7.29l-53.91-28.61h0a21.44 21.44 0 0 0 1.18-11.67h0l116.85-34.89a13.86 13.86 0 0 0 16 6.44c7.194-2.198 11.264-9.792 9.11-17M197.21 69c5.836-1.748 11.994 1.512 13.83 7.32 1.716 5.803-1.577 11.902-7.37 13.65h0c-5.829 1.757-11.986-1.508-13.8-7.32a10.91 10.91 0 0 1 7.28-13.63h.1M37.06 21.27c-2.68-5.391-.487-11.933 4.9-14.62l.11-.06c5.482-2.672 12.093-.444 14.84 5a10.92 10.92 0 0 1-4.94 14.64h-.07c-5.482 2.666-12.089.44-14.84-5M25.95 196.85c-5.222 4.43-13.034 3.846-17.54-1.31a12.23 12.23 0 0 1 1.17-17.26l.12-.1c5.227-4.41 13.02-3.833 17.54 1.3a12.27 12.27 0 0 1-1.21 17.32l-.08.07m42.13 140.77c-3.629 1.132-7.488-.891-8.62-4.52s.891-7.488 4.52-8.62h0a7 7 0 0 1 8.66 4.56 6.84 6.84 0 0 1-4.53 8.55h0m155.23-106.17c7.388-2.219 15.185 1.925 17.48 9.29a13.86 13.86 0 0 1-9.29 17.26h-.08c-7.39 2.221-15.192-1.916-17.5-9.28a13.85 13.85 0 0 1 9.27-17.26h.09m-81.29-18.66c-8.763 2.666-18.032-2.25-20.74-11a16.4 16.4 0 0 1 11-20.44h.09c8.761-2.649 18.019 2.262 20.74 11 2.605 8.646-2.287 17.767-10.93 20.38h-.15m148.16-52.91a8.45 8.45 0 0 1-10.48-5.56 8.33 8.33 0 0 1 5.58-10.37h0a8.43 8.43 0 0 1 10.56 5.53v.08a8.29 8.29 0 0 1-5.53 10.36h-.06"/><path d="M301.94 165.9a19 19 0 0 0 6-14.09 20.22 20.22 0 0 0-34.55-14.16 19.19 19.19 0 0 0-5.89 14.16v.06a19 19 0 0 0 6 14c7.866 7.813 20.558 7.826 28.44.03z"/></g><g fill="var(--text,#1d1d1b)"><path d="M305.64 272.86v-88.24h-54.45v26.41h17.56v61.83h-17.56v26.41h71.64v-26.41h-17.19z"/><path d="M604.91 272.86v26.41h-55.62v-9a53.66 53.66 0 0 1-31.61 10.72 46.85 46.85 0 0 1-29.71-9.73 31.23 31.23 0 0 1-12.49-26 34.78 34.78 0 0 1 13.13-27.6 50.92 50.92 0 0 1 34-11.1 75.32 75.32 0 0 1 26.68 5.76v-7a18.88 18.88 0 0 0-6-14.4 22.36 22.36 0 0 0-16-5.61 28.68 28.68 0 0 0-21.28 9l-29.78-5.35q12.94-27.23 56.12-27.23a87.65 87.65 0 0 1 27.73 3.74 38.65 38.65 0 0 1 16.45 9.63 34 34 0 0 1 7.55 13 83 83 0 0 1 2.25 22.91v41.72zm-55.62-16q-13.39-8.28-21.44-8.27a19.55 19.55 0 0 0-11.53 3.67 12.22 12.22 0 0 0-5.21 10.65 15.32 15.32 0 0 0 4.19 10.82 14.16 14.16 0 0 0 10.78 4.46c6.81 0 14.6-4 23.21-11.94zM286.15 363.63h-3.88l-16.54-27.64v27.64h-3.4v-31.69h5.3l15.49 25.84v-25.84h3.16zm4.46-8.37l3.64-.82a9 9 0 0 0 9.43 6.47 8.87 8.87 0 0 0 5.71-1.6 5.22 5.22 0 0 0 1.91-4.29 3.94 3.94 0 0 0-1.46-3.23 8.32 8.32 0 0 0-3.41-1.74l-6.4-1.53a17.46 17.46 0 0 1-4.08-1.53 6.83 6.83 0 0 1-2.65-2.76 8 8 0 0 1-1.13-4.25 7.56 7.56 0 0 1 3-6.3 12 12 0 0 1 7.76-2.38 11 11 0 0 1 11.47 7.83l-3.64 1.05a6.62 6.62 0 0 0-3-4.22 9.53 9.53 0 0 0-5-1.43 8.25 8.25 0 0 0-4.69 1.4 4.39 4.39 0 0 0-2 3.91c0 2.31 1.73 3.91 5.2 4.73l6 1.4c5.51 1.29 8.24 4.22 8.24 8.74a8.67 8.67 0 0 1-3.1 6.81 12.57 12.57 0 0 1-8.68 2.76 12.71 12.71 0 0 1-13.14-9m106.75-23.34h3.4v20.7a11.22 11.22 0 0 1-3.1 8.91 11.73 11.73 0 0 1-8.06 2.73 11.11 11.11 0 0 1-8.24-2.79 12.51 12.51 0 0 1-2.65-8.85v-20.7h4v20.7a11.28 11.28 0 0 0 .85 5.2 5.32 5.32 0 0 0 2.62 2.22 9.11 9.11 0 0 0 3.68.71 7.61 7.61 0 0 0 5.65-1.91 8.63 8.63 0 0 0 1.9-6.22zm43.86 32.34a11.1 11.1 0 0 1-9.59-4.77 21.46 21.46 0 0 1 0-23.52 11.49 11.49 0 0 1 9.56-4.69 11.62 11.62 0 0 1 9.53 4.59 18.76 18.76 0 0 1 3.57 11.64 20 20 0 0 1-3.4 11.74 11.24 11.24 0 0 1-9.67 5m0-3.24a7.42 7.42 0 0 0 6.57-3.77 18.26 18.26 0 0 0 2.35-9.77 16 16 0 0 0-2.45-9.53 7.63 7.63 0 0 0-6.5-3.41 7.52 7.52 0 0 0-6.53 3.68 17.46 17.46 0 0 0-2.42 9.67 16.61 16.61 0 0 0 2.45 9.46 7.51 7.51 0 0 0 6.53 3.67m31.15 2.6v-31.69h10.72a13 13 0 0 1 10.55 4.56 17.07 17.07 0 0 1 3.77 11.2 17.71 17.71 0 0 1-3.67 11.3 11.38 11.38 0 0 1-9.33 4.63zm4-3.4h6.47a9.15 9.15 0 0 0 7.83-3.41 14.86 14.86 0 0 0 2.68-9.29 14.61 14.61 0 0 0-2.55-8.44 8.91 8.91 0 0 0-8-3.71h-6.47zm111.18-4.97l3.61-.82a9 9 0 0 0 9.42 6.47 8.76 8.76 0 0 0 5.72-1.6 5.25 5.25 0 0 0 1.94-4.29 4 4 0 0 0-1.46-3.23 8.71 8.71 0 0 0-3.41-1.74l-6.39-1.53a17.53 17.53 0 0 1-4.09-1.53 7.1 7.1 0 0 1-2.65-2.76 8.22 8.22 0 0 1-1.09-4.25 7.63 7.63 0 0 1 3-6.3 12.15 12.15 0 0 1 7.76-2.38 11 11 0 0 1 11.47 7.83l-3.64 1.05a6.47 6.47 0 0 0-3-4.22 9.61 9.61 0 0 0-5-1.43 8.19 8.19 0 0 0-4.67 1.4 4.34 4.34 0 0 0-2 3.91c0 2.31 1.7 3.91 5.17 4.73l6 1.4c5.48 1.29 8.21 4.22 8.21 8.74a8.67 8.67 0 0 1-3.1 6.81 12.53 12.53 0 0 1-8.65 2.76 12.66 12.66 0 0 1-13.13-9m-301.4 65.36h-3.88l-16.54-27.44v27.61h-3.4v-31.69h5.3l15.49 25.87v-25.87h3.16zm8 0v-31.69h10.72a12.9 12.9 0 0 1 10.55 4.59 17.07 17.07 0 0 1 3.77 11.2 17.52 17.52 0 0 1-3.67 11.3 11.44 11.44 0 0 1-9.33 4.6zm4-3.41h6.5a9.2 9.2 0 0 0 7.83-3.4 14.91 14.91 0 0 0 2.69-9.33 14.57 14.57 0 0 0-2.56-8.4 9 9 0 0 0-8-3.75h-6.37zm45.28-28.28h3.4v20.78a11.52 11.52 0 0 1-3.06 8.91 11.87 11.87 0 0 1-8.1 2.69 10.92 10.92 0 0 1-8.24-2.79 12.4 12.4 0 0 1-2.65-8.81v-20.78h4.11v20.78a11.06 11.06 0 0 0 .86 5.17 5.16 5.16 0 0 0 2.62 2.25 9.78 9.78 0 0 0 3.67.71 7.61 7.61 0 0 0 5.65-1.94 8.44 8.44 0 0 0 1.91-6.19zm7.35 23.31l3.61-.81a8.93 8.93 0 0 0 9.42 6.46 8.76 8.76 0 0 0 5.72-1.56 5.31 5.31 0 0 0 1.94-4.29 4 4 0 0 0-1.46-3.4 8.33 8.33 0 0 0-3.41-1.71l-6.43-1.56a17.83 17.83 0 0 1-4.08-1.5 7.65 7.65 0 0 1-2.66-2.76 8 8 0 0 1-1.12-4.25 7.56 7.56 0 0 1 3.06-6.33 11.92 11.92 0 0 1 7.73-2.38 11 11 0 0 1 11.43 7.86l-3.61 1.05a6.43 6.43 0 0 0-3-4.22 9.49 9.49 0 0 0-5-1.43 7.84 7.84 0 0 0-4.66 1.4 4.3 4.3 0 0 0-2 3.88c0 2.35 1.7 3.91 5.17 4.73l6 1.43c5.48 1.26 8.2 4.19 8.2 8.71a8.7 8.7 0 0 1-3.09 6.81c-6.448 4.652-15.446 3.197-20.1-3.25a14.2 14.2 0 0 1-1.69-3m76.23 8.5h-4.22l-5.89-13.62h-9.15v13.62h-3.78v-31.69h12.59a9.7 9.7 0 0 1 7.63 2.79 9 9 0 0 1 2.45 6.06 9.84 9.84 0 0 1-1.36 4.87 7.82 7.82 0 0 1-4.6 3.4zm-19.26-17h8.33a6.57 6.57 0 0 0 5-1.7 6.15 6.15 0 0 0 1.6-4.26 4.73 4.73 0 0 0-1.73-3.88 6.82 6.82 0 0 0-4.33-1.39h-8.84zm59.81 8.62l3.6-.81a9 9 0 0 0 9.47 6.46 8.81 8.81 0 0 0 5.71-1.56 5.3 5.3 0 0 0 1.91-4.29 4.06 4.06 0 0 0-1.46-3.4 8 8 0 0 0-3.41-1.71l-6.4-1.56a17.54 17.54 0 0 1-4.08-1.5 7.5 7.5 0 0 1-2.69-2.76 8.41 8.41 0 0 1-1.09-4.25 7.61 7.61 0 0 1 3-6.33 12 12 0 0 1 7.76-2.38 11 11 0 0 1 11.47 7.86l-3.64 1.05a6.53 6.53 0 0 0-3-4.22 9.63 9.63 0 0 0-5-1.43 7.82 7.82 0 0 0-4.63 1.4 4.3 4.3 0 0 0-2.02 3.9c0 2.35 1.73 3.91 5.2 4.73l6 1.43c5.51 1.26 8.23 4.19 8.23 8.71a8.81 8.81 0 0 1-3.09 6.81 12.55 12.55 0 0 1-8.68 2.72 12.68 12.68 0 0 1-13.14-9m62.14-2.15l3.64.82q-2.65 10.45-11.84 10.48a11.05 11.05 0 0 1-9.53-4.86 19.81 19.81 0 0 1-3.4-11.92 18 18 0 0 1 3.6-11.74 11.89 11.89 0 0 1 9.7-4.46q9 0 11.54 10.21l-3.78.72c-1.36-5-4-7.56-7.79-7.56a7.53 7.53 0 0 0-6.6 3.41 18 18 0 0 0-2.32 9.87 16.29 16.29 0 0 0 2.42 9.35 7.37 7.37 0 0 0 6.3 3.41c4.08 0 6.8-2.62 8.13-7.93"/><path d="M556.44 388.95h3.4v20.78a11.36 11.36 0 0 1-3.09 8.91 11.76 11.76 0 0 1-8.1 2.69 10.82 10.82 0 0 1-8.2-2.79 12.36 12.36 0 0 1-2.66-8.81v-20.78h4v20.78a11.06 11.06 0 0 0 .89 5.17 5.16 5.16 0 0 0 2.62 2.25 9.82 9.82 0 0 0 3.67.71 7.75 7.75 0 0 0 5.65-1.94 8.58 8.58 0 0 0 1.91-6.19zm72.77 0h3.4v20.78a11.4 11.4 0 0 1-3.06 8.91 11.78 11.78 0 0 1-8.1 2.69 10.77 10.77 0 0 1-8.21-2.79 12.27 12.27 0 0 1-2.71-8.81v-20.78h4v20.78a11.18 11.18 0 0 0 .85 5.17 5.2 5.2 0 0 0 2.62 2.25 10 10 0 0 0 3.71.71 7.62 7.62 0 0 0 5.62-1.94 8.43 8.43 0 0 0 1.9-6.19zm33.86 31.69h-4l-5.89-13.62h-9.19v13.62h-3.74v-31.69h12.59a9.6 9.6 0 0 1 7.62 2.79 8.87 8.87 0 0 1 2.49 6.06 9.53 9.53 0 0 1-1.4 4.87 7.71 7.71 0 0 1-4.56 3.4zm-19.26-17h8.4a6.46 6.46 0 0 0 4.94-1.7 6 6 0 0 0 1.63-4.26 4.74 4.74 0 0 0-1.74-3.88 6.8 6.8 0 0 0-4.35-1.39h-8.85zm97.72 8.62l3.61-.81a9 9 0 0 0 9.43 6.46 8.72 8.72 0 0 0 5.71-1.56 5.17 5.17 0 0 0 1.94-4.29 4 4 0 0 0-1.46-3.4 8.11 8.11 0 0 0-3.4-1.71l-6.44-1.56a17.48 17.48 0 0 1-4.05-1.5 7.47 7.47 0 0 1-2.68-2.76 8 8 0 0 1-1.09-4.25 7.49 7.49 0 0 1 3-6.33 12 12 0 0 1 7.76-2.38 11 11 0 0 1 11.43 7.86l-3.61 1.05a6.57 6.57 0 0 0-3-4.22 9.52 9.52 0 0 0-5-1.43 8 8 0 0 0-4.67 1.4 4.41 4.41 0 0 0-2 3.88c0 2.35 1.74 3.91 5.17 4.73l6 1.43c5.48 1.26 8.24 4.19 8.24 8.71a8.82 8.82 0 0 1-3.1 6.81 14.42 14.42 0 0 1-20.14-3.27 14 14 0 0 1-1.67-3M287.1 477.73v-31.74h10.72a13 13 0 0 1 10.55 4.56 17.05 17.05 0 0 1 3.75 11.2 17.68 17.68 0 0 1-3.65 11.33 11.53 11.53 0 0 1-9.32 4.6zm4-3.41h6.5a9.28 9.28 0 0 0 7.83-3.4 15.26 15.26 0 0 0 2.66-9.33 14.71 14.71 0 0 0-2.56-8.44 8.83 8.83 0 0 0-7.93-3.71h-6.5zm111.03-5.05l3.61-.82a9 9 0 0 0 9.46 6.5 8.84 8.84 0 0 0 5.72-1.6 5.39 5.39 0 0 0 1.91-4.29 4 4 0 0 0-1.47-3.4 8.72 8.72 0 0 0-3.4-1.7l-6.43-1.53a18.4 18.4 0 0 1-4.08-1.53 7.5 7.5 0 0 1-2.69-2.76 8.34 8.34 0 0 1-1.09-4.25 7.52 7.52 0 0 1 3-6.33 12.25 12.25 0 0 1 7.76-2.35A11 11 0 0 1 425.9 453l-3.64 1.09a6.46 6.46 0 0 0-3-4.22 9.39 9.39 0 0 0-5-1.43 8.55 8.55 0 0 0-4.69 1.36 4.54 4.54 0 0 0-2.05 3.92c0 2.34 1.74 3.91 5.21 4.76l6 1.36c5.45 1.33 8.2 4.22 8.2 8.78a8.77 8.77 0 0 1-3.09 6.81 14.37 14.37 0 0 1-21.82-6.3m91.7 8.6h-4.19l-5.86-13.62h-9.18v13.62h-3.75v-31.74h12.59a9.7 9.7 0 0 1 7.63 2.79 8.72 8.72 0 0 1 2.45 6.06 9.25 9.25 0 0 1-1.36 4.83 7.84 7.84 0 0 1-4.6 3.41zm-19.26-17h8.37a6.47 6.47 0 0 0 4.93-1.74 5.89 5.89 0 0 0 1.6-4.25 4.7 4.7 0 0 0-1.7-3.88 6.85 6.85 0 0 0-4.36-1.4h-8.84zm71.36 8.54l3.61-.82a9 9 0 0 0 9.43 6.5 8.74 8.74 0 0 0 5.72-1.6 5.28 5.28 0 0 0 1.94-4.29 4 4 0 0 0-1.47-3.4 8.72 8.72 0 0 0-3.4-1.7l-6.43-1.53a18.66 18.66 0 0 1-4.05-1.53 7.5 7.5 0 0 1-2.69-2.76 7.94 7.94 0 0 1-1.09-4.25 7.52 7.52 0 0 1 3-6.33 12.25 12.25 0 0 1 7.76-2.35 11 11 0 0 1 11.43 7.79l-3.61 1.09a6.42 6.42 0 0 0-3-4.22 9.31 9.31 0 0 0-5-1.43 8.49 8.49 0 0 0-4.67 1.36 4.55 4.55 0 0 0-2 3.92c0 2.34 1.74 3.91 5.21 4.76l6 1.36c5.47 1.33 8.2 4.22 8.2 8.78a8.67 8.67 0 0 1-3.1 6.81 12.52 12.52 0 0 1-8.64 2.76 12.7 12.7 0 0 1-13.14-9.06m-91.3-211.4c-1 32.85-24.61 45.4-53.67 45.4-38.6 0-64.26-21-64.26-63.88s31.11-63.81 64.26-63.81c27.77 0 53.67 13.34 53.67 41.56 0 13.61-8.55 25.18-23 25.18-12.46 0-22.84-5.14-22.84-18.75 0-11.81 8.3-18.72 20-18.72a27.23 27.23 0 0 0-20.76-8.75c-13.21 0-25.39 13.11-25.39 42.58s7.65 42.4 25.39 42.4c13.61 0 19.7-11.53 21-23.34z"/><path d="M250.58 331.91h4.02v31.69h-4.02zm79.57 31.69h-3.98v-28.18h-9.19v-3.51h22.39v3.51h-9.22v28.18zm13.65-31.69h4.02v31.69h-4.02zm21.68 31.69h-4.02v-28.18h-9.15v-3.51h22.36v3.51h-9.19v28.18zm52.34 0h-3.98v-28.18h-9.16v-3.51h22.36v3.51h-9.22v28.18zm106.25-3.47v3.47h-20.69v-31.66h20.25v3.48h-16.24v10.07h12.9v3.23h-12.9v11.41h16.68zm36.52 0v3.47H541.7v-31.66h4.08v28.19h14.81zm26.14 3.5h-4.08l-3.2-9.26h-11.92l-2.89 9.26h-3.41l10.38-31.69h4.57zm-8.13-12.25l-5-15.22-4.94 15.22zm-328.02 37.57h4.02v31.69h-4.02zm139.74 31.69h-4.05v-28.22h-9.12v-3.47h22.36v3.47h-9.19v28.22zm43.05-31.69h3.98v31.69h-3.98zm33.53 31.69h-4.08l-3.2-9.26h-11.88l-2.89 9.26h-3.41l10.42-31.69h4.52zm-8.17-12.22l-4.93-15.22-4.94 15.22zm127.45 8.71v3.51h-18.89v-31.69h4.12v28.18h14.77zm11.17 3.51h-4.02v-28.22h-9.16v-3.47h22.36v3.47h-9.18v28.22zm93.66 0h-4.08l-3.2-9.26h-11.88l-2.89 9.26h-3.43l10.42-31.69h4.58zm-8.17-12.22l-4.93-15.22-4.94 15.22zm31.24 8.71v3.51h-18.89v-31.69h4.08v28.18h14.81zm25.32 0v3.51h-20.73v-31.69h20.29v3.51h-16.27v10.04h12.9v3.23h-12.9v11.4h16.71zm-471.53 28.83l-8.54 14.56-8.48-14.56h-4.73l10.69 18.37v13.31h4.01v-13.31l10.72-18.37h-3.67zm50.26 0v31.68h20.7v-3.47h-16.68v-11.43h12.9v-3.2h-12.9v-10.08h16.23v-3.5h-20.25zm38.33 0v31.68h18.85v-3.47h-14.77v-28.21h-4.08zm31.92 4.25l4.94 15.21h-10zm-1.9-4.22l-10.38 31.74h3.43l2.9-9.3h11.84l3.23 9.3h4.03l-10.49-31.69zm66.94 4.22l5 15.21h-9.94zm-1.9-4.22l-10.21 31.74h3.4l2.86-9.3h11.84l3.24 9.3h4.11l-10.51-31.69zm44.71-.03v3.5h9.16v28.18h4.01v-28.18h9.19v-3.5h-22.36zm26.82 0v31.68h20.69v-3.47h-16.71v-11.43h12.9v-3.2h-12.9v-10.08h16.24v-3.5h-20.22z"/></g></svg>