<svg xmlns="http://www.w3.org/2000/svg" viewBox="0 0 512 159.4"><style>.mcd-B{fill:none}.mcd-C{stroke:#211915}.mcd-D{stroke-miterlimit:3.86}.mcd-E{stroke-width:.21}.mcd-F{fill:#caae17}.mcd-G{stroke-width:.17}.mcd-H{fill:#fff}.mcd-I{fill:#bd0033}.mcd-J{stroke-width:.31}.mcd-K{clip-path:url(#mcd-G)}.mcd-L{fill:#211915}.mcd-M{fill:#0066ac}.mcd-N{fill:#008a74}.mcd-O{clip-path:url(#mcd-I)}.mcd-P{stroke-width:.03}.mcd-Q{fill:#d7d8dc}.mcd-R{clip-path:url(#mcd-B)}.mcd-S{clip-path:url(#mcd-D)}.mcd-T{stroke-width:.09}.mcd-U{stroke-width:.13}.mcd-V{clip-path:url(#mcd-H)}.mcd-W{stroke-width:.15}.mcd-X{stroke-width:.18}.mcd-Y{stroke-width:.26}.mcd-Z{clip-path:url(#mcd-A)}.mcd-a{stroke-linecap:round}.mcd-b{clip-path:url(#mcd-E)}</style><defs><clipPath id="mcd-A" transform="translate(-.3 -.3)"><path d="M92.8,53.7a.6.6,0,0,1,.5-.6.6.6,0,0,1,.6.6.6.6,0,0,1-.6.5.5.5,0,0,1-.5-.5" class="mcd-B"/></clipPath><clipPath id="mcd-B" transform="translate(-.3 -.3)"><path d="M93.3,61.5a18.6,18.6,0,0,1-3.6-.3,16.4,16.4,0,0,1,7.2,0,17.9,17.9,0,0,1-3.6.3" class="mcd-B"/></clipPath><clipPath id="mcd-C" transform="translate(-.3 -.3)"><path d="M88.7 69.1h9.2v47.8h-9.2z" class="mcd-B"/></clipPath><clipPath id="mcd-D" transform="translate(-.3 -.3)"><path d="M178.1,61.5a18.6,18.6,0,0,1-3.6-.3,16.4,16.4,0,0,1,7.2,0,17.9,17.9,0,0,1-3.6.3" class="mcd-B"/></clipPath><clipPath id="mcd-E" transform="translate(-.3 -.3)"><path d="M177.6 54.2a.5.5 0 1 1 .5.5.5.5 0 0 1-.5-.5" class="mcd-B"/></clipPath><clipPath id="mcd-F" transform="translate(-.3 -.3)"><path d="M173.5 69.1h9.2v47.8h-9.2z" class="mcd-B"/></clipPath><clipPath id="mcd-G" transform="translate(-.3 -.3)"><path d="M135.7,60.6a63.9,63.9,0,0,1-16.4-2,69.1,69.1,0,0,1,16.4-1.9A62.9,62.9,0,0,1,152,58.6a63.1,63.1,0,0,1-16.3,2" class="mcd-B"/></clipPath><clipPath id="mcd-H" transform="translate(-.3 -.3)"><path d="M133.1,26.2a2.5,2.5,0,1,1,2.5,2.5,2.5,2.5,0,0,1-2.5-2.5" class="mcd-B"/></clipPath><clipPath id="mcd-I" transform="translate(-.3 -.3)"><path d="M135.8,114.6a14.3,14.3,0,0,1-28.6,0v-20h28.6v20Z" class="mcd-B"/></clipPath><path id="mcd-J" d="M93 58.8h-2.7v-.7l-.2-.7v-1c-.8-1-1.5-1.7-1.7-1.5s.1-.4.3-.5 2 .6 3.1 2.3a.8.8 0 0 1 .2.4h2.3c.1-.1.1-.3.2-.4 1.1-1.7 2.4-2.7 3.1-2.3a.5.5 0 0 1 .3.5c-.2-.2-.9.5-1.7 1.5v2.4z"/><path id="mcd-K" d="M89 60.1l-.3-.7a16.9 16.9 0 0 1 4.3-.5 17.2 17.2 0 0 1 4.4.5l-.3.6-.2.5A13.7 13.7 0 0 0 93 60a13.2 13.2 0 0 0-3.9.5 1 1 0 0 0-.1-.4z"/><path id="mcd-L" d="M97.5 58.8l-.4-.3a.9.9 0 0 1-.7.1c-.4-.1-.5-.6-.5-.6a1.9 1.9 0 0 1-.9.4c-.3 0-.6-.4-.6-.4a1.5 1.5 0 0 1-.7.3c-.4 0-.7-.5-.7-.5s-.4.5-.7.5a1.1 1.1 0 0 1-.7-.3s-.1.3-.6.4a1 1 0 0 1-.8-.3 1.1 1.1 0 0 1-.5.5.8.8 0 0 1-.7-.2l-.2.3c0 .1-.2.1-.2.1v.3a13.4 13.4 0 0 1 4.3-.5 16.9 16.9 0 0 1 4.3.5z"/><path id="mcd-M" d="M93 57.2h.2v.2a.6.6 0 0 0 .6.6.7.7 0 0 0 .6-.4h0a.7.7 0 0 0 .7.5.6.6 0 0 0 .6-.6h0l.2-.2v.2a.4.4 0 0 0-.1.3.6.6 0 0 0 .6.6.5.5 0 0 0 .5-.3h.2v.2c0 .2 0 .4.2.5a.6.6 0 0 0 .5-.3l.5-.4v.2a2.7 2.7 0 0 1-.6.7l-.6.2c-.1-.1-.3-.2-.3-.4h-.5a1 1 0 0 1-.8-.5.7.7 0 0 1-.6.3.9.9 0 0 1-.8-.4.6.6 0 0 1-.6.3 1.2 1.2 0 0 1-.8-.4.8.8 0 0 1-.7.4.9.9 0 0 1-.7-.3.7.7 0 0 1-.7.4.7.7 0 0 1-.6-.3 1 1 0 0 1-.8.5h-.5c0 .2-.2.3-.4.4l-.5-.2a2.7 2.7 0 0 1-.6-.7v-.2a1.2 1.2 0 0 0 .4.4c.3.3.5.3.5.3a.5.5 0 0 0 .3-.5v-.2l.2.2a.6.6 0 0 0 .5.3.6.6 0 0 0 .6-.6.4.4 0 0 0-.1-.3v-.3l.2.2h0a.7.7 0 0 0 .7.7.6.6 0 0 0 .6-.6h0a.5.5 0 0 0 .6.4.5.5 0 0 0 .6-.6v-.2z"/><path id="mcd-N" d="M96.2 56.2l.4.4-.5.6-.1.1-.1-.1-.2-.8.5-.2z"/><path id="mcd-O" d="M97 57.6l-.3.2-.7-.4v-.1l.1-.1.8-.1.1.5z"/><path id="mcd-P" d="M94.9 57.1l.2.4.8-.1.1-.1-.1-.1-.7-.4-.3.3z"/><path id="mcd-Q" d="M101.9 124a3.8 3.8 0 0 1-2.2-.6 4.8 4.8 0 0 0-2.2-.5 5.1 5.1 0 0 0-2.2.5 5.1 5.1 0 0 1-2.2.5 4.5 4.5 0 0 1-2.2-.5 5.1 5.1 0 0 0-2.2-.5 4.8 4.8 0 0 0-2.2.5 4.8 4.8 0 0 1-2.2.5v1.5a4.8 4.8 0 0 0 2.2-.5 3.8 3.8 0 0 1 2.2-.5 5.1 5.1 0 0 1 2.2.5 4.5 4.5 0 0 0 2.2.5 5.1 5.1 0 0 0 2.2-.5 5.1 5.1 0 0 1 2.2-.5 4.8 4.8 0 0 1 2.2.5 4.8 4.8 0 0 0 2.2.5z"/><path id="mcd-R" d="M101.9 125.4a4.8 4.8 0 0 1-2.2-.5 4.8 4.8 0 0 0-2.2-.5 5.1 5.1 0 0 0-2.2.5 5.1 5.1 0 0 1-2.2.5 4.5 4.5 0 0 1-2.2-.5 5.1 5.1 0 0 0-2.2-.5 4.8 4.8 0 0 0-2.2.5 4.8 4.8 0 0 1-2.2.5v1.5a3.8 3.8 0 0 0 2.2-.6 4.8 4.8 0 0 1 2.2-.4 7.2 7.2 0 0 1 2.2.4 3.6 3.6 0 0 0 2.2.6 5.1 5.1 0 0 0 2.2-.5 5.1 5.1 0 0 1 2.2-.5 4.8 4.8 0 0 1 2.2.5 4.8 4.8 0 0 0 2.2.5z"/><path id="mcd-S" d="M101.9 126.9a3.8 3.8 0 0 1-2.2-.6 4.8 4.8 0 0 0-2.2-.5 5.1 5.1 0 0 0-2.2.5 4 4 0 0 1-2.2.5 4.5 4.5 0 0 1-2.2-.5 5.1 5.1 0 0 0-2.2-.5 4.8 4.8 0 0 0-2.2.5 4.8 4.8 0 0 1-2.2.5v1.5a3.8 3.8 0 0 0 2.2-.6 4.8 4.8 0 0 1 2.2-.5 5.1 5.1 0 0 1 2.2.5 4.5 4.5 0 0 0 2.2.5 4 4 0 0 0 2.2-.5 5.1 5.1 0 0 1 2.2-.5 4.8 4.8 0 0 1 2.2.5 3.8 3.8 0 0 0 2.2.5z"/><path id="mcd-T" d="M101.9 129.8a4.5 4.5 0 0 1-2.2-.5 4 4 0 0 0-2.2-.6 3.6 3.6 0 0 0-2.2.6 5.2 5.2 0 0 1-2.3.5 5.1 5.1 0 0 1-2.2-.6 4.3 4.3 0 0 0-2.1-.5 3.8 3.8 0 0 0-2.2.6 5.2 5.2 0 0 1-2.3.5v-1.4a5.2 5.2 0 0 0 2.3-.6 4.8 4.8 0 0 1 2.2-.5 4.3 4.3 0 0 1 2.1.5 5.1 5.1 0 0 0 2.2.5 5.2 5.2 0 0 0 2.3-.5 4.5 4.5 0 0 1 2.2-.5 5.1 5.1 0 0 1 2.2.5 4.5 4.5 0 0 0 2.2.5z"/><path id="mcd-U" d="M101.9 131.2a4.5 4.5 0 0 1-2.2-.5 5.1 5.1 0 0 0-2.2-.5 4.5 4.5 0 0 0-2.2.5 5.2 5.2 0 0 1-2.3.5 4 4 0 0 1-2.2-.6 6 6 0 0 0-2.1-.4 4.8 4.8 0 0 0-2.2.4 4.1 4.1 0 0 1-2.3.6v-1.4a5.2 5.2 0 0 0 2.3-.6 4.8 4.8 0 0 1 2.2-.5 4.3 4.3 0 0 1 2.1.5 5.1 5.1 0 0 0 2.2.5 5.2 5.2 0 0 0 2.3-.5 4.5 4.5 0 0 1 2.2-.5 5.1 5.1 0 0 1 2.2.5 4.5 4.5 0 0 0 2.2.5z"/><path id="mcd-V" d="M107.1 86.6a29.8 29.8 0 0 0-9.4-1.7 22.8 22.8 0 0 0-4.4.5c-5.5.9-9.8 3.2-9.4 5.1v.2l-2.1-5.1c-.4-2.1 4.3-4.7 10.4-5.8a26 26 0 0 1 5.4-.4 27.7 27.7 0 0 1 9.4 1.3z"/><path id="mcd-W" d="M82.7 101.9c-.3-.8 2.2-2.4 5.7-3.7 1.7-.6 3-1.3 4.6-2 5-2.3 8.6-5 8.1-5.9h0a46.6 46.6 0 0 1 .6 4.9c.5.9-2.9 3.5-7.4 5.7a49.6 49.6 0 0 1-5.9 2.5c-2.6 1-5.1 2.7-4.9 3.4z"/><path id="mcd-X" d="M173.8 60.1l-.3-.7a16.9 16.9 0 0 1 4.3-.5 17.8 17.8 0 0 1 4.4.5 2.8 2.8 0 0 1-.3.6l-.2.5a13.7 13.7 0 0 0-3.9-.5 12.7 12.7 0 0 0-3.9.5 1 1 0 0 1-.1-.4z"/><path id="mcd-Y" d="M182.3 58.8l-.4-.3a.9.9 0 0 1-.7.1c-.4-.1-.5-.6-.5-.6a1.9 1.9 0 0 1-.9.4.7.7 0 0 1-.6-.4 1.5 1.5 0 0 1-.7.3c-.4 0-.7-.5-.7-.5s-.4.5-.7.5a1.1 1.1 0 0 1-.7-.3s-.1.3-.6.4a1 1 0 0 1-.8-.3 1 1 0 0 1-.6.5c-.3.1-.7-.2-.7-.2a.5.5 0 0 1-.1.3c0 .1-.2.1-.2.1v.3a13.4 13.4 0 0 1 4.3-.5 16.9 16.9 0 0 1 4.3.5z"/><path id="mcd-Z" d="M177.8 57.2h.2v.2a.6.6 0 0 0 .6.6.7.7 0 0 0 .6-.4h0a.7.7 0 0 0 .7.5.6.6 0 0 0 .6-.6h0l.2-.2v.2c0 .1-.1.2-.1.3a.6.6 0 0 0 .6.6.6.6 0 0 0 .6-.3h.1v.2c0 .2 0 .4.3.5s.2 0 .5-.3a1.2 1.2 0 0 0 .4-.4v.2a1.8 1.8 0 0 1-.5.7l-.5.2-.4-.4h-.5a1 1 0 0 1-.8-.5.7.7 0 0 1-.6.3.7.7 0 0 1-.7-.4.9.9 0 0 1-.7.3.8.8 0 0 1-.7-.4 1.2 1.2 0 0 1-.8.4.7.7 0 0 1-.6-.3.8.8 0 0 1-.7.4.9.9 0 0 1-.7-.3.8.8 0 0 1-.8.5h-.4a.8.8 0 0 1-.4.4l-.5-.2a2.7 2.7 0 0 1-.6-.7v-.2l.5.4a.6.6 0 0 0 .5.3.5.5 0 0 0 .3-.5h0a.9.9 0 0 0 .5.3.6.6 0 0 0 .6-.6.4.4 0 0 0-.1-.3v-.3l.2.2h0a.7.7 0 0 0 .6.7.7.7 0 0 0 .7-.6h0a.5.5 0 0 0 .6.4.5.5 0 0 0 .6-.6v-.2z"/><path id="mcd-a" d="M177.8 59.6h-.5a.2.2 0 0 1-.2-.2c0-.1.1-.1.2-.1h1.1c.1 0 .2 0 .2.1a.2.2 0 0 1-.2.2z"/><path id="mcd-b" d="M169 124a3.8 3.8 0 0 0 2.2-.6 4.8 4.8 0 0 1 2.2-.5 4.5 4.5 0 0 1 2.2.5 5.2 5.2 0 0 0 2.3.5 4.8 4.8 0 0 0 2.2-.5 4.6 4.6 0 0 1 2.1-.5 4.5 4.5 0 0 1 2.2.5 5.2 5.2 0 0 0 2.3.5v1.5a5.2 5.2 0 0 1-2.3-.5 3.6 3.6 0 0 0-2.2-.5 4.6 4.6 0 0 0-2.1.5 5.1 5.1 0 0 1-2.2.5 5.2 5.2 0 0 1-2.3-.5 4.5 4.5 0 0 0-2.2-.5 5.1 5.1 0 0 0-2.2.5 4.8 4.8 0 0 1-2.2.5z"/><path id="mcd-c" d="M169 125.4a4.8 4.8 0 0 0 2.2-.5 4.8 4.8 0 0 1 2.2-.5 4.5 4.5 0 0 1 2.2.5 5.2 5.2 0 0 0 2.3.5 4.8 4.8 0 0 0 2.2-.5 4.6 4.6 0 0 1 2.1-.5 4.5 4.5 0 0 1 2.2.5 5.2 5.2 0 0 0 2.3.5v1.5a4.1 4.1 0 0 1-2.3-.6 4.6 4.6 0 0 0-2.2-.4 6.5 6.5 0 0 0-2.1.4 4 4 0 0 1-2.2.6 5.2 5.2 0 0 1-2.3-.5 4.5 4.5 0 0 0-2.2-.5 5.1 5.1 0 0 0-2.2.5 4.8 4.8 0 0 1-2.2.5z"/><path id="mcd-d" d="M169 126.9a3.8 3.8 0 0 0 2.2-.6 4.8 4.8 0 0 1 2.2-.5 4.5 4.5 0 0 1 2.2.5 4.1 4.1 0 0 0 2.3.5 4.8 4.8 0 0 0 2.2-.5 4.6 4.6 0 0 1 2.1-.5 4.5 4.5 0 0 1 2.2.5 5.2 5.2 0 0 0 2.3.5v1.5a4.1 4.1 0 0 1-2.3-.6 4.5 4.5 0 0 0-2.2-.5 4.6 4.6 0 0 0-2.1.5 5.1 5.1 0 0 1-2.2.5 4.1 4.1 0 0 1-2.3-.5 4.5 4.5 0 0 0-2.2-.5 5.1 5.1 0 0 0-2.2.5 3.8 3.8 0 0 1-2.2.5z"/><path id="mcd-e" d="M169 129.8a4.8 4.8 0 0 0 2.2-.5 3.8 3.8 0 0 1 2.2-.6 3.6 3.6 0 0 1 2.2.6 5.2 5.2 0 0 0 2.3.5 4.8 4.8 0 0 0 2.2-.6 4.6 4.6 0 0 1 2.1-.5 3.6 3.6 0 0 1 2.2.6 5.2 5.2 0 0 0 2.3.5v-1.4a5.2 5.2 0 0 1-2.3-.6 4.5 4.5 0 0 0-2.2-.5 4.6 4.6 0 0 0-2.1.5 5.1 5.1 0 0 1-2.2.5 5.2 5.2 0 0 1-2.3-.5 4.5 4.5 0 0 0-2.2-.5 5.1 5.1 0 0 0-2.2.5 4.8 4.8 0 0 1-2.2.5z"/><path id="mcd-f" d="M169 131.2a4.8 4.8 0 0 0 2.2-.5 4.8 4.8 0 0 1 2.2-.5 4.5 4.5 0 0 1 2.2.5 5.2 5.2 0 0 0 2.3.5 3.8 3.8 0 0 0 2.2-.6 6.5 6.5 0 0 1 2.1-.4 4.6 4.6 0 0 1 2.2.4 4.1 4.1 0 0 0 2.3.6v-1.4a5.2 5.2 0 0 1-2.3-.6 4.5 4.5 0 0 0-2.2-.5 4.6 4.6 0 0 0-2.1.5 5.1 5.1 0 0 1-2.2.5 5.2 5.2 0 0 1-2.3-.5 4.5 4.5 0 0 0-2.2-.5 5.1 5.1 0 0 0-2.2.5 4.8 4.8 0 0 1-2.2.5z"/><path id="mcd-g" d="M163.8 86.6a28.7 28.7 0 0 1 9.4-1.7 23.7 23.7 0 0 1 4.4.5c5.6.9 9.7 3.2 9.4 5.1v.2l2.1-5.1c.4-2.1-4.3-4.7-10.4-5.8a26.9 26.9 0 0 0-5.5-.4 27.5 27.5 0 0 0-9.3 1.3z"/><path id="mcd-h" d="M188.2 101.9c.3-.8-2.2-2.4-5.8-3.7l-4.6-2c-4.9-2.3-8.5-5-8-5.9h0a46.6 46.6 0 0 0-.6 4.9c-.5.9 2.8 3.5 7.3 5.7a50.9 50.9 0 0 0 6 2.5c2.6 1 5.1 2.7 4.9 3.4z"/><path id="mcd-i" d="M129.9 53.6a.7.7 0 0 1 .6-.7.7.7 0 0 1 .7.7.7.7 0 0 1-.7.6.6.6 0 0 1-.6-.6"/><path id="mcd-j" d="M129.9 53.6a.7.7 0 0 1 .6-.7.7.7 0 0 1 .7.7.7.7 0 0 1-.7.6.6.6 0 0 1-.6-.6z"/><path id="mcd-k" d="M126 54.6h-1.3a.5.5 0 0 1-.7-.5c-.1-.4.1-.6.5-.7l1.4-.2h1.3a.5.5 0 0 1 .7.5c0 .4-.2.7-.5.7z"/><path id="mcd-l" d="M144.7 54.6h1.4c.3.1.6-.2.7-.5a.7.7 0 0 0-.6-.7l-1.3-.2h-1.4c-.4-.1-.6.2-.7.5s.2.7.5.7z"/><path id="mcd-m" d="M139.6 53.6a.7.7 0 0 1 .6-.7c.4 0 .6.3.6.7a.6.6 0 0 1-1.2 0"/><path id="mcd-n" d="M139.6 53.6a.7.7 0 0 1 .6-.7c.4 0 .6.3.6.7a.6.6 0 0 1-1.2 0z"/><path id="mcd-o" d="M121.3 40.4l.8.6 1.1-2a4.6 4.6 0 0 1-2.1-3.9v-.5c.1-2.6 3.1-4.8 6.9-4.8a9 9 0 0 1 5.1 1.5 4.1 4.1 0 0 1 .1-1.1 10.6 10.6 0 0 0-5.2-1.4c-4.3 0-7.8 2.7-7.9 5.8a.9.9 0 0 0-.1.5 5.7 5.7 0 0 0 1.9 4.2z"/><path id="mcd-p" d="M121.3 40.4a5.9 5.9 0 0 1-2.4-4.6 6 6 0 0 1 3.1-5 5.7 5.7 0 0 0-2 3.7v.6a5.5 5.5 0 0 0 1.9 4.2z"/><path id="mcd-q" d="M108.1 42.5a5.9 5.9 0 0 1-1.3-3.7 4.7 4.7 0 0 1 .5-2.4c1.2-2.6 5-4.5 9.5-4.5a13.4 13.4 0 0 1 3.5.4 2.4 2.4 0 0 0-.6.9 13.6 13.6 0 0 0-2.9-.3c-4.2 0-7.6 1.7-8.6 4a5.8 5.8 0 0 0-.4 1.9 4.5 4.5 0 0 0 1.6 3.5l-1.5 2.6-.8-.7z"/><path id="mcd-r" d="M149.3 40.4l-.8.6-1.1-2a4.6 4.6 0 0 0 2.1-3.9v-.5c-.1-2.6-3.2-4.8-7-4.8a9 9 0 0 0-5 1.5c0-.4-.1-.7-.1-1.1a10.5 10.5 0 0 1 5.1-1.4c4.4 0 7.8 2.7 8 5.8 0 .2.1.3.1.5a5.7 5.7 0 0 1-1.9 4.2z"/><path id="mcd-s" d="M149.3 40.4a5.9 5.9 0 0 0 2.4-4.6 6.2 6.2 0 0 0-3.2-5 5.3 5.3 0 0 1 2 3.7c0 .2.1.4.1.6a5.9 5.9 0 0 1-1.9 4.2z"/><path id="mcd-t" d="M162.5 42.5a5.9 5.9 0 0 0 1.3-3.7 6 6 0 0 0-.5-2.4c-1.2-2.6-5-4.5-9.5-4.5a13.4 13.4 0 0 0-3.5.4 2.4 2.4 0 0 1 .6.9 13.6 13.6 0 0 1 2.9-.3c4.1 0 7.6 1.7 8.6 4a5.8 5.8 0 0 1 .4 1.9 4.5 4.5 0 0 1-1.6 3.5l1.5 2.6.8-.7z"/><path id="mcd-u" d="M135.4 45.4h.7a3.8 3.8 0 0 0-.1 1 2.8 2.8 0 0 0 5.4.9s.3-1 .4-1 .1 1.1.1 1.1a2.7 2.7 0 0 0 2.8 2.3 2.8 2.8 0 0 0 2.8-2.7c0-.2 0-.3-.1-.4l.9-.9.5 1.2a2.4 2.4 0 0 0-.3 1.2 2.6 2.6 0 0 0 2.7 2.6 2.7 2.7 0 0 0 2.2-1.1l.6-.8v.9c0 .9.4 1.8 1.2 1.9a3.4 3.4 0 0 0 2.3-1 15.1 15.1 0 0 0 2-2l.2 1.1a8.7 8.7 0 0 1-2.3 2.5 4 4 0 0 1-2.4.7 2.4 2.4 0 0 1-1.7-1.7 3.6 3.6 0 0 1-2 .6 3.8 3.8 0 0 1-3.6-2.3 4 4 0 0 1-3 1.3 4 4 0 0 1-3.1-1.5 4.1 4.1 0 0 1-2.8 1.1 4 4 0 0 1-3.4-1.8 3.9 3.9 0 0 1-3.4 1.8 4.3 4.3 0 0 1-2.8-1.1 4 4 0 0 1-3.1 1.5 4.2 4.2 0 0 1-3-1.3 3.8 3.8 0 0 1-3.6 2.3 3.6 3.6 0 0 1-2-.6 2.4 2.4 0 0 1-1.7 1.7 4 4 0 0 1-2.4-.7 8.7 8.7 0 0 1-2.3-2.5l.2-1.1a15.1 15.1 0 0 0 2 2 3.4 3.4 0 0 0 2.3 1c.8-.1 1.2-1 1.2-1.9v-.9l.6.8a2.5 2.5 0 0 0 2.2 1.1 2.6 2.6 0 0 0 2.6-2.6 2.2 2.2 0 0 0-.2-1.2l.5-1.2.9.9c-.1.1-.1.2-.1.4a2.8 2.8 0 0 0 2.8 2.7 2.7 2.7 0 0 0 2.8-2.3s0-1.1.1-1.1.4 1 .4 1a2.8 2.8 0 0 0 2.7 1.9 2.8 2.8 0 0 0 2.8-2.8 4.4 4.4 0 0 0-.2-1z"/><path id="mcd-v" d="M138.3 25.5v1.4h-5.7v-1.4h2.1v-3.9h-1.4v-1.4h1.4v-1.4h1.3v1.4h1.4v1.4H136v3.9h2.3z"/><path id="mcd-w" d="M137.4 25.5v1.4h-4.1v-1.4h1.4v-3.9h-1.4v-1.4h1.4v-1.4h1.3v1.4h1.4v1.4H136v3.9h1.4z"/><path id="mcd-x" d="M163.7 44.7a.6.6 0 0 1 .6-.6.7.7 0 0 1 .7.6.7.7 0 0 1-.7.7.7.7 0 0 1-.6-.7"/><path id="mcd-y" d="M163.7 44.7a.6.6 0 0 1 .6-.6.7.7 0 0 1 .7.6.7.7 0 0 1-.7.7.7.7 0 0 1-.6-.7z"/><path id="mcd-z" d="M164.7 37.4a.7.7 0 0 1 .7-.7.7.7 0 0 1 .6.7.6.6 0 0 1-.6.6.7.7 0 0 1-.7-.6"/><path id="mcd-AA" d="M164.7 37.4a.7.7 0 0 1 .7-.7.7.7 0 0 1 .6.7.6.6 0 0 1-.6.6.7.7 0 0 1-.7-.6z"/><path id="mcd-AB" d="M151.4 30.8a.7.7 0 0 1 .7-.6.6.6 0 1 1 0 1.2c-.4 0-.7-.2-.7-.6"/><path id="mcd-AC" d="M151.4 30.8a.7.7 0 0 1 .7-.6.6.6 0 1 1 0 1.2c-.4 0-.7-.2-.7-.6z"/><path id="mcd-AD" d="M106.8 34.1a.7.7 0 0 1 .7-.6.6.6 0 0 1 .6.6.7.7 0 0 1-.6.7.7.7 0 0 1-.7-.7"/><path id="mcd-AE" d="M106.8 34.1a.7.7 0 0 1 .7-.6.6.6 0 0 1 .6.6.7.7 0 0 1-.6.7.7.7 0 0 1-.7-.7z"/><path id="mcd-AF" d="M129.3 89.6h-16.1v-4.2h2.3v-8.8h-1.1v-3.9h1.8v-2.8h-.8v-2h.7v.6h.8v-.6h.9v.6h.8v-.6h.7v2h-.8v2.8h1.6v-5.9h-.9v-2.2h.7v.5h.8v-.5h1.2v.5h.9v-.5h.7v2.2h-1.1v5.9h1.6v-2.8h-.8v-2h.7v.6h.8v-.6h.9v.6h.7v-.6h.8v2h-.8v2.8h1.9v3.9H127v8.8h2.3v4.2z"/><path id="mcd-AG" d="M154 65.2h-.2l-.2.2a.2.2 0 0 1-.4 0c-.1 0-.1-.1-.1-.2h-.3c-.2-.1-.2-.3-.1-.5h0v-.2h-.2c.028.11-.04.222-.15.25s-.222-.04-.25-.15v-.2a.1.1 0 0 1-.1.1c-.3.1-.4-.6-.4-.8h-.1a2 2 0 0 1 0 .8 3.8 3.8 0 0 1-.1.8 4.4 4.4 0 0 1 1.6.9 6 6 0 0 1 1.4 1.5l.6-.3h.8v-.2c-.2.1-.9.1-.9-.2a.1.1 0 0 1 .1-.1h-.2a.4.4 0 0 1 0-.5h-.6a.4.4 0 0 1-.1-.3h-.2c-.2-.1-.2-.3-.1-.5l.2-.2z"/></defs><path d="M53.4 0h282.8v159.35H53.4zm284.3 0H512v159.35H337.7z" fill="#ffce00"/><path d="M88.7 58.9h-.5l-.6-.6-.4-.3-.3-.5a2.2 2.2 0 0 1-.3-1.2 1.2 1.2 0 0 1 .8-.9l.9-.4.7-.2.7-.2.3-.2h4.9l.8.2 1.2.5a6.5 6.5 0 0 1 1.3.4c.4.1.5.4.7.6a3.6 3.6 0 0 1 .3.7v.6l-.3.5-.4.6-.4.4a1 1 0 0 1-.6.3 38.8 38.8 0 0 0-4.5-.5 29.1 29.1 0 0 0-4.3.5" class="mcd-I"/><path d="M88.7 58.9h-.5l-.6-.6-.4-.3-.3-.5a2.2 2.2 0 0 1-.3-1.2 1.2 1.2 0 0 1 .8-.9l.9-.4.7-.2.7-.2.3-.2h4.9l.8.2 1.2.5a6.5 6.5 0 0 1 1.3.4c.4.1.5.4.7.6a3.6 3.6 0 0 1 .3.7v.6l-.3.5-.4.6-.4.4a1 1 0 0 1-.6.3 38.8 38.8 0 0 0-4.5-.5 29.1 29.1 0 0 0-4.3.2z" class="mcd-B C D G"/><path d="M92.2 54.9c0-.8.4-1.4.8-1.4s.8.6.8 1.4-.3 1.5-.8 1.5-.8-.6-.8-1.5" class="mcd-F"/><path d="M92.2 54.9c0-.8.4-1.4.8-1.4s.8.6.8 1.4-.3 1.5-.8 1.5-.8-.6-.8-1.5z" class="mcd-B C D G"/><path d="M92.7 54.9c0-.7.1-1.3.3-1.3s.4.6.4 1.3-.2 1.4-.4 1.4-.3-.6-.3-1.4" class="mcd-F"/><path d="M92.7 54.9c0-.7.1-1.3.3-1.3s.4.6.4 1.3-.2 1.4-.4 1.4-.3-.6-.3-1.4z" class="mcd-B C D G"/><g class="mcd-F"><path d="M92.5 53.4a.6.6 0 0 1 .5-.6.6.6 0 0 1 .6.6.6.6 0 0 1-.6.5.5.5 0 0 1-.5-.5"/><path d="M93.4 53.1v.4h-.8v-.4h.3v-.7h-.4V52h.4v-.3h.3v.3h.4v.4h-.4v.7h.2z"/></g><path d="M93.4 53.1v.4h-.8v-.4h.3v-.7h-.4V52h.4v-.3h.3v.3h.4v.4h-.4v.7h.2z" class="mcd-B C D U"/><g class="mcd-Z F"><path d="M93.8 53.1v.4h-1.5v-.4h.6v-.7h-.4V52h.4v-.3h.3v.3h.4v.4h-.4v.7h.6z"/></g><g class="mcd-Z B C D U"><path d="M93.8 53.1v.4h-1.5v-.4h.6v-.7h-.4V52h.4v-.3h.3v.3h.4v.4h-.4v.7h.6z"/></g><path d="M93.2 52.9c.2 0 .3.2.3.5a.5.5 0 1 1-1 0c0-.3.1-.5.4-.5" class="mcd-B C D G"/><use href="#mcd-J" class="mcd-F"/><g class="mcd-B C D G"><use href="#mcd-J"/><path d="M97.7 54.8c-.5-.3-1.7.7-2.7 2.3m-6.6-2.3c.5-.3 1.7.7 2.7 2.3"/></g><use href="#mcd-K" class="mcd-F"/><use href="#mcd-K" class="mcd-B C D G"/><path d="M93 61.6a21.2 21.2 0 0 0 3.5-.4c.3-.1.6-.3.5-.5a.2.2 0 0 0-.2-.2 14.7 14.7 0 0 0-7.6 0 .2.2 0 0 0-.2.2c-.1.2.1.4.5.5a21.2 21.2 0 0 0 3.5.4" class="mcd-F"/><path d="M93 61.6a21.2 21.2 0 0 0 3.5-.4c.3-.1.6-.3.5-.5a.2.2 0 0 0-.2-.2 14.7 14.7 0 0 0-7.6 0 .2.2 0 0 0-.2.2c-.1.2.1.4.5.5a21.2 21.2 0 0 0 3.5.4z" class="mcd-B C D G"/><use href="#mcd-L" class="mcd-F"/><use href="#mcd-L" class="mcd-B C D G"/><use href="#mcd-M" class="mcd-F"/><use href="#mcd-M" class="mcd-B C D G"/><path d="M93 58.9a17.8 17.8 0 0 0-4.4.5h-.1a14.4 14.4 0 0 1 4.5-.6 13.3 13.3 0 0 1 4.4.6c.1 0 .2.1.1.1s-.1.2-.2.1a15.8 15.8 0 0 0-4.3-.5" class="mcd-F"/><path d="M93 58.9a17.8 17.8 0 0 0-4.4.5h-.1a14.4 14.4 0 0 1 4.5-.6 13.3 13.3 0 0 1 4.4.6c.1 0 .2.1.1.1s-.1.2-.2.1a15.8 15.8 0 0 0-4.3-.7z" class="mcd-B C D G"/><path d="M91.4 59.5a.2.2 0 0 1 .2-.2l.3.2a.3.3 0 0 1-.3.3c-.1 0-.2-.1-.2-.3" class="mcd-H"/><path d="M91.4 59.5a.2.2 0 0 1 .2-.2l.3.2a.3.3 0 0 1-.3.3c-.1 0-.2-.1-.2-.3z" class="mcd-B C D G"/><path d="M93 59.6h-.5l-.2-.2c0-.1.1-.1.2-.1h1.1c.1 0 .2 0 .2.1a.2.2 0 0 1-.2.2z" class="mcd-I"/><path d="M93 59.6h-.5l-.2-.2c0-.1.1-.1.2-.1h1.1c.1 0 .2 0 .2.1a.2.2 0 0 1-.2.2z" class="mcd-B C D G"/><path d="M90.3 59.8h-.4a.2.2 0 0 1-.2-.1c0-.1 0-.2.1-.2h.8c.1-.1.2 0 .3.1s-.1.2-.2.3z" class="mcd-N"/><path d="M90.3 59.8h-.4a.2.2 0 0 1-.2-.1c0-.1 0-.2.1-.2h.8c.1-.1.2 0 .3.1s-.1.2-.2.3z" class="mcd-B C D G"/><path d="M88.7 60.1l.2-.3.4.1-.3.3-.3-.1z" class="mcd-I"/><path d="M88.7 60.1l.2-.3.4.1-.3.3-.3-.1z" class="mcd-B C D G"/><path d="M94.2 59.5a.2.2 0 0 1 .2-.2c.2 0 .3.1.3.2a.3.3 0 0 1-.3.3c-.1 0-.2-.1-.2-.3" class="mcd-H"/><path d="M94.2 59.5a.2.2 0 0 1 .2-.2c.2 0 .3.1.3.2a.3.3 0 0 1-.3.3c-.1 0-.2-.1-.2-.3z" class="mcd-B C D G"/><path d="M95.8 59.8h.4a.2.2 0 0 0 0-.4h-.8c-.1-.1-.2 0-.2.1s.1.2.2.3z" class="mcd-N"/><path d="M95.8 59.8h.4a.2.2 0 0 0 0-.4h-.8c-.1-.1-.2 0-.2.1s.1.2.2.3z" class="mcd-B C D G"/><path d="M97.3 60.1l-.1-.3h-.4l.2.4.3-.1z" class="mcd-I"/><path d="M97.3 60.1l-.1-.3h-.4l.2.4.3-.1z" class="mcd-B C D G"/><path d="M93 61.2a18.6 18.6 0 0 1-3.6-.3 16.4 16.4 0 0 1 7.2 0 17.9 17.9 0 0 1-3.6.3" class="mcd-I"/><g class="mcd-R B C D G"><path d="M94.2 59.6v2.3"/></g><g class="mcd-R B C D W"><path d="M93.6 59.6v2.3"/></g><g class="mcd-R B C D E"><path d="M91.8 59.7v2.2m.4-2.2v2.2m.4-2.2v2.2m.5-2.2v2.2"/></g><g class="mcd-R B C D X"><path d="M91.5 59.6v2.3"/></g><g class="mcd-R B C D E"><path d="M90.8 59.7v2.2m.3-2.2v2.2"/></g><g class="mcd-R B C D"><path stroke-width=".23" d="M90.4 59.6v2.3"/></g><g class="mcd-R B C D Y"><path d="M90 59.6v2.3"/></g><path d="M93 61.2a18.6 18.6 0 0 1-3.6-.3 16.4 16.4 0 0 1 7.2 0 17.9 17.9 0 0 1-3.6.3z" class="mcd-B C D G"/><path d="M97.4 58.1a.4.4 0 0 0-.1-.3l-.2.2c0 .1 0 .2.1.2h.2" class="mcd-F"/><path d="M97.4 58.1a.4.4 0 0 0-.1-.3l-.2.2c0 .1 0 .2.1.2z" class="mcd-B C D G"/><path d="M94.6 57.5c0-.1 0-.2-.1-.2l-.2.2a.2.2 0 0 0 .2.2.3.3 0 0 0 .1-.2" class="mcd-F"/><path d="M94.6 57.5c0-.1 0-.2-.1-.2l-.2.2a.2.2 0 0 0 .2.2.3.3 0 0 0 .1-.2z" class="mcd-B C D G"/><path d="M91.4 57.5a.2.2 0 0 1 .2-.2v.2c.1.1 0 .2-.1.2s-.1-.1-.2-.2" class="mcd-F"/><path d="M91.4 57.5a.2.2 0 0 1 .2-.2v.2c.1.1 0 .2-.1.2s0-.1-.1-.2z" class="mcd-B C D G"/><path d="M88.7 58.1c-.1-.1 0-.2 0-.3l.2.2a.1.1 0 0 1 0 .2c-.1 0-.2 0-.2-.1" class="mcd-F"/><path d="M88.7 58.1c-.1-.1 0-.2 0-.3l.2.2a.1.1 0 0 1 0 .2c-.1 0-.2 0-.2-.1z" class="mcd-B C D G"/><path d="M93 55.8l-.4.3.3.9h.1.2l.3-.9-.5-.3z" class="mcd-F"/><path d="M93 55.8l-.4.3.3.9h.1.2l.3-.9-.5-.3z" class="mcd-B C D G"/><path d="M92 57l.2.4.8-.3V57v-.1l-.8-.2-.2.3z" class="mcd-F"/><path d="M92 57l.2.4.8-.3V57v-.1l-.8-.2-.2.3z" class="mcd-B C D G"/><path d="M94.1 57l-.2.4-.8-.3V57v-.1l.8-.2.2.3z" class="mcd-F"/><path d="M94.1 57l-.2.4-.8-.3V57v-.1l.8-.2.2.3z" class="mcd-B C D G"/><path d="M89.9 56.2l-.4.4.5.6.1.1.1-.1.2-.8-.5-.2z" class="mcd-F"/><path d="M89.9 56.2l-.4.4.5.6.1.1.1-.1.2-.8-.5-.2z" class="mcd-B C D G"/><path d="M89.1 57.6l.3.2.6-.4.1-.1-.1-.1-.8-.1-.1.5z" class="mcd-F"/><path d="M89.1 57.6l.3.2.6-.4.1-.1-.1-.1-.8-.1-.1.5z" class="mcd-B C D G"/><path d="M91.2 57.1l-.2.4-.8-.1-.1-.1.1-.1.7-.4.3.3z" class="mcd-F"/><path d="M91.2 57.1l-.2.4-.8-.1-.1-.1.1-.1.7-.4.3.3z" class="mcd-B C D G"/><path d="M88.3 57.6l-.1.5h-.8-.1l.1-.2.5-.5.4.2z" class="mcd-F"/><path d="M88.3 57.6l-.1.5h-.8-.1l.1-.2.5-.5.4.2z" class="mcd-B C D G"/><path d="M89.8 57.3a.3.3 0 0 1 .6 0 .3.3 0 0 1-.6 0" class="mcd-F"/><path d="M89.8 57.3a.3.3 0 0 1 .6 0 .3.3 0 0 1-.6 0z" class="mcd-B C D G"/><use href="#mcd-N" class="mcd-F"/><use href="#mcd-N" class="mcd-B C D G"/><use href="#mcd-O" class="mcd-F"/><use href="#mcd-O" class="mcd-B C D G"/><use href="#mcd-P" class="mcd-F"/><use href="#mcd-P" class="mcd-B C D G"/><path d="M97.7 57.6v.5h.8.2l-.1-.2-.6-.5-.3.2z" class="mcd-F"/><path d="M97.7 57.6v.5h.8.2l-.1-.2-.6-.5-.3.2z" class="mcd-B C D G"/><path d="M92.8 57.1c0-.2.1-.3.2-.3a.3.3 0 0 1 0 .6c-.1 0-.2-.2-.2-.3" class="mcd-F"/><path d="M92.8 57.1c0-.2.1-.3.2-.3a.3.3 0 0 1 0 .6c-.1 0-.2-.2-.2-.3z" class="mcd-B C D G"/><path d="M95.7 57.3a.3.3 0 0 1 .3-.3.5.5 0 0 1 .3.3.3.3 0 0 1-.6 0" class="mcd-F"/><path d="M95.7 57.3a.3.3 0 0 1 .3-.3.5.5 0 0 1 .3.3.3.3 0 0 1-.6 0z" class="mcd-B C D G"/><path d="M87.2 58.1l-.4-.4-.3-.2h.7a1.3 1.3 0 0 1 .1.5h-.1" class="mcd-F"/><path d="M87.2 58.1l-.4-.4-.3-.2h.7a1.3 1.3 0 0 1 .1.5z" class="mcd-B C D G"/><path d="M87.2 58h.3a.4.4 0 0 1 .1.3.2.2 0 0 1-.3 0c-.1-.1-.2-.2-.1-.3" class="mcd-F"/><path d="M87.2 58h.3a.4.4 0 0 1 .1.3.2.2 0 0 1-.3 0c-.1-.1-.2-.2-.1-.3z" class="mcd-B C D G"/><path d="M98.7 58.1l.4-.4.4-.2h-.8a.8.8 0 0 0 0 .5h0" class="mcd-F"/><path d="M98.7 58.1l.4-.4.4-.2h-.8a.8.8 0 0 0 0 .5z" class="mcd-B C D G"/><path d="M98.7 58h-.3a.2.2 0 0 0 0 .3c0 .1.2.1.3 0a.2.2 0 0 0 0-.3" class="mcd-F"/><path d="M98.7 58h-.3a.2.2 0 0 0 0 .3c0 .1.2.1.3 0a.2.2 0 0 0 0-.3z" class="mcd-B C D G"/><path d="M86.7 61.4h12.7v3.52H86.7z" class="mcd-F"/><path d="M86.7 61.4h12.7v3.52H86.7z" class="mcd-B C D E"/><path d="M88 67.3h10a.9.9 0 0 1-.6-.8 1 1 0 0 1 .6-.8H88a.8.8 0 0 1 .6.8.7.7 0 0 1-.6.7" class="mcd-F"/><path d="M88 67.3h10a.9.9 0 0 1-.6-.8 1 1 0 0 1 .6-.8H88a.8.8 0 0 1 .6.8.7.7 0 0 1-.6.8z" class="mcd-B C D E"/><path d="M88.3 67.3h9.5c.3 0 .6.2.6.4a.6.6 0 0 1-.6.5h-9.5a.6.6 0 0 1-.6-.5c0-.2.3-.4.6-.4" class="mcd-F"/><path d="M88.3 67.3h9.5c.3 0 .6.2.6.4a.6.6 0 0 1-.6.5h-9.5a.6.6 0 0 1-.6-.5c0-.2.3-.4.6-.4z" class="mcd-B C D E"/><path d="M88.3 65h9.5c.3 0 .6.1.6.4s-.3.4-.6.4h-9.5c-.3 0-.6-.2-.6-.4s.3-.4.6-.4" class="mcd-F"/><path d="M88.3 65h9.5c.3 0 .6.1.6.4s-.3.4-.6.4h-9.5c-.3 0-.6-.2-.6-.4s.3-.4.6-.4z" class="mcd-B C D E"/><use href="#mcd-Q" class="mcd-M"/><use href="#mcd-Q" class="mcd-B C D E"/><use href="#mcd-R" class="mcd-Q"/><use href="#mcd-R" class="mcd-B C D E"/><use href="#mcd-S" class="mcd-M"/><use href="#mcd-S" class="mcd-B C D E"/><use href="#mcd-T" class="mcd-Q"/><use href="#mcd-T" class="mcd-B C D E"/><use href="#mcd-U" class="mcd-M"/><use href="#mcd-U" class="mcd-B C D E"/><path d="M88 118a.8.8 0 0 1 .1.4 1.6 1.6 0 0 1-1.6 1.6h13.1a1.6 1.6 0 0 1-1.6-1.6v-.4c0 .1-.1.1-.2.1H88" class="mcd-F"/><path d="M88 118a.8.8 0 0 1 .1.4 1.6 1.6 0 0 1-1.6 1.6h13.1a1.6 1.6 0 0 1-1.6-1.6v-.4c0 .1-.1.1-.2.1H88z" class="mcd-B C D E"/><path d="M88.3 117.1h9.5a.5.5 0 1 1 0 1h-9.5a.5.5 0 1 1 0-1" class="mcd-F"/><path d="M88.3 117.1h9.5a.5.5 0 1 1 0 1h-9.5a.5.5 0 1 1 0-1z" class="mcd-B C D E"/><path d="M86.6 119.9h13v3.48h-13z" class="mcd-F"/><path d="M86.6 119.9h13v3.48h-13z" class="mcd-B C D E"/><path d="M85.5 104.7c-1.3.8-2.1 1.6-2 2s.5.6 1.1 1 1.5 1.9 1 2.5a3.5 3.5 0 0 0-.1-5.5" class="mcd-I"/><path d="M85.5 104.7c-1.3.8-2.1 1.6-2 2s.5.6 1.1 1 1.5 1.9 1 2.5a3.5 3.5 0 0 0-.1-5.5z" class="mcd-B C D E"/><path d="M88.4 68.7h9.2v47.8h-9.2z" class="mcd-Q"/><g clip-path="url(#mcd-C)" class="mcd-B C D E"><path d="M96.1 67.6v50.3m-1-50.3v50.3"/></g><path d="M88.4 68.7h9.2v47.8h-9.2z" class="mcd-B C D E"/><use href="#mcd-V" class="mcd-I"/><use href="#mcd-V" class="mcd-B C D E"/><path d="M88.4 92.6c-2.6-.2-4.3-.9-4.5-2s.7-1.9 2.2-2.8l2.3.2z" class="mcd-I"/><path d="M88.4 92.6c-2.6-.2-4.3-.9-4.5-2s.7-1.9 2.2-2.8l2.3.2z" class="mcd-B C D E"/><path d="M97.7 89a6.9 6.9 0 0 1 3.4 1.2h0c.3.6-1.1 1.9-3.4 3.4z" class="mcd-I"/><path d="M97.7 89a6.9 6.9 0 0 1 3.4 1.2h0c.3.6-1.1 1.9-3.4 3.4z" class="mcd-B C D E"/><use href="#mcd-W" class="mcd-I"/><use href="#mcd-W" class="mcd-B C D E"/><path d="M87.1 82.6h.4a.5.5 0 0 1 .8.4.8.8 0 0 1-.3 1l-.4.2zm.7 1.8c1.1-.5 1.8-1 1.5-1.9s-.9-.7-1.7-.4l-1.6.6 1.4 3.6.5-.2.5-.2zm3.6-3.3h-1l.8 3.8 2.5-.5a.4.4 0 0 1-.1-.3v-.2l-1.4.4zm5 3.2a41.6 41.6 0 0 1 1.6-4h-.7l-1 2.9-1.4-2.8h-1.2l2.1 3.8h.6m5.2-2.7l.2-.6-1-.4a1.4 1.4 0 0 0-1.7 1.1c-.1 1.3 1.9 1.2 1.8 2.1s-.4.5-.8.5a.9.9 0 0 1-.9-.7h-.1l-.3.7a3.5 3.5 0 0 0 1.1.3c1 .1 1.8-.3 1.9-1s-1.9-1.4-1.9-2.2.3-.5.8-.4a.9.9 0 0 1 .8.5z" class="mcd-F"/><path d="M177.8 57.8s-.4.5-.7.5-.7-.2-.7-.2a1 1 0 0 1-.6.3c-.3.1-.8-.4-.8-.4s-.3.5-.6.6a.8.8 0 0 1-.6-.1 1.2 1.2 0 0 1-.4.4h-.3l-.3-.2-.4-.4-.4-.2a2.1 2.1 0 0 0-.2-.6v-.4c0-.4.5-.8 1.3-1h1.2a2.8 2.8 0 0 1 1.8-.5 2.7 2.7 0 0 1 1.7.4 2.9 2.9 0 0 1 1.7-.4 2.8 2.8 0 0 1 1.8.5h1.2c.8.2 1.4.6 1.3 1v.4a2.1 2.1 0 0 0-.2.6l-.4.2-.4.4-.3.2h-.3l-.4-.4a.8.8 0 0 1-.6.1c-.3-.1-.6-.6-.6-.6s-.5.5-.8.4a1.4 1.4 0 0 1-.6-.3s-.4.3-.7.2a2.5 2.5 0 0 1-.7-.5" class="mcd-I"/><path d="M177.8 57.8s-.4.5-.7.5-.7-.2-.7-.2a1 1 0 0 1-.6.3c-.3.1-.8-.4-.8-.4s-.3.5-.6.6a.8.8 0 0 1-.6-.1 1.2 1.2 0 0 1-.4.4h-.3l-.3-.2-.4-.4-.4-.2a2.1 2.1 0 0 0-.2-.6v-.4c0-.4.5-.8 1.3-1h1.2a2.8 2.8 0 0 1 1.8-.5 2.7 2.7 0 0 1 1.7.4 2.9 2.9 0 0 1 1.7-.4 2.8 2.8 0 0 1 1.8.5h1.2c.8.2 1.4.6 1.3 1v.4a2.1 2.1 0 0 0-.2.6l-.4.2-.4.4-.3.2h-.3l-.4-.4a.8.8 0 0 1-.6.1c-.3-.1-.6-.6-.6-.6s-.5.5-.8.4a1.4 1.4 0 0 1-.6-.3s-.4.3-.7.2a2.5 2.5 0 0 1-.7-.5z" stroke-width=".12" class="mcd-B C D"/><path d="M177 55.3c0-.7.4-1.2.8-1.2s.8.5.8 1.2-.4 1.1-.8 1.1-.8-.5-.8-1.1" class="mcd-F"/><path d="M177 55.3c0-.7.4-1.2.8-1.2s.8.5.8 1.2-.4 1.1-.8 1.1-.8-.5-.8-1.1z" class="mcd-B C D G"/><path d="M177.5 55.3c0-.6.1-1.1.3-1.1s.4.5.4 1.1-.2 1-.4 1-.3-.4-.3-1" class="mcd-F"/><path d="M177.5 55.3c0-.6.1-1.1.3-1.1s.4.5.4 1.1-.2 1-.4 1-.3-.4-.3-1z" class="mcd-B C D G"/><use href="#mcd-X" class="mcd-F"/><use href="#mcd-X" class="mcd-B C D G"/><path d="M177.8 61.6a21.2 21.2 0 0 0 3.5-.4c.3-.1.6-.3.5-.5a.2.2 0 0 0-.2-.2 14.7 14.7 0 0 0-7.6 0l-.3.2c0 .2.2.4.6.5a21.2 21.2 0 0 0 3.5.4" class="mcd-F"/><path d="M177.8 61.6a21.2 21.2 0 0 0 3.5-.4c.3-.1.6-.3.5-.5a.2.2 0 0 0-.2-.2 14.7 14.7 0 0 0-7.6 0l-.3.2c0 .2.2.4.6.5a21.2 21.2 0 0 0 3.5.4z" class="mcd-B C D G"/><path d="M181.2 55.8c0-.2.1-.3.2-.3a.3.3 0 0 1 .3.3c0 .1-.2.2-.3.2s-.2-.1-.2-.2" class="mcd-H"/><g class="mcd-C D"><g class="mcd-T"><path d="M181.2 55.8c0-.2.1-.3.2-.3a.3.3 0 0 1 .3.3c0 .1-.2.2-.3.2s-.2-.1-.2-.2z" class="mcd-B"/><path d="M178.8 54.1c0-.2.1-.3.2-.3a.5.5 0 0 1 .3.3c0 .1-.2.2-.3.2a.2.2 0 0 1-.2-.2zm.8 0c0-.2.1-.3.2-.3a.3.3 0 0 1 .3.3c0 .1-.1.2-.3.2a.2.2 0 0 1-.2-.2zm.8.2a.2.2 0 0 1 .2-.2c.2 0 .3.1.3.2a.3.3 0 0 1-.3.3c-.1 0-.2-.1-.2-.3zm.6.6a.5.5 0 0 1 .3-.3c.1 0 .2.2.2.3l-.2.2c-.2 0-.3-.1-.3-.2z" class="mcd-H"/></g><g class="mcd-B G"><path d="M183.7 57.5c.1-.1.1-.4.1-.6a1.7 1.7 0 0 0-1.6-1.7 1.2 1.2 0 0 0-.8.2" class="mcd-a"/><path d="M180.8 56.3a.8.8 0 0 0 .2-.5 1.4 1.4 0 0 0-1.5-1.2l-.9.2"/></g><path d="M181.7 54.7a.2.2 0 0 1 .2-.2c.1 0 .3.1.3.2a.3.3 0 0 1-.3.3c-.1 0-.2-.1-.2-.3zm.8 0c0-.2.1-.3.2-.3a.3.3 0 0 1 .3.3c0 .1-.1.2-.3.2a.2.2 0 0 1-.2-.2zm.7.4a.3.3 0 0 1 .3-.3.3.3 0 0 1 .3.3c0 .1-.2.2-.3.2s-.3-.1-.3-.2zm.6.7a.3.3 0 0 1 .3-.3c.1 0 .2.2.2.3s-.1.3-.2.3a.3.3 0 0 1-.3-.3zm.1 1a.3.3 0 0 1 .3-.3.3.3 0 0 1 .3.3c0 .1-.2.2-.3.2s-.3-.1-.3-.2z" class="mcd-H T"/></g><use href="#mcd-Y" class="mcd-F"/><use href="#mcd-Y" class="mcd-B C D G"/><path d="M173.9 55.8a.3.3 0 0 1 .3-.3c.1 0 .2.1.2.3a.2.2 0 0 1-.2.2c-.2.1-.3-.1-.3-.2" class="mcd-H"/><g class="mcd-C D"><g class="mcd-T"><path d="M173.9 55.8a.3.3 0 0 1 .3-.3c.1 0 .2.1.2.3a.2.2 0 0 1-.2.2c-.2.1-.3-.1-.3-.2z" class="mcd-B"/><path d="M176.3 54.1a.3.3 0 0 1 .3-.3c.1 0 .2.2.2.3a.2.2 0 0 1-.2.2c-.2 0-.3-.1-.3-.2zm-.8 0c0-.2.1-.3.2-.3a.3.3 0 0 1 .3.3c0 .1-.1.2-.3.2a.2.2 0 0 1-.2-.2zm-.8.2c0-.1.1-.2.3-.2a.2.2 0 0 1 .2.2c0 .2-.1.3-.2.3a.3.3 0 0 1-.3-.3zm-.6.6c0-.1.1-.3.2-.3a.3.3 0 0 1 .3.3l-.3.2a.2.2 0 0 1-.2-.2z" class="mcd-H"/></g><g class="mcd-B G"><path d="M171.9 57.5c-.1-.1-.1-.4-.1-.6a1.7 1.7 0 0 1 1.6-1.7 1.2 1.2 0 0 1 .8.2" class="mcd-a"/><path d="M174.8 56.3a.8.8 0 0 1-.2-.5 1.4 1.4 0 0 1 1.5-1.2l.9.2"/></g><path d="M173.4 54.7c0-.1.2-.2.3-.2a.2.2 0 0 1 .2.2c0 .2-.1.3-.2.3a.3.3 0 0 1-.3-.3zm-.8 0a.3.3 0 0 1 .3-.3c.1 0 .2.2.2.3a.2.2 0 0 1-.2.2c-.2 0-.3-.1-.3-.2zm-.8.4a.3.3 0 0 1 .3-.3c.1 0 .2.1.2.3a.2.2 0 0 1-.2.2c-.2 0-.3-.1-.3-.2zm-.6.7a.5.5 0 0 1 .3-.3.3.3 0 0 1 .3.3.3.3 0 0 1-.6 0zm-.1 1a.3.3 0 0 1 .45-.26.3.3 0 0 1 .15.26c0 .1-.2.2-.3.2s-.3-.1-.3-.2z" class="mcd-H T"/></g><use href="#mcd-Z" class="mcd-F"/><use href="#mcd-Z" class="mcd-B C D G"/><path d="M177.8 58.9a17.8 17.8 0 0 0-4.4.5h-.1a14 14 0 0 1 4.5-.6 13.7 13.7 0 0 1 4.4.6.1.1 0 0 1 .1.1c0 .1-.1.2-.2.1a16.3 16.3 0 0 0-4.3-.5" class="mcd-F"/><path d="M177.8 58.9a17.8 17.8 0 0 0-4.4.5h-.1a14 14 0 0 1 4.5-.6 13.7 13.7 0 0 1 4.4.6.1.1 0 0 1 .1.1c0 .1-.1.2-.2.1a16.3 16.3 0 0 0-4.3-.7z" class="mcd-B C D G"/><path d="M176.2 59.5c0-.1 0-.2.2-.2l.3.2a.3.3 0 0 1-.3.3c-.2 0-.2-.1-.2-.3" class="mcd-H"/><path d="M176.2 59.5c0-.1 0-.2.2-.2l.3.2a.3.3 0 0 1-.3.3c-.2 0-.2-.1-.2-.3z" class="mcd-B C D G"/><use href="#mcd-a" class="mcd-I"/><use href="#mcd-a" class="mcd-B C D G"/><path d="M175.1 59.8h-.4l-.3-.2a.2.2 0 0 1 .2-.2h.8c.1-.1.2 0 .2.1a.4.4 0 0 1-.1.3z" class="mcd-N"/><path d="M175.1 59.8h-.4l-.3-.2a.2.2 0 0 1 .2-.2h.8c.1-.1.2 0 .2.1a.4.4 0 0 1-.1.3z" class="mcd-B C D G"/><path d="M173.5 60.1l.2-.3.3.1-.2.3-.3-.1z" class="mcd-I"/><path d="M173.5 60.1l.2-.3.3.1-.2.3-.3-.1z" class="mcd-B C D G"/><path d="M179 59.5a.2.2 0 0 1 .2-.2c.2 0 .3.1.3.2a.3.3 0 0 1-.3.3c-.1 0-.2-.1-.2-.3" class="mcd-H"/><path d="M179 59.5a.2.2 0 0 1 .2-.2c.2 0 .3.1.3.2a.3.3 0 0 1-.3.3c-.1 0-.2-.1-.2-.3z" class="mcd-B C D G"/><path d="M180.6 59.8h.4a.2.2 0 0 0 0-.4h-.8c-.1-.1-.2 0-.2.1s.1.2.1.3z" class="mcd-N"/><path d="M180.6 59.8h.4a.2.2 0 0 0 0-.4h-.8c-.1-.1-.2 0-.2.1s.1.2.1.3z" class="mcd-B C D G"/><path d="M182.1 60.1l-.1-.3h-.4l.2.4.3-.1z" class="mcd-I"/><path d="M182.1 60.1l-.1-.3h-.4l.2.4.3-.1z" class="mcd-B C D G"/><path d="M177.8 61.2a18.6 18.6 0 0 1-3.6-.3 16.4 16.4 0 0 1 7.2 0 17.9 17.9 0 0 1-3.6.3" class="mcd-I"/><g class="mcd-S B C D G"><path d="M179 59.6v2.3"/></g><g class="mcd-S B C D W"><path d="M178.4 59.6v2.3"/></g><g class="mcd-S B C D E"><path d="M176.6 59.7v2.2m.4-2.2v2.2m.4-2.2v2.2m.5-2.2v2.2"/></g><g class="mcd-S B C D X"><path d="M176.3 59.6v2.3"/></g><g class="mcd-S B C D E"><path d="M175.5 59.7v2.2m.4-2.2v2.2"/></g><g class="mcd-S B C D"><path stroke-width=".23" d="M175.2 59.6v2.3"/></g><g class="mcd-S B C D Y"><path d="M174.7 59.6v2.3"/></g><path d="M177.8 61.2a18.6 18.6 0 0 1-3.6-.3 16.4 16.4 0 0 1 7.2 0 17.9 17.9 0 0 1-3.6.3z" class="mcd-B C D G"/><path d="M182.2 58.1a.4.4 0 0 0-.1-.3l-.2.2c0 .1 0 .2.1.2h.2" class="mcd-F"/><path d="M182.2 58.1a.4.4 0 0 0-.1-.3l-.2.2c0 .1 0 .2.1.2z" class="mcd-B C D G"/><path d="M179.4 57.5c0-.1 0-.2-.1-.2a.2.2 0 0 0-.2.2c0 .1 0 .2.1.2a.2.2 0 0 0 .2-.2" class="mcd-F"/><path d="M179.4 57.5c0-.1 0-.2-.1-.2a.2.2 0 0 0-.2.2c0 .1 0 .2.1.2a.2.2 0 0 0 .2-.2z" class="mcd-B C D G"/><path d="M176.2 57.5c0-.1 0-.2.1-.2l.2.2c0 .1 0 .2-.1.2a.2.2 0 0 1-.2-.2" class="mcd-F"/><path d="M176.2 57.5c0-.1 0-.2.1-.2l.2.2c0 .1 0 .2-.1.2a.2.2 0 0 1-.2-.2z" class="mcd-B C D G"/><path d="M173.5 58.1c-.1-.1 0-.2 0-.3a.2.2 0 0 1 .2.2.1.1 0 0 1 0 .2c-.1 0-.2 0-.2-.1" class="mcd-F"/><path d="M173.5 58.1c-.1-.1 0-.2 0-.3a.2.2 0 0 1 .2.2.1.1 0 0 1 0 .2c-.1 0-.2 0-.2-.1z" class="mcd-B C D G"/><path d="M177.8 55.8l-.5.3.4.9h.1.1l.4-.9-.5-.3z" class="mcd-F"/><path d="M177.8 55.8l-.5.3.4.9h.1.1l.4-.9-.5-.3z" class="mcd-B C D G"/><path d="M176.7 57l.3.4.8-.3V57v-.1l-.8-.2-.3.3z" class="mcd-F"/><path d="M176.7 57l.3.4.8-.3V57v-.1l-.8-.2-.3.3z" class="mcd-B C D G"/><path d="M178.9 57l-.2.4-.8-.3-.1-.1.1-.1.8-.2.2.3z" class="mcd-F"/><path d="M178.9 57l-.2.4-.8-.3-.1-.1.1-.1.8-.2.2.3z" class="mcd-B C D G"/><path d="M174.7 56.2l-.4.4.4.6.2.1.1-.1.2-.8-.5-.2z" class="mcd-F"/><path d="M174.7 56.2l-.4.4.4.6.2.1.1-.1.2-.8-.5-.2z" class="mcd-B C D G"/><path d="M173.9 57.6l.2.2.7-.4.1-.1-.1-.1-.8-.1-.1.5z" class="mcd-F"/><path d="M173.9 57.6l.2.2.7-.4.1-.1-.1-.1-.8-.1-.1.5z" class="mcd-B C D G"/><path d="M175.9 57.1l-.1.4-.8-.1-.1-.1.1-.1.7-.4.2.3z" class="mcd-F"/><path d="M175.9 57.1l-.1.4-.8-.1-.1-.1.1-.1.7-.4.2.3z" class="mcd-B C D G"/><path d="M173.1 57.6l-.1.5h-.8-.1v-.2l.6-.5.4.2z" class="mcd-F"/><path d="M173.1 57.6l-.1.5h-.8-.1v-.2l.6-.5.4.2z" class="mcd-B C D G"/><path d="M174.6 57.3a.3.3 0 0 1 .3-.3.5.5 0 0 1 .3.3.3.3 0 0 1-.3.3.3.3 0 0 1-.3-.3" class="mcd-F"/><path d="M174.6 57.3a.3.3 0 0 1 .3-.3.5.5 0 0 1 .3.3.3.3 0 0 1-.3.3.3.3 0 0 1-.3-.3z" class="mcd-B C D G"/><use href="#mcd-N" x="84.8" class="mcd-F"/><use href="#mcd-N" x="84.8" class="mcd-B C D G"/><use href="#mcd-O" x="84.8" class="mcd-F"/><use href="#mcd-O" x="84.8" class="mcd-B C D G"/><use href="#mcd-P" x="84.8" class="mcd-F"/><use href="#mcd-P" x="84.8" class="mcd-B C D G"/><path d="M182.5 57.6v.5h.8.2l-.1-.2-.6-.5-.3.2z" class="mcd-F"/><path d="M182.5 57.6v.5h.8.2l-.1-.2-.6-.5-.3.2z" class="mcd-B C D G"/><path d="M177.5 57.1a.3.3 0 0 1 .3-.3.3.3 0 0 1 .3.3.3.3 0 0 1-.3.3.5.5 0 0 1-.3-.3" class="mcd-F"/><path d="M177.5 57.1a.3.3 0 0 1 .3-.3.3.3 0 0 1 .3.3.3.3 0 0 1-.3.3.5.5 0 0 1-.3-.3z" class="mcd-B C D G"/><path d="M180.5 57.3c0-.1.1-.3.2-.3a.3.3 0 0 1 .3.3.3.3 0 0 1-.3.3c-.1 0-.2-.1-.2-.3" class="mcd-F"/><path d="M180.5 57.3c0-.1.1-.3.2-.3a.3.3 0 0 1 .3.3.3.3 0 0 1-.3.3c-.1 0-.2-.1-.2-.3z" class="mcd-B C D G"/><g class="mcd-F"><path d="M177.3 53.9a.5.5 0 1 1 1 0 .5.5 0 1 1-1 0"/><path d="M178.2 53.7v.3h-.8v-.3h.3v-.8h-.4v-.3h.4v-.4h.3v.4h.4v.3h-.4v.8h.2z"/></g><path d="M178.2 53.7v.3h-.8v-.3h.3v-.8h-.4v-.3h.4v-.4h.3v.4h.4v.3h-.4v.8h.2z" class="mcd-B C D U"/><g class="mcd-b F"><path d="M178.6 53.7v.3h-1.5v-.3h.6v-.8h-.4v-.3h.4v-.4h.3v.4h.4v.3h-.4v.8h.6z"/></g><g class="mcd-b B C D U"><path d="M178.6 53.7v.3h-1.5v-.3h.6v-.8h-.4v-.3h.4v-.4h.3v.4h.4v.3h-.4v.8h.6z"/></g><path d="M178 53.4a.5.5 0 0 1 .3.5.5.5 0 1 1-1 0 .5.5 0 0 1 .3-.5" class="mcd-B C D G"/><path d="M172 58.1l-.4-.4-.4-.2h.8a1.3 1.3 0 0 1 .1.5h-.1" class="mcd-F"/><path d="M172 58.1l-.4-.4-.4-.2h.8a1.3 1.3 0 0 1 .1.5z" class="mcd-B C D G"/><path d="M172 58h.3a.4.4 0 0 1 .1.3.2.2 0 0 1-.3 0c-.1-.1-.2-.2-.1-.3" class="mcd-F"/><path d="M172 58h.3a.4.4 0 0 1 .1.3.2.2 0 0 1-.3 0c-.1-.1-.2-.2-.1-.3z" class="mcd-B C D G"/><path d="M183.5 58.1a1.4 1.4 0 0 0 .4-.4l.4-.2h-.8a1.3 1.3 0 0 0-.1.5h.1" class="mcd-F"/><path d="M183.5 58.1a1.4 1.4 0 0 0 .4-.4l.4-.2h-.8a1.3 1.3 0 0 0-.1.5z" class="mcd-B C D G"/><path d="M183.5 58h-.3c0 .1-.1.2 0 .3s.2.1.3 0a.2.2 0 0 0 0-.3" class="mcd-F"/><path d="M183.5 58h-.3c0 .1-.1.2 0 .3s.2.1.3 0a.2.2 0 0 0 0-.3z" class="mcd-B C D G"/><path d="M171.5 61.4h12.7v3.52h-12.7z" class="mcd-F"/><path d="M171.5 61.4h12.7v3.52h-12.7z" class="mcd-B C D E"/><path d="M182.8 67.3h-9.9a.8.8 0 0 0 .5-.8.9.9 0 0 0-.5-.8h9.9a.8.8 0 0 0-.5.8.8.8 0 0 0 .5.7" class="mcd-F"/><path d="M182.8 67.3h-9.9a.8.8 0 0 0 .5-.8.9.9 0 0 0-.5-.8h9.9a.8.8 0 0 0-.5.8.8.8 0 0 0 .5.8z" class="mcd-B C D E"/><path d="M173.1 67.3h9.5c.3 0 .6.2.6.4a.6.6 0 0 1-.6.5h-9.5a.6.6 0 0 1-.6-.5c0-.2.3-.4.6-.4" class="mcd-F"/><path d="M173.1 67.3h9.5c.3 0 .6.2.6.4a.6.6 0 0 1-.6.5h-9.5a.6.6 0 0 1-.6-.5c0-.2.3-.4.6-.4z" class="mcd-B C D E"/><path d="M173.1 65h9.5c.3 0 .6.1.6.4s-.3.4-.6.4h-9.5c-.3 0-.6-.2-.6-.4s.3-.4.6-.4" class="mcd-F"/><path d="M173.1 65h9.5c.3 0 .6.1.6.4s-.3.4-.6.4h-9.5c-.3 0-.6-.2-.6-.4s.3-.4.6-.4z" class="mcd-B C D E"/><use href="#mcd-b" class="mcd-M"/><use href="#mcd-b" class="mcd-B C D E"/><use href="#mcd-c" class="mcd-Q"/><use href="#mcd-c" class="mcd-B C D E"/><use href="#mcd-d" class="mcd-M"/><use href="#mcd-d" class="mcd-B C D E"/><use href="#mcd-e" class="mcd-Q"/><use href="#mcd-e" class="mcd-B C D E"/><use href="#mcd-f" class="mcd-M"/><use href="#mcd-f" class="mcd-B C D E"/><path d="M182.8 118v.4a1.6 1.6 0 0 0 1.6 1.6h-13.1a1.6 1.6 0 0 0 1.6-1.6.8.8 0 0 0-.1-.4h10" class="mcd-F"/><path d="M182.8 118v.4a1.6 1.6 0 0 0 1.6 1.6h-13.1a1.6 1.6 0 0 0 1.6-1.6.8.8 0 0 0-.1-.4h10z" class="mcd-B C D E"/><path d="M173.1 117.1h9.5a.5.5 0 1 1 0 1h-9.5a.5.5 0 1 1 0-1" class="mcd-F"/><path d="M173.1 117.1h9.5a.5.5 0 1 1 0 1h-9.5a.5.5 0 1 1 0-1z" class="mcd-B C D E"/><path d="M171.4 119.9h13v3.48h-13z" class="mcd-F"/><path d="M171.4 119.9h13v3.48h-13z" class="mcd-B C D E"/><path d="M185.3 104.7c1.3.8 2.2 1.6 2.1 2s-.5.6-1.1 1-1.5 1.9-1.1 2.5a3.8 3.8 0 0 1-1.2-2.7 3.7 3.7 0 0 1 1.3-2.8" class="mcd-I"/><path d="M185.3 104.7c1.3.8 2.2 1.6 2.1 2s-.5.6-1.1 1-1.5 1.9-1.1 2.5a3.8 3.8 0 0 1-1.2-2.7 3.7 3.7 0 0 1 1.3-2.8z" class="mcd-B C D E"/><path d="M173.3 68.7h9.2v47.8h-9.2z" class="mcd-Q"/><g clip-path="url(#mcd-F)" class="mcd-B C D E"><path d="M181 67.6v50.3m-1.1-50.3v50.3"/></g><path d="M173.3 68.7h9.2v47.8h-9.2z" class="mcd-B C D E"/><use href="#mcd-g" class="mcd-I"/><use href="#mcd-g" class="mcd-B C D E"/><path d="M182.5 92.6c2.6-.2 4.3-.9 4.5-2s-.7-1.9-2.3-2.8l-2.2.2z" class="mcd-I"/><path d="M182.5 92.6c2.6-.2 4.3-.9 4.5-2s-.7-1.9-2.3-2.8l-2.2.2z" class="mcd-B C D E"/><path d="M173.2 89a6.9 6.9 0 0 0-3.4 1.2h0c-.3.6 1.1 1.9 3.4 3.4z" class="mcd-I"/><path d="M173.2 89a6.9 6.9 0 0 0-3.4 1.2h0c-.3.6 1.1 1.9 3.4 3.4z" class="mcd-B C D E"/><use href="#mcd-h" class="mcd-I"/><use href="#mcd-h" class="mcd-B C D E"/><path d="M169.6 84.5c.3-1.4.8-2.8 1.2-4.1h-.6c-.2 1-.5 1.9-.8 3l-1.6-2.6h-1.2l2.4 3.6h.6m3.5-4h-1v3.8h2.6c0-.1-.1-.2-.1-.3a.3.3 0 0 0 .1-.2h-1.6zm4 .6l1.2.2V81c0-.1 0-.2.1-.2l-3.5-.3c0 .1.1.1 0 .2v.3h1.2l-.3 3.5h1.1zm3.2.6c.4.1.9.1.9.6v.3a.8.8 0 0 1-1.2.5zm-1.8 3.2h.5l.5.2.4-1.8h.1a1.9 1.9 0 0 1 .2.7l.5 1.4h.6l.7.2-.2-.4a14.2 14.2 0 0 1-.8-1.8c.6 0 1.1-.2 1.2-.8s-.1-.6-.4-.9a1.7 1.7 0 0 0-1-.3l-1.4-.4zm5.6.2l1.2-.8-.2 1.4zm1 1a6.9 6.9 0 0 1-.2 1.3l.5.2.5.3.3-4.3h-.2a.2.2 0 0 1-.2-.2l-3.6 2.4h.3c.1.1.1.2.2.2l1-.8z" class="mcd-F"/><path d="M121.2 45.8a1.2 1.2 0 0 1 2.4 0 1.2 1.2 0 0 1-2.049.849 1.2 1.2 0 0 1-.351-.849z" class="mcd-B C D P"/><path d="M135.1 35.2a26.2 26.2 0 0 1 9.3 1.5 18.4 18.4 0 0 0 4.8 1.3 26.8 26.8 0 0 0 3.9.2 13.9 13.9 0 0 1 6 1.4 16.7 16.7 0 0 1 4.5 3l-.9.8-.3 2.4-2.4 2.9-1.2 1.1-2.9 2.5h-1.5l-.4 1.4-18.8-2.3-18.7 2.3-.5-1.4h-1.5l-2.8-2.5-1.3-1.1-2.4-2.9-.3-2.4-.8-.8a16 16 0 0 1 4.4-3 13.9 13.9 0 0 1 6-1.4 17.6 17.6 0 0 0 3.9-.2 19.6 19.6 0 0 0 4.8-1.3 24.2 24.2 0 0 1 9.1-1.5" class="mcd-I"/><path d="M135.1 35.2a26.2 26.2 0 0 1 9.3 1.5 18.4 18.4 0 0 0 4.8 1.3 26.8 26.8 0 0 0 3.9.2 13.9 13.9 0 0 1 6 1.4 16.7 16.7 0 0 1 4.5 3l-.9.8-.3 2.4-2.4 2.9-1.2 1.1-2.9 2.5h-1.5l-.4 1.4-18.8-2.3-18.7 2.3-.5-1.4h-1.5l-2.8-2.5-1.3-1.1-2.4-2.9-.3-2.4-.8-.8a16 16 0 0 1 4.4-3 13.9 13.9 0 0 1 6-1.4 17.6 17.6 0 0 0 3.9-.2 19.6 19.6 0 0 0 4.8-1.3 24.2 24.2 0 0 1 9.1-1.5z" class="mcd-B C D G"/><path d="M135.3 55.2a61.7 61.7 0 0 0-17.8 2.4c.4-.2.3-.7-.1-1.9s-1.5-1.5-1.5-1.5a70.1 70.1 0 0 1 19.5-2.5 69.3 69.3 0 0 1 19.4 2.5c0 0-.8 0-1.4 1.5s-.5 1.7-.1 1.9a63.2 63.2 0 0 0-18-2.4" class="mcd-F"/><path d="M135.3 55.2a61.7 61.7 0 0 0-17.8 2.4c.4-.2.3-.7-.1-1.9s-1.5-1.5-1.5-1.5a70.1 70.1 0 0 1 19.5-2.5 69.3 69.3 0 0 1 19.4 2.5c0 0-.8 0-1.4 1.5s-.5 1.7-.1 1.9a63.2 63.2 0 0 0-18-2.4z" class="mcd-B C D E"/><path d="M135.4 51.7a70.1 70.1 0 0 0-19.5 2.5.7.7 0 0 1-.8-.3 1 1 0 0 1 .5-.9c4.9-1.6 11.9-2.6 19.8-2.6a67.9 67.9 0 0 1 19.8 2.6.8.8 0 0 1 .4.9c-.1.3-.4.4-.8.3a69.3 69.3 0 0 0-19.4-2.5" class="mcd-F"/><path d="M135.4 51.7a70.1 70.1 0 0 0-19.5 2.5.7.7 0 0 1-.8-.3 1 1 0 0 1 .5-.9c4.9-1.6 11.9-2.6 19.8-2.6a67.9 67.9 0 0 1 19.8 2.6.8.8 0 0 1 .4.9c-.1.3-.4.4-.8.3a69.3 69.3 0 0 0-19.4-2.5z" class="mcd-B C D E"/><path d="M135.4 61.2c-7 0-13.3-.8-17.7-2.3a.7.7 0 1 1 0-1.4 61.3 61.3 0 0 1 17.7-2.3 61.1 61.1 0 0 1 17.6 2.3.7.7 0 1 1 0 1.4c-4.4 1.5-10.7 2.3-17.6 2.3" class="mcd-F"/><path d="M135.4 61.2c-7 0-13.3-.8-17.7-2.3a.7.7 0 1 1 0-1.4 61.3 61.3 0 0 1 17.7-2.3 61.1 61.1 0 0 1 17.6 2.3.7.7 0 1 1 0 1.4c-4.4 1.5-10.7 2.3-17.6 2.3z" class="mcd-B C D E"/><path d="M135.4 60.3a63.9 63.9 0 0 1-16.4-2 69.1 69.1 0 0 1 16.4-1.9 62.9 62.9 0 0 1 16.3 1.9 63.1 63.1 0 0 1-16.3 2" class="mcd-I"/><g class="mcd-K B C D"><path stroke-width=".06" d="M135.5 55.6v7.9"/></g><g class="mcd-K B C D T"><path d="M134.5 55.6v7.9"/></g><g class="mcd-K B C D G"><path d="M133.5 55.6v7.9"/></g><g class="mcd-K B C D W"><path d="M132.6 55.6v7.9"/></g><g class="mcd-K B C D E"><path d="M131.8 55.6v7.9"/></g><g class="mcd-K B C D X"><path d="M130.2 55.6v7.9m.8-7.9v7.9"/></g><g class="mcd-K B C D J"><path d="M128.7 55.5v8m.8-8v8"/></g><g class="mcd-K B C D"><path d="M126.8 55.5v8m.6-8v8m.7-8v8" stroke-width=".24"/></g><g class="mcd-K B C D Y"><path d="M126.1 55.5v7.9"/></g><g class="mcd-K B C D"><path stroke-width=".29" d="M125.5 55.5v7.9"/></g><g class="mcd-K B C D J"><path d="M124.8 55.5v7.9"/></g><g class="mcd-K B C D"><path d="M123.4 55.5v8m.7-8v8" stroke-width=".34"/></g><g class="mcd-K B C D"><path stroke-width=".37" d="M122.7 55.5v7.9"/></g><g class="mcd-K B C D"><path stroke-width=".39" d="M122 55.4v8"/></g><g class="mcd-K B C D"><path stroke-width=".42" d="M121.3 55.4v8"/></g><g class="mcd-K B C D"><path stroke-width=".45" d="M120.6 55.4v8"/></g><g class="mcd-K B C D"><path stroke-width=".53" d="M119.9 55.4v8"/></g><g class="mcd-K B C D"><path d="M139.4 55.6v7.9m-1.7-7.9v7.9m-1.2-7.9v7.9" stroke-width=".04"/></g><path d="M135.4 60.3a63.9 63.9 0 0 1-16.4-2 69.1 69.1 0 0 1 16.4-1.9 62.9 62.9 0 0 1 16.3 1.9 63.1 63.1 0 0 1-16.3 2z" class="mcd-B C D E"/><use href="#mcd-i" class="mcd-H"/><use href="#mcd-j" class="mcd-B C D E"/><path d="M135.4 54h-1.9a.6.6 0 0 1-.6-.6.5.5 0 0 1 .6-.6h3.8a.6.6 0 1 1 0 1.2z" class="mcd-I"/><path d="M135.4 54h-1.9a.6.6 0 0 1-.6-.6.5.5 0 0 1 .6-.6h3.8a.6.6 0 1 1 0 1.2z" class="mcd-B C D E"/><use href="#mcd-k" class="mcd-N"/><use href="#mcd-k" class="mcd-B C D E"/><path d="M120.5 54.7a.6.6 0 0 1 .6-.6c.4 0 .7.2.7.6a.7.7 0 0 1-.7.6.6.6 0 0 1-.6-.6" class="mcd-H"/><path d="M120.5 54.7a.6.6 0 0 1 .6-.6c.4 0 .7.2.7.6a.7.7 0 0 1-.7.6.6.6 0 0 1-.6-.6z" class="mcd-B C D E"/><path d="M116.4 55.8l.7-.9 1.9.2-1.6 1.2-1-.5z" class="mcd-I"/><path d="M116.4 55.8l.7-.9 1.9.2-1.6 1.2-1-.5z" class="mcd-B C D E"/><use href="#mcd-l" class="mcd-N"/><use href="#mcd-l" class="mcd-B C D E"/><use href="#mcd-m" class="mcd-H"/><use href="#mcd-n" class="mcd-B C D E"/><path d="M148.9 54.7c0-.4.3-.6.7-.6a.6.6 0 1 1 0 1.2.7.7 0 0 1-.7-.6" class="mcd-H"/><path d="M148.9 54.7c0-.4.3-.6.7-.6a.6.6 0 1 1 0 1.2.7.7 0 0 1-.7-.6z" class="mcd-B C D E"/><path d="M154.4 55.8l-.7-.9-1.9.2 1.5 1.2 1.1-.5z" class="mcd-I"/><path d="M154.4 55.8l-.7-.9-1.9.2 1.5 1.2 1.1-.5zm-36.1 2.7a62.8 62.8 0 0 1 17.1-2.1 63.8 63.8 0 0 1 17.1 2.1" class="mcd-B C D E"/><use href="#mcd-o" class="mcd-F"/><use href="#mcd-o" class="mcd-B C D E"/><use href="#mcd-p" class="mcd-F"/><use href="#mcd-p" class="mcd-B C D E"/><use href="#mcd-q" class="mcd-F"/><use href="#mcd-q" class="mcd-B C D E"/><path d="M109.6 33.8a6.3 6.3 0 0 0-2.3 2.6 4.7 4.7 0 0 0-.5 2.4 5.9 5.9 0 0 0 1.3 3.7l-.9 1.5a6.5 6.5 0 0 1-1.4-4c0-2.5 1.6-4.7 3.8-6.2" class="mcd-F"/><path d="M109.6 33.8a6.3 6.3 0 0 0-2.3 2.6 4.7 4.7 0 0 0-.5 2.4 5.9 5.9 0 0 0 1.3 3.7l-.9 1.5a6.5 6.5 0 0 1-1.4-4c0-2.5 1.6-4.7 3.8-6.2z" class="mcd-B C D E"/><path d="M135.3 28.3a2.2 2.2 0 0 1 2.1 1.6 23 23 0 0 1 .2 2.8v.7a19.4 19.4 0 0 0 .8 5.1l-3.1 3.1-3-3.1a16.4 16.4 0 0 0 .7-5.1v-.7a12 12 0 0 1 .3-2.8 2 2 0 0 1 2-1.6" class="mcd-F"/><path d="M135.3 28.3a2.2 2.2 0 0 1 2.1 1.6 23 23 0 0 1 .2 2.8v.7a19.4 19.4 0 0 0 .8 5.1l-3.1 3.1-3-3.1a16.4 16.4 0 0 0 .7-5.1v-.7a12 12 0 0 1 .3-2.8 2 2 0 0 1 2-1.6z" class="mcd-B C D E"/><path d="M135.3 29.3a1.2 1.2 0 0 1 1.1.8 21.1 21.1 0 0 1 .2 2.6v.7a18.1 18.1 0 0 0 .7 4.8l-2 2-2-2a14.8 14.8 0 0 0 .7-4.8v-.7l.2-2.6a1.1 1.1 0 0 1 1.1-.8" class="mcd-F"/><path d="M135.3 29.3a1.2 1.2 0 0 1 1.1.8 21.1 21.1 0 0 1 .2 2.6v.7a18.1 18.1 0 0 0 .7 4.8l-2 2-2-2a14.8 14.8 0 0 0 .7-4.8v-.7l.2-2.6a1.1 1.1 0 0 1 1.1-.8z" class="mcd-B C D E"/><use href="#mcd-r" class="mcd-F"/><use href="#mcd-r" class="mcd-B C D E"/><use href="#mcd-s" class="mcd-F"/><use href="#mcd-s" class="mcd-B C D E"/><use href="#mcd-t" class="mcd-F"/><use href="#mcd-t" class="mcd-B C D E"/><path d="M160.9 33.8a6.6 6.6 0 0 1 2.4 2.6 6 6 0 0 1 .5 2.4 5.5 5.5 0 0 1-1.4 3.7l1 1.5a7.1 7.1 0 0 0 1.3-4c.1-2.5-1.5-4.7-3.8-6.2" class="mcd-F"/><path d="M160.9 33.8a6.6 6.6 0 0 1 2.4 2.6 6 6 0 0 1 .5 2.4 5.5 5.5 0 0 1-1.4 3.7l1 1.5a7.1 7.1 0 0 0 1.3-4c.1-2.5-1.5-4.7-3.8-6.2zm-25.4 3.9h0" class="mcd-B C D E"/><path d="M134.2 38.9a1.1 1.1 0 0 1 1.878-.778A1.1 1.1 0 0 1 135.3 40a1.1 1.1 0 0 1-1.1-1.1" class="mcd-H"/><path d="M134.2 38.9a1.1 1.1 0 0 1 1.878-.778A1.1 1.1 0 0 1 135.3 40a1.1 1.1 0 0 1-1.1-1.1z" class="mcd-B C D E"/><path d="M134.2 36.8a1.1 1.1 0 0 1 1.65-.953 1.1 1.1 0 0 1-.55 2.053 1.1 1.1 0 0 1-1.1-1.1" class="mcd-H"/><path d="M134.2 36.8a1.1 1.1 0 0 1 1.65-.953 1.1 1.1 0 0 1-.55 2.053 1.1 1.1 0 0 1-1.1-1.1z" class="mcd-B C D E"/><path d="M134.4 34.5a.9.9 0 0 1 .9-.9.8.8 0 0 1 .8.9.7.7 0 0 1-.8.8.8.8 0 0 1-.9-.8" class="mcd-H"/><path d="M134.4 34.5a.9.9 0 0 1 .9-.9.8.8 0 0 1 .8.9.7.7 0 0 1-.8.8.8.8 0 0 1-.9-.8z" class="mcd-B C D E"/><path d="M134.7 32.4a.6.6 0 0 1 1.2 0 .7.7 0 0 1-.6.7c-.4 0-.6-.3-.6-.7" class="mcd-H"/><path d="M134.7 32.4a.6.6 0 0 1 1.2 0 .7.7 0 0 1-.6.7c-.4 0-.6-.3-.6-.7z" class="mcd-B C D E"/><path d="M134.8 30.7a.5.5 0 1 1 1 0 .5.5 0 0 1-.5.5c-.3-.1-.5-.3-.5-.5" class="mcd-H"/><path d="M134.8 30.7a.5.5 0 1 1 1 0 .5.5 0 0 1-.5.5c-.3-.1-.5-.3-.5-.5z" class="mcd-B C D E"/><use href="#mcd-u" class="mcd-F"/><use href="#mcd-u" class="mcd-B C D E"/><path d="M154.6 49.1c.1-.5 0-1-.3-1.1s-.8.2-1 .7 0 1 .4 1.1.7-.2.9-.7" class="mcd-H"/><path d="M154.6 49.1c.1-.5 0-1-.3-1.1s-.8.2-1 .7 0 1 .4 1.1.7-.2.9-.7z" class="mcd-B C D E"/><path d="M142.4 46.6c.1-.5-.1-1-.5-1a.9.9 0 0 0-.7.9.8.8 0 0 0 .5 1 .9.9 0 0 0 .7-.9" class="mcd-H"/><path d="M142.4 46.6c.1-.5-.1-1-.5-1a.9.9 0 0 0-.7.9.8.8 0 0 0 .5 1 .9.9 0 0 0 .7-.9z" class="mcd-B C D E"/><path d="M128.3 46.6c0-.5.2-1 .6-1a.9.9 0 0 1 .7.9.8.8 0 0 1-.5 1c-.4 0-.7-.4-.8-.9" class="mcd-H"/><path d="M128.3 46.6c0-.5.2-1 .6-1a.9.9 0 0 1 .7.9.8.8 0 0 1-.5 1c-.4 0-.7-.4-.8-.9z" class="mcd-B C D E"/><path d="M116.2 49.1a.8.8 0 0 1 .3-1.1c.3-.1.7.2.9.7a.8.8 0 0 1-.3 1.1.8.8 0 0 1-.9-.7" class="mcd-H"/><path d="M116.2 49.1a.8.8 0 0 1 .3-1.1c.3-.1.7.2.9.7a.8.8 0 0 1-.3 1.1.8.8 0 0 1-.9-.7z" class="mcd-B C D E"/><path d="M121.5 40.5a3.4 3.4 0 0 1 1.3 1.8c0 0 0-.1.4-.3a1.2 1.2 0 0 1 .6-.2 4.5 4.5 0 0 1-.2.8 11.3 11.3 0 0 0-.2 1.4 3.9 3.9 0 0 1-.3 1l-.9-.3a1.6 1.6 0 0 0-.8.6l-.7-.8a11.8 11.8 0 0 1-.6-1.3l-.4-.7h.6l.6.2a2.9 2.9 0 0 1 .6-2.2" class="mcd-F"/><path d="M121.5 40.5a3.4 3.4 0 0 1 1.3 1.8c0 0 0-.1.4-.3a1.2 1.2 0 0 1 .6-.2 4.5 4.5 0 0 1-.2.8 11.3 11.3 0 0 0-.2 1.4 3.9 3.9 0 0 1-.3 1l-.9-.3a1.6 1.6 0 0 0-.8.6l-.7-.8a11.8 11.8 0 0 1-.6-1.3l-.4-.7h.6l.6.2a2.9 2.9 0 0 1 .6-2.2z" class="mcd-B C D E"/><path d="M121.7 46.6a.9.9 0 0 1-.4-.6 1 1 0 0 1 .2-.7l-1.1-.4a3.6 3.6 0 0 0-1.4-.2h-.6a1.6 1.6 0 0 0 .1.4l.3.4a3.1 3.1 0 0 0-1.7 1.3 2.9 2.9 0 0 0 2 .5 2.1 2.1 0 0 1-.1.6v.3l.6-.2a6.9 6.9 0 0 0 1.3-.6l.8-.8" class="mcd-F"/><path d="M121.7 46.6a.9.9 0 0 1-.4-.6 1 1 0 0 1 .2-.7l-1.1-.4a3.6 3.6 0 0 0-1.4-.2h-.6a1.6 1.6 0 0 0 .1.4l.3.4a3.1 3.1 0 0 0-1.7 1.3 2.9 2.9 0 0 0 2 .5 2.1 2.1 0 0 1-.1.6v.3l.6-.2a6.9 6.9 0 0 0 1.3-.6z" class="mcd-B C D E"/><path d="M123.3 46.4a1.1 1.1 0 0 0 .1-.8.9.9 0 0 0-.3-.6 5 5 0 0 1 .8-.8l1.2-.5.6-.3v.4a1.8 1.8 0 0 0-.1.5 2.8 2.8 0 0 1 2 .6 2.6 2.6 0 0 1-1.7 1.2l.3.5a.8.8 0 0 1 .1.3h-.6a3.9 3.9 0 0 1-1.4-.2l-1-.3" class="mcd-F"/><path d="M123.3 46.4a1.1 1.1 0 0 0 .1-.8.9.9 0 0 0-.3-.6 5 5 0 0 1 .8-.8l1.2-.5.6-.3v.4a1.8 1.8 0 0 0-.1.5 2.8 2.8 0 0 1 2 .6 2.6 2.6 0 0 1-1.7 1.2l.3.5a.8.8 0 0 1 .1.3h-.6a3.9 3.9 0 0 1-1.4-.2z" class="mcd-B C D E"/><path d="M121.2 45.8a1.2 1.2 0 0 1 2.4 0 1.2 1.2 0 0 1-2.049.849 1.2 1.2 0 0 1-.351-.849" class="mcd-I"/><path d="M121.2 45.8a1.2 1.2 0 0 1 2.4 0 1.2 1.2 0 0 1-2.049.849 1.2 1.2 0 0 1-.351-.849z" class="mcd-B C D E"/><path d="M135.3 38.5a3.6 3.6 0 0 1 1.1 2.3l.5-.3a1.3 1.3 0 0 1 .8-.1 3 3 0 0 0-.3.9l-.5 1.5a7.2 7.2 0 0 1-.6 1 1.2 1.2 0 0 0-1-.4 1.3 1.3 0 0 0-.9.4 2.8 2.8 0 0 1-.6-1 12.6 12.6 0 0 1-.5-1.5l-.3-.9a1 1 0 0 1 .7.1l.5.3a4.9 4.9 0 0 1 1.1-2.3" class="mcd-F"/><path d="M135.3 38.5a3.6 3.6 0 0 1 1.1 2.3l.5-.3a1.3 1.3 0 0 1 .8-.1 3 3 0 0 0-.3.9l-.5 1.5a7.2 7.2 0 0 1-.6 1 1.2 1.2 0 0 0-1-.4 1.3 1.3 0 0 0-.9.4 2.8 2.8 0 0 1-.6-1 12.6 12.6 0 0 1-.5-1.5l-.3-.9a1 1 0 0 1 .7.1l.5.3a4.9 4.9 0 0 1 1.1-2.3z" class="mcd-B C D E"/><path d="M134.4 45.4a.9.9 0 0 1-.3-.7 1 1 0 0 1 .3-.8 3.3 3.3 0 0 0-1.1-.7l-1.5-.4-.7-.2a1 1 0 0 0 .1.4 3.2 3.2 0 0 0 .2.6 2.9 2.9 0 0 0-2.1 1.1 3.8 3.8 0 0 0 2.1 1l-.2.6a1.6 1.6 0 0 0-.1.4h.7a5.3 5.3 0 0 0 1.5-.5l1.1-.7" class="mcd-F"/><path d="M134.4 45.4a.9.9 0 0 1-.3-.7 1 1 0 0 1 .3-.8 3.3 3.3 0 0 0-1.1-.7l-1.5-.4-.7-.2a1 1 0 0 0 .1.4 3.2 3.2 0 0 0 .2.6 2.9 2.9 0 0 0-2.1 1.1 3.8 3.8 0 0 0 2.1 1l-.2.6a1.6 1.6 0 0 0-.1.4h.7a5.3 5.3 0 0 0 1.5-.5z" class="mcd-B C D E"/><path d="M136.3 45.4a.9.9 0 0 0 .3-.7 1 1 0 0 0-.3-.8 3.3 3.3 0 0 1 1.1-.7l1.5-.4.7-.2a1 1 0 0 1-.1.4l-.2.6a2.9 2.9 0 0 1 2.1 1.1 3.8 3.8 0 0 1-2.1 1l.2.6a1.6 1.6 0 0 1 .1.4h-.7a5.3 5.3 0 0 1-1.5-.5l-1.1-.7" class="mcd-F"/><path d="M136.3 45.4a.9.9 0 0 0 .3-.7 1 1 0 0 0-.3-.8 3.3 3.3 0 0 1 1.1-.7l1.5-.4.7-.2a1 1 0 0 1-.1.4l-.2.6a2.9 2.9 0 0 1 2.1 1.1 3.8 3.8 0 0 1-2.1 1l.2.6a1.6 1.6 0 0 1 .1.4h-.7a5.3 5.3 0 0 1-1.5-.5z" class="mcd-B C D E"/><path d="M149.3 40.5a3.4 3.4 0 0 0-1.3 1.8l-.4-.3-.6-.2.1.8a11.3 11.3 0 0 1 .2 1.4 3.9 3.9 0 0 0 .3 1 1.6 1.6 0 0 1 .9-.3 1.2 1.2 0 0 1 .8.6l.7-.8a11.8 11.8 0 0 0 .6-1.3 2.7 2.7 0 0 0 .4-.7h-.6l-.5.2a3.3 3.3 0 0 0-.6-2.2" class="mcd-F"/><path d="M149.3 40.5a3.4 3.4 0 0 0-1.3 1.8l-.4-.3-.6-.2.1.8a11.3 11.3 0 0 1 .2 1.4 3.9 3.9 0 0 0 .3 1 1.6 1.6 0 0 1 .9-.3 1.2 1.2 0 0 1 .8.6l.7-.8a11.8 11.8 0 0 0 .6-1.3 2.7 2.7 0 0 0 .4-.7h-.6l-.5.2a3.3 3.3 0 0 0-.6-2.2z" class="mcd-B C D E"/><path d="M149 46.6a.7.7 0 0 0 .4-.6.9.9 0 0 0-.1-.7 3.7 3.7 0 0 1 1-.4 4.2 4.2 0 0 1 1.4-.2h.6a1.6 1.6 0 0 1-.1.4l-.3.4a3.1 3.1 0 0 1 1.7 1.3 3 3 0 0 1-2.1.5l.2.6v.3l-.6-.2a4.5 4.5 0 0 1-1.2-.6 3.9 3.9 0 0 1-.9-.8" class="mcd-F"/><path d="M149 46.6a.7.7 0 0 0 .4-.6.9.9 0 0 0-.1-.7 3.7 3.7 0 0 1 1-.4 4.2 4.2 0 0 1 1.4-.2h.6a1.6 1.6 0 0 1-.1.4l-.3.4a3.1 3.1 0 0 1 1.7 1.3 3 3 0 0 1-2.1.5l.2.6v.3l-.6-.2a4.5 4.5 0 0 1-1.2-.6 3.9 3.9 0 0 1-.9-.8z" class="mcd-B C D E"/><path d="M147.4 46.4a1.1 1.1 0 0 1-.1-.8c0-.2.2-.4.4-.6l-.8-.8-1.3-.5-.6-.3v.9a3 3 0 0 0-2 .6 2.6 2.6 0 0 0 1.7 1.2l-.3.5a.8.8 0 0 0-.1.3h.6a3.4 3.4 0 0 0 1.3-.2l1.1-.3" class="mcd-F"/><path d="M147.4 46.4a1.1 1.1 0 0 1-.1-.8c0-.2.2-.4.4-.6l-.8-.8-1.3-.5-.6-.3v.9a3 3 0 0 0-2 .6 2.6 2.6 0 0 0 1.7 1.2l-.3.5a.8.8 0 0 0-.1.3h.6a3.4 3.4 0 0 0 1.3-.2z" class="mcd-B C D E"/><path d="M147.1 45.8a1.2 1.2 0 0 1 2.239-.6A1.2 1.2 0 0 1 148.3 47a1.2 1.2 0 0 1-1.2-1.2" class="mcd-I"/><path d="M147.1 45.8a1.2 1.2 0 0 1 2.239-.6A1.2 1.2 0 0 1 148.3 47a1.2 1.2 0 0 1-1.2-1.2z" class="mcd-B C D E"/><path d="M160.9 48.5a1 1 0 0 0-1.3.2c-.5.4-.6 1-.3 1.3s.9.3 1.3-.1a1.1 1.1 0 0 0 .3-1.4" class="mcd-I"/><path d="M160.9 48.5a1 1 0 0 0-1.3.2c-.5.4-.6 1-.3 1.3s.9.3 1.3-.1a1.1 1.1 0 0 0 .3-1.4z" class="mcd-B C D E"/><path d="M159.1 49.3a1.3 1.3 0 0 1 .5-.6 1 1 0 0 1 1.3-.2c0 .1.1.1.1.2a5.6 5.6 0 0 1 1.3-1.7 4.5 4.5 0 0 1 2-.3 1.7 1.7 0 0 0-1.7-1.7 1.8 1.8 0 0 0-1.4.6V45a2 2 0 0 0-1.2 1.1 4.9 4.9 0 0 0 .1 2.3 4.2 4.2 0 0 0-.5-1 4.2 4.2 0 0 0-1.4-.9l-.8-.5a.4.4 0 0 0-.1.3v.5a4.9 4.9 0 0 0-2.1.3 2.7 2.7 0 0 0 1.4 1.4l-.4.5-.3.2h.7l1.6.2 1-.2" class="mcd-F"/><path d="M159.1 49.3a1.3 1.3 0 0 1 .5-.6 1 1 0 0 1 1.3-.2c0 .1.1.1.1.2a5.6 5.6 0 0 1 1.3-1.7 4.5 4.5 0 0 1 2-.3 1.7 1.7 0 0 0-1.7-1.7 1.8 1.8 0 0 0-1.4.6V45a2 2 0 0 0-1.2 1.1 4.9 4.9 0 0 0 .1 2.3 4.2 4.2 0 0 0-.5-1 4.2 4.2 0 0 0-1.4-.9l-.8-.5a.4.4 0 0 0-.1.3v.5a4.9 4.9 0 0 0-2.1.3 2.7 2.7 0 0 0 1.4 1.4l-.4.5-.3.2h.7l1.6.2z" class="mcd-B C D E"/><path d="M109.9 48.5c.2-.3.8-.2 1.3.2s.6 1 .3 1.3-.9.3-1.4-.1a1.1 1.1 0 0 1-.2-1.4" class="mcd-I"/><path d="M109.9 48.5c.2-.3.8-.2 1.3.2s.6 1 .3 1.3-.9.3-1.4-.1a1.1 1.1 0 0 1-.2-1.4z" class="mcd-B C D E"/><path d="M111.6 49.3l-.4-.6c-.5-.4-1.1-.5-1.3-.2s-.1.1-.1.2a6.7 6.7 0 0 0-1.4-1.7 4.4 4.4 0 0 0-2-.3 1.8 1.8 0 0 1 1.7-1.7 1.7 1.7 0 0 1 1.4.6l.2-.6a1.9 1.9 0 0 1 1.1 1.1 4.9 4.9 0 0 1-.1 2.3 4.2 4.2 0 0 1 .5-1 5.5 5.5 0 0 1 1.4-.9l.8-.5a.4.4 0 0 1 .1.3v.5a5.6 5.6 0 0 1 2.2.3 2.9 2.9 0 0 1-1.5 1.4l.4.5.3.2h-.7l-1.6.2-1-.2" class="mcd-F"/><path d="M111.6 49.3l-.4-.6c-.5-.4-1.1-.5-1.3-.2s-.1.1-.1.2a6.7 6.7 0 0 0-1.4-1.7 4.4 4.4 0 0 0-2-.3 1.8 1.8 0 0 1 1.7-1.7 1.7 1.7 0 0 1 1.4.6l.2-.6a1.9 1.9 0 0 1 1.1 1.1 4.9 4.9 0 0 1-.1 2.3 4.2 4.2 0 0 1 .5-1 5.5 5.5 0 0 1 1.4-.9l.8-.5a.4.4 0 0 1 .1.3v.5a5.6 5.6 0 0 1 2.2.3 2.9 2.9 0 0 1-1.5 1.4l.4.5.3.2h-.7l-1.6.2z" class="mcd-B C D E"/><path d="M134.1 44.7a1.3 1.3 0 0 1 1.3-1.3 1.3 1.3 0 0 1 1.2 1.3 1.2 1.2 0 0 1-1.2 1.2 1.3 1.3 0 0 1-1.3-1.2" class="mcd-I"/><path d="M134.1 44.7a1.3 1.3 0 0 1 1.3-1.3 1.3 1.3 0 0 1 1.2 1.3 1.2 1.2 0 0 1-1.2 1.2 1.3 1.3 0 0 1-1.3-1.2z" class="mcd-B C D E"/><path d="M132.8 25.9a2.5 2.5 0 1 1 5 0 2.5 2.5 0 1 1-5 0" class="mcd-M"/><g class="mcd-V F"><use href="#mcd-v"/></g><g class="mcd-V B C D G"><use href="#mcd-v"/></g><use href="#mcd-w" class="mcd-F"/><use href="#mcd-w" class="mcd-B C D G"/><g class="mcd-V F"><use href="#mcd-v"/></g><g class="mcd-V B C D G"><use href="#mcd-v"/></g><path d="M136 23.5a2.5 2.5 0 0 1-.936 4.889A2.5 2.5 0 0 1 132.8 25.9a2.4 2.4 0 0 1 1.9-2.4" class="mcd-B C D G"/><path d="M135.5 132.2a46.9 46.9 0 0 1-21-5.2 14.3 14.3 0 0 1-7.6-12.7v-20H164v20a14.2 14.2 0 0 1-7.6 12.7 45.8 45.8 0 0 1-20.9 5.2" class="mcd-Q"/><path d="M135.5 132.2a46.9 46.9 0 0 1-21-5.2 14.3 14.3 0 0 1-7.6-12.7v-20H164v20a14.2 14.2 0 0 1-7.6 12.7 45.8 45.8 0 0 1-20.9 5.2z" class="mcd-B C D J"/><path d="M135.4 60.8H164v33.45h-28.6z" class="mcd-Q"/><path d="M135.4 60.8H164v33.45h-28.6z" class="mcd-B C D J"/><path d="M106.9 60.8h28.5v33.45h-28.5z" class="mcd-I"/><path d="M106.9 60.8h28.5v33.45h-28.5z" class="mcd-B C D J"/><path d="M135.5 114.3c0 7.898-6.402 14.3-14.3 14.3s-14.3-6.402-14.3-14.3v-20h28.6v20z" class="mcd-I"/><g class="mcd-O F"><path d="M113.2 93.5h3.3v37.03h-3.3z"/></g><g class="mcd-O B C D J"><path d="M113.2 93.5h3.3v37.03h-3.3z"/></g><g class="mcd-O F"><path d="M106.8 93.5h3.3v37.03h-3.3z"/></g><g class="mcd-O B C D J"><path d="M106.8 93.5h3.4v37.03h-3.4z"/></g><g class="mcd-O F"><path d="M119.5 93.5h3.3v37.03h-3.3z"/></g><g class="mcd-O B C D J"><path d="M119.5 93.5h3.3v37.03h-3.3z"/></g><g class="mcd-O F"><path d="M125.9 93.5h3.4v37.03h-3.4z"/></g><g class="mcd-O B C D J"><path d="M125.9 93.5h3.3v37.03h-3.3z"/></g><g class="mcd-O F"><path d="M132.3 93.5h3.3v37.03h-3.3z"/></g><g class="mcd-O B C D J"><path d="M132.3 93.5h3.3v37.03h-3.3z"/></g><path d="M135.5 114.3c0 7.898-6.402 14.3-14.3 14.3s-14.3-6.402-14.3-14.3v-20h28.6v20z" class="mcd-B C D J"/><path d="M164.1 94.3v20a14.3 14.3 0 0 1-21.45 12.384 14.3 14.3 0 0 1-7.15-12.384v-20z" class="mcd-I"/><path d="M164.1 94.3v20a14.3 14.3 0 0 1-21.45 12.384 14.3 14.3 0 0 1-7.15-12.384v-20z" class="mcd-B C D J"/><path d="M150 69.1v-.6a3.7 3.7 0 0 1-1.4-.1 2.4 2.4 0 0 1-1.3-.7c-.5-.4-.7-.7-1-.7a2.4 2.4 0 0 0-1.3.2 5.8 5.8 0 0 1 1 .8 1.9 1.9 0 0 0 1.1.9 5.5 5.5 0 0 0 1.8.1h1" class="mcd-I"/><path d="M150 69.1v-.6a3.7 3.7 0 0 1-1.4-.1 2.4 2.4 0 0 1-1.3-.7c-.5-.4-.7-.7-1-.7a2.4 2.4 0 0 0-1.3.2 5.8 5.8 0 0 1 1 .8 1.9 1.9 0 0 0 1.1.9 5.5 5.5 0 0 0 1.8.1z" class="mcd-B C D E"/><path d="M154.3 67.7a4.4 4.4 0 0 0 .1.9c0 .4-.2.7-.1.9s.1.5.2.6v.6l-.4-.4-.4-.2a3.5 3.5 0 0 1 .1.6 1.1 1.1 0 0 0 .3.7l.6.8a3.9 3.9 0 0 1 .1.9 2.2 2.2 0 0 0-.5-.6l-.7-.4a1.9 1.9 0 0 1 .4 1 3 3 0 0 1-.2.9 3.1 3.1 0 0 0-.5-.7l-.6-.5a3.9 3.9 0 0 1 .3 1.2c0 .5-.1 1.5-.1 1.5l-.4-.6c-.2-.2-.5-.3-.6-.5s.3.4.3.7a7.9 7.9 0 0 0 1.1 2.8c.6.9 1.4 2.3 3.1 1.8s1.2-2.9.8-4.1a7.8 7.8 0 0 1-.5-2.9c0-.5.3-1.8.3-2a4.3 4.3 0 0 1 0-2l.6-1.5a2.4 2.4 0 0 0 .2-.8 2.8 2.8 0 0 0 .1-.8l.4.9a3.4 3.4 0 0 1 .1.9 1.4 1.4 0 0 1 .6-1.1l1.2-.8v-.3a4.1 4.1 0 0 1-.3 1.6l-1 1.3.7-.2a.7.7 0 0 1 .5 0 3.5 3.5 0 0 0-.8 1 7.5 7.5 0 0 0-.6 1.3 2.7 2.7 0 0 1-1 .9c-.6.6-.3 2.7-.2 2.9s1.1 2.9 1.2 3.5a3.4 3.4 0 0 1-1 2.9 4 4 0 0 1-2 .7 2.3 2.3 0 0 0-.7 1.8 1.5 1.5 0 0 0 .7 1.5c.2.3.6.1.7.3a1.3 1.3 0 0 0 .3.5.4.4 0 0 1 .1.5c0 .2-.5.7-.6 1.1a6.5 6.5 0 0 0-.5 1.5 2.1 2.1 0 0 0 0 .8c0 0 .6.6.2.8l-.5-.2c-.4.1-.5.3-.6.3s-.2-.2-.2-.5 0-.4-.1-.4l-.2.2c0 .2 0 .6-.2.6l-.4-.3-.6-.3a.7.7 0 0 1 .5-.6c.2-.1.4-.2.3-.3a.5.5 0 0 0-.5 0 .3.3 0 0 1-.4-.2c0-.2.1-.4 0-.5s-.2-.3.1-.5.5.2.8.1a.7.7 0 0 0 .6-.4.8.8 0 0 0-.1-.8l-.6-.5a3.9 3.9 0 0 1-.2-.6s.1.8 0 .9v.5l-.4-.5a2.8 2.8 0 0 1-.4-.8v.8c0 .2.2.4.1.5s-.4-.4-.5-.5a3.4 3.4 0 0 1-.6-.6 1.9 1.9 0 0 1-.3-.9c0-.1-.1-.8 0-.9l.2-.7h-.8c-.4 0-.7-.1-.9.2a3.4 3.4 0 0 0 .1 1.7c.3.8.4 1.2.3 1.4l-.5.5h-.5a1 1 0 0 0-.7-.2h-.8c-.1-.1-.5-.3-.6-.2s-.5.2-.4.4-.1.5-.3.5l-.5-.2c-.2 0-.5 0-.5-.2s.1-.3.2-.5.2-.3.1-.3h-.2c-.2.1-.3.3-.5.2s-.2-.2-.2-.6-.4-.8-.1-.7.8.3.9 0 0-.3-.1-.4-.5-.3-.2-.5l.4-.3c.1-.1.2-.5.4-.4s0 .4.4.9a1.1 1.1 0 0 0 1.1.5c.6-.1.8-.2.8-.4s0-.5-.1-.6V83s-.3.2-.3.4l-.2.4a2.2 2.2 0 0 1-.1-.6c0-.2.1-.5.1-.6a1.7 1.7 0 0 1-.2-.5v.6a2.3 2.3 0 0 0-.1.7 1.2 1.2 0 0 1-.3-1c.1-.4 0-1 .1-1.2s.4-1 1.2-1h1.5l1.2-.2-2.1-1.2a4.2 4.2 0 0 1-1.1-1.3 4.9 4.9 0 0 1-.4-1l-.6.2-.7.6a2.7 2.7 0 0 0-.4.7v-1.3a2.4 2.4 0 0 1-.6 1.1l-.8.7v-.6c0-.1.1-.6.1-.6s-.3.5-.7.5-1 .1-1 .4.1.6 0 .8a.8.8 0 0 1-.4.3l-.4-.2h-.4s-.2-.2-.1-.4.3-.4.3-.5-.4 0-.5.1-.5.2-.5-.1.1-.5 0-.6 0-.4.1-.4h.7c0-.2-.1-.3-.5-.4s-.5-.3-.3-.5l.3-.4c.1-.1.2-.4.5-.3s.2.5.5.6a5.3 5.3 0 0 0 1.3-.1l.8-.6.9-.7-.6-.5-.6-.6a2.8 2.8 0 0 0-1.1-.4l-.9-.3.4-.2.5-.3h-.6l-.8-.4h-.5a2.2 2.2 0 0 1 .8-.3h.7s-.6-.1-.7-.3l-.3-.6c-.1-.1-.2-.4-.4-.4s-.5.3-.7.2-.3-.1-.3-.4V70c-.1-.2-.3-.5-.1-.6h.8c0-.1-.3-.4-.5-.5s-.5-.3-.4-.5.4-.2.5-.4.2-.5.4-.4.5.8.7.7a.8.8 0 0 0 .1-.7c0-.2 0-.5.2-.5s.3.3.5.3.6-.1.6.1a2.1 2.1 0 0 1-.3.7.8.8 0 0 0-.2.8 2 2 0 0 0 .7.9l1 .5a5.1 5.1 0 0 0 1.3.9l.5.2h2.1c.4-.2.8-.4.7-.7s-.9-.6-.8-.9.3-.2.8-.2 1 0 1.1-.6.1-1-.5-1.2-1-.1-1.2-.6-.2-.6-.1-.7l.8-.2c.5 0 1 0 1.1-.2s.2-.4.4-.5l.9-.3 1.5 1.1a15.5 15.5 0 0 1 1.4 1.4" fill="#cf7eac"/><path d="M154.3 67.7a4.4 4.4 0 0 0 .1.9c0 .4-.2.7-.1.9s.1.5.2.6v.6l-.4-.4-.4-.2a3.5 3.5 0 0 1 .1.6 1.1 1.1 0 0 0 .3.7l.6.8a3.9 3.9 0 0 1 .1.9 2.2 2.2 0 0 0-.5-.6l-.7-.4a1.9 1.9 0 0 1 .4 1 3 3 0 0 1-.2.9 3.1 3.1 0 0 0-.5-.7l-.6-.5a3.9 3.9 0 0 1 .3 1.2c0 .5-.1 1.5-.1 1.5l-.4-.6c-.2-.2-.5-.3-.6-.5s.3.4.3.7a7.9 7.9 0 0 0 1.1 2.8c.6.9 1.4 2.3 3.1 1.8s1.2-2.9.8-4.1a7.8 7.8 0 0 1-.5-2.9c0-.5.3-1.8.3-2a4.3 4.3 0 0 1 0-2l.6-1.5a2.4 2.4 0 0 0 .2-.8 2.8 2.8 0 0 0 .1-.8l.4.9a3.4 3.4 0 0 1 .1.9 1.4 1.4 0 0 1 .6-1.1l1.2-.8v-.3a4.1 4.1 0 0 1-.3 1.6l-1 1.3.7-.2a.7.7 0 0 1 .5 0 3.5 3.5 0 0 0-.8 1 7.5 7.5 0 0 0-.6 1.3 2.7 2.7 0 0 1-1 .9c-.6.6-.3 2.7-.2 2.9s1.1 2.9 1.2 3.5a3.4 3.4 0 0 1-1 2.9 4 4 0 0 1-2 .7 2.3 2.3 0 0 0-.7 1.8 1.5 1.5 0 0 0 .7 1.5c.2.3.6.1.7.3a1.3 1.3 0 0 0 .3.5.4.4 0 0 1 .1.5c0 .2-.5.7-.6 1.1a6.5 6.5 0 0 0-.5 1.5 2.1 2.1 0 0 0 0 .8c0 0 .6.6.2.8l-.5-.2c-.4.1-.5.3-.6.3s-.2-.2-.2-.5 0-.4-.1-.4l-.2.2c0 .2 0 .6-.2.6l-.4-.3-.6-.3a.7.7 0 0 1 .5-.6c.2-.1.4-.2.3-.3a.5.5 0 0 0-.5 0 .3.3 0 0 1-.4-.2c0-.2.1-.4 0-.5s-.2-.3.1-.5.5.2.8.1a.7.7 0 0 0 .6-.4.8.8 0 0 0-.1-.8l-.6-.5a3.9 3.9 0 0 1-.2-.6s.1.8 0 .9v.5l-.4-.5a2.8 2.8 0 0 1-.4-.8v.8c0 .2.2.4.1.5s-.4-.4-.5-.5a3.4 3.4 0 0 1-.6-.6 1.9 1.9 0 0 1-.3-.9c0-.1-.1-.8 0-.9l.2-.7h-.8c-.4 0-.7-.1-.9.2a3.4 3.4 0 0 0 .1 1.7c.3.8.4 1.2.3 1.4l-.5.5h-.5a1 1 0 0 0-.7-.2h-.8c-.1-.1-.5-.3-.6-.2s-.5.2-.4.4-.1.5-.3.5l-.5-.2c-.2 0-.5 0-.5-.2s.1-.3.2-.5.2-.3.1-.3h-.2c-.2.1-.3.3-.5.2s-.2-.2-.2-.6-.4-.8-.1-.7.8.3.9 0 0-.3-.1-.4-.5-.3-.2-.5l.4-.3c.1-.1.2-.5.4-.4s0 .4.4.9a1.1 1.1 0 0 0 1.1.5c.6-.1.8-.2.8-.4s0-.5-.1-.6V83s-.3.2-.3.4l-.2.4a2.2 2.2 0 0 1-.1-.6c0-.2.1-.5.1-.6a1.7 1.7 0 0 1-.2-.5v.6a2.3 2.3 0 0 0-.1.7 1.2 1.2 0 0 1-.3-1c.1-.4 0-1 .1-1.2s.4-1 1.2-1h1.5l1.2-.2-2.1-1.2a4.2 4.2 0 0 1-1.1-1.3 4.9 4.9 0 0 1-.4-1l-.6.2-.7.6a2.7 2.7 0 0 0-.4.7v-1.3a2.4 2.4 0 0 1-.6 1.1l-.8.7v-.6c0-.1.1-.6.1-.6s-.3.5-.7.5-1 .1-1 .4.1.6 0 .8a.8.8 0 0 1-.4.3l-.4-.2h-.4s-.2-.2-.1-.4.3-.4.3-.5-.4 0-.5.1-.5.2-.5-.1.1-.5 0-.6 0-.4.1-.4h.7c0-.2-.1-.3-.5-.4s-.5-.3-.3-.5l.3-.4c.1-.1.2-.4.5-.3s.2.5.5.6a5.3 5.3 0 0 0 1.3-.1l.8-.6.9-.7-.6-.5-.6-.6a2.8 2.8 0 0 0-1.1-.4l-.9-.3.4-.2.5-.3h-.6l-.8-.4h-.5a2.2 2.2 0 0 1 .8-.3h.7s-.6-.1-.7-.3l-.3-.6c-.1-.1-.2-.4-.4-.4s-.5.3-.7.2-.3-.1-.3-.4V70c-.1-.2-.3-.5-.1-.6h.8c0-.1-.3-.4-.5-.5s-.5-.3-.4-.5.4-.2.5-.4.2-.5.4-.4.5.8.7.7a.8.8 0 0 0 .1-.7c0-.2 0-.5.2-.5s.3.3.5.3.6-.1.6.1a2.1 2.1 0 0 1-.3.7.8.8 0 0 0-.2.8 2 2 0 0 0 .7.9l1 .5a5.1 5.1 0 0 0 1.3.9l.5.2h2.1c.4-.2.8-.4.7-.7s-.9-.6-.8-.9.3-.2.8-.2 1 0 1.1-.6.1-1-.5-1.2-1-.1-1.2-.6-.2-.6-.1-.7l.8-.2c.5 0 1 0 1.1-.2s.2-.4.4-.5l.9-.3 1.5 1.1a15.5 15.5 0 0 1 1.4 1.2z" class="mcd-B C D E"/><path d="M148.4 67.3v-.6s.5 0 .5.2-.2.1-.2.2v.2" class="mcd-L"/><path d="M148.4 67.3v-.6s.5 0 .5.2-.2.1-.2.2z" class="mcd-B C D G"/><path d="M150.7 66.4v-.2h.7a3.1 3.1 0 0 1 .5.7l-.5-.2h-.5v-.2z" class="mcd-L"/><g class="mcd-B C D"><path d="M150.7 66.4v-.2h.7a3.1 3.1 0 0 1 .5.7l-.5-.2h-.5v-.2z" class="mcd-P"/><path d="M153.8 70.1l-.3-.4v-.3" class="mcd-G"/></g><path d="M142 67.2l.5.3h.5a.8.8 0 0 0 0-.5.9.9 0 0 0-.7-.9s.2.4.1.6a1.1 1.1 0 0 1-.4.5" class="mcd-I"/><path d="M142 67.2l.5.3h.5a.8.8 0 0 0 0-.5.9.9 0 0 0-.7-.9s.2.4.1.6a1.1 1.1 0 0 1-.4.5z" class="mcd-B C D E"/><path d="M140.7 67.8a.6.6 0 0 0-.7-.4 1.5 1.5 0 0 0-.9.5c0 0 .6-.1.7.1a6.07 6.07 0 0 0 .3.5l.4-.3.2-.4" class="mcd-I"/><path d="M140.7 67.8a.6.6 0 0 0-.7-.4 1.5 1.5 0 0 0-.9.5c0 0 .6-.1.7.1a6.07 6.07 0 0 0 .3.5l.4-.3z" class="mcd-B C D E"/><path d="M140.1 69.7a1.7 1.7 0 0 0-.7.4c-.2.2-.2.8-.2.8a1 1 0 0 1 .6-.3h.6v-.5a1.2 1.2 0 0 0-.2-.5" class="mcd-I"/><path d="M140.1 69.7a1.7 1.7 0 0 0-.7.4c-.2.2-.2.8-.2.8a1 1 0 0 1 .6-.3h.6v-.5a1.2 1.2 0 0 0-.3-.4z" class="mcd-B C D E"/><path d="M148.4 69.6l.2-.3.2.3h-.4z" class="mcd-L"/><path d="M148.4 69.6l.2-.3.2.3h-.4z" class="mcd-B C D G"/><path d="M148.9 69.6l.2-.3.2.3h-.4z" class="mcd-L"/><path d="M148.9 69.6l.2-.3.2.3h-.4z" class="mcd-B C D G"/><path d="M148.7 67.6l.4.2-.4.2v-.4z" class="mcd-L"/><path d="M148.7 67.6l.4.2-.4.2v-.4z" class="mcd-B C D G"/><path d="M149.2 67.8l.5.1-.4.3-.1-.4z" class="mcd-L"/><g class="mcd-B C D"><path d="M149.2 67.8l.5.1-.4.3-.1-.4z" class="mcd-G"/><path d="M147.8 76.6l.8-.5.6-.6m-3.7-.6a1.8 1.8 0 0 1 .5-.7l.7-.5.5-.3m-1.1-1.8a1.3 1.3 0 0 0-.7.4 1.2 1.2 0 0 0-.2.6 1.2 1.2 0 0 1 .9-.2l.8.2.7-.2a1.9 1.9 0 0 0-.4.9 2 2 0 0 1 .1.7 2.2 2.2 0 0 1-.3.9l.6-.2a3.1 3.1 0 0 0 1-.5l.5-.6a2.6 2.6 0 0 0 0 .9 3.4 3.4 0 0 1 .1.9l.5-.3.5-.5a2.1 2.1 0 0 0 .2-.6 4.5 4.5 0 0 0 .2.8 5.1 5.1 0 0 1 .4 1.1 2.8 2.8 0 0 1 .4-.8 1.5 1.5 0 0 0 .4-.6V74l.2.5" class="mcd-E"/></g><path d="M141.6 75.8a.8.8 0 0 0-.7-.2c-.4 0-.7.5-.7.5a1.1 1.1 0 0 1 .6 0c.2 0 .3.3.3.3l.3-.3c0-.1.2-.3.2-.3" class="mcd-I"/><path d="M141.6 75.8a.8.8 0 0 0-.7-.2c-.4 0-.7.5-.7.5a1.1 1.1 0 0 1 .6 0c.2 0 .3.3.3.3l.3-.3c0-.1.2-.3.2-.3z" class="mcd-B C D E"/><path d="M141.1 77.6a.8.8 0 0 0-.7.2.9.9 0 0 0-.3.7l.5-.2h.5V78a1.2 1.2 0 0 0-.1-.5" class="mcd-I"/><path d="M141.1 77.6a.8.8 0 0 0-.7.2.9.9 0 0 0-.3.7l.5-.2h.5V78a1.2 1.2 0 0 0 0-.4z" class="mcd-B C D E"/><path d="M141.9 79.2a1.2 1.2 0 0 0 .2.7.7.7 0 0 0 .6.4 2 2 0 0 1-.1-.5c-.1-.2.2-.4.2-.4l-.4-.3h-.5" class="mcd-I"/><path d="M141.9 79.2a1.2 1.2 0 0 0 .2.7.7.7 0 0 0 .6.4 2 2 0 0 1-.1-.5c-.1-.2.2-.4.2-.4l-.4-.3zm9.5.8s1.2.8 1.1 1.4a3.1 3.1 0 0 1-.6 1.4" class="mcd-B C D E"/><path d="M146.1 83.4a1 1 0 0 0-.7-.4 3.1 3.1 0 0 0-.9.5c0 0 .6-.1.7.1l.2.4s.3-.1.3-.2l.4-.4" class="mcd-I"/><path d="M146.1 83.4a1 1 0 0 0-.7-.4 3.1 3.1 0 0 0-.9.5c0 0 .6-.1.7.1l.2.4s.3-.1.3-.2z" class="mcd-B C D E"/><path d="M144.8 85.1a1 1 0 0 0-.8.2 1.7 1.7 0 0 0-.2.8c0 0 .3-.4.6-.3l.6.2s0-.4-.1-.5v-.4" class="mcd-I"/><path d="M144.8 85.1a1 1 0 0 0-.8.2 1.7 1.7 0 0 0-.2.8c0 0 .3-.4.6-.3l.6.2s0-.4-.1-.5z" class="mcd-B C D E"/><path d="M146 86.9s-.3.4-.1.7a1.1 1.1 0 0 0 .6.4.5.5 0 0 1-.1-.5l.4-.4z" class="mcd-I"/><path d="M146 86.9s-.3.4-.1.7a1.1 1.1 0 0 0 .6.4.5.5 0 0 1-.1-.5l.4-.4z" class="mcd-B C D E"/><path d="M153 87.6a1 1 0 0 0-.7.1c-.2.1-.5.8-.5.8a1 1 0 0 1 .8-.3.8.8 0 0 1 .5.2v-.5a1 1 0 0 0-.1-.3" class="mcd-I"/><path d="M153 87.6a1 1 0 0 0-.7.1c-.2.1-.5.8-.5.8a1 1 0 0 1 .8-.3.8.8 0 0 1 .5.2v-.5a1 1 0 0 0-.1-.3z" class="mcd-B C D E"/><path d="M153.3 89.4s-.4.4-.3.7l.4.7s0-.5.1-.6a1.5 1.5 0 0 1 .6-.3l-.4-.3-.4-.2" class="mcd-I"/><path d="M153.3 89.4s-.4.4-.3.7l.4.7s0-.5.1-.6a1.5 1.5 0 0 1 .6-.3l-.4-.3z" class="mcd-B C D E"/><path d="M155 90s-.2.5.2.7l.6.4a3.1 3.1 0 0 1-.2-.7 1.4 1.4 0 0 1 .3-.5h-.4l-.5.2" class="mcd-I"/><path d="M155 90s-.2.5.2.7l.6.4a3.1 3.1 0 0 1-.2-.7 1.4 1.4 0 0 1 .3-.5h-.4z" class="mcd-B C D E"/><path d="M136.9 123.3a2.4 2.4 0 0 1 1.8 2.4 2.7 2.7 0 0 1-3 2.5c-1.7 0-3.1-1.1-3.1-2.5a2.2 2.2 0 0 1 1.8-2.4l-.2-.3-.3-.4a1 1 0 0 1 .7.1l.4.3a1.5 1.5 0 0 1 .3-.5l.4-.3a1.4 1.4 0 0 1 .4.4v.3l.4-.3h.5a2.3 2.3 0 0 0-.1.4c-.1.1-.1.4-.1.4" fill="#f7e9ad"/><path d="M136.9 123.3a2.4 2.4 0 0 1 1.8 2.4 2.7 2.7 0 0 1-3 2.5c-1.7 0-3.1-1.1-3.1-2.5a2.2 2.2 0 0 1 1.8-2.4l-.2-.3-.3-.4a1 1 0 0 1 .7.1l.4.3a1.5 1.5 0 0 1 .3-.5l.4-.3a1.4 1.4 0 0 1 .4.4v.3l.4-.3h.5a2.3 2.3 0 0 0-.1.4c0 0 0 .3 0 .3z" class="mcd-B C D J"/><path d="M135.5 129.8a14.4 14.4 0 0 0-3.3-1.9 18.5 18.5 0 0 0-3.2-.1l1 .9a6.2 6.2 0 0 0 1.9 1.2 6.8 6.8 0 0 0 3.6-.1" class="mcd-N"/><path d="M135.5 129.8a14.4 14.4 0 0 0-3.3-1.9 18.5 18.5 0 0 0-3.2-.1l1 .9a6.2 6.2 0 0 0 1.9 1.2 6.8 6.8 0 0 0 3.6-.1z" class="mcd-B C D J"/><path d="M136.1 129.9a5.8 5.8 0 0 1 3-1.8 7.1 7.1 0 0 1 3.6.3l-.9.5a3.3 3.3 0 0 1-2.3 1h-3.4" class="mcd-N"/><path d="M136.1 129.9a5.8 5.8 0 0 1 3-1.8 7.1 7.1 0 0 1 3.6.3l-.9.5a3.3 3.3 0 0 1-2.3 1h-3.4z" class="mcd-B C D J"/><path d="M135.7 127.9a3.1 3.1 0 0 1 0-4.4 3.4 3.4 0 0 1 .9 2.2 3.2 3.2 0 0 1-.9 2.2" class="mcd-I"/><path d="M135.7 127.9a3.1 3.1 0 0 1 0-4.4 3.4 3.4 0 0 1 .9 2.2 3.2 3.2 0 0 1-.9 2.2z" class="mcd-B C D J"/><path d="M135.1 131.2a5 5 0 0 0 .4-1.7 8.9 8.9 0 0 0-.1-1.3h.4a4 4 0 0 1 .3 1.3 13.8 13.8 0 0 1-.1 1.4h-.5l-.4.2" class="mcd-N"/><path d="M135.1 131.2a5 5 0 0 0 .4-1.7 8.9 8.9 0 0 0-.1-1.3h.4a4 4 0 0 1 .3 1.3 13.8 13.8 0 0 1-.1 1.4h-.5z" class="mcd-B C D J"/><use href="#mcd-x" class="mcd-H"/><use href="#mcd-y" class="mcd-B C D E"/><path d="M164.6 43.2c0-.4.2-.7.6-.7a.7.7 0 0 1 .6.7.6.6 0 1 1-1.2 0" class="mcd-H"/><path d="M164.6 43.2c0-.4.2-.7.6-.7a.7.7 0 0 1 .6.7.6.6 0 1 1-1.2 0z" class="mcd-B C D E"/><path d="M165.1 41.3c0-.4.3-.6.7-.6a.6.6 0 1 1 0 1.2.7.7 0 0 1-.7-.6" class="mcd-H"/><path d="M165.1 41.3c0-.4.3-.6.7-.6a.6.6 0 1 1 0 1.2.7.7 0 0 1-.7-.6z" class="mcd-B C D E"/><use href="#mcd-x" x="1.5" y="-5.4" class="mcd-H"/><use href="#mcd-y" x="1.5" y="-5.4" class="mcd-B C D E"/><use href="#mcd-z" class="mcd-H"/><use href="#mcd-AA" class="mcd-B C D E"/><path d="M163.8 35.6a.6.6 0 0 1 .6-.6.5.5 0 0 1 .6.6.6.6 0 1 1-1.2 0" class="mcd-H"/><path d="M163.8 35.6a.6.6 0 0 1 .6-.6.5.5 0 0 1 .6.6.6.6 0 1 1-1.2 0z" class="mcd-B C D E"/><path d="M162.5 34.1a.6.6 0 0 1 1.2 0c0 .4-.2.7-.6.7a.7.7 0 0 1-.6-.7" class="mcd-H"/><path d="M162.5 34.1a.6.6 0 0 1 1.2 0c0 .4-.2.7-.6.7a.7.7 0 0 1-.6-.7z" class="mcd-B C D E"/><use href="#mcd-x" x="-2.7" y="-11.8" class="mcd-H"/><use href="#mcd-y" x="-2.7" y="-11.8" class="mcd-B C D E"/><use href="#mcd-z" x="-5.5" y="-5.4" class="mcd-H"/><use href="#mcd-AA" x="-5.5" y="-5.4" class="mcd-B C D E"/><use href="#mcd-i" x="27.5" y="-22.3" class="mcd-H"/><use href="#mcd-j" x="27.5" y="-22.3" class="mcd-B C D E"/><use href="#mcd-i" x="25.4" y="-22.7" class="mcd-H"/><use href="#mcd-j" x="25.4" y="-22.7" class="mcd-B C D E"/><path d="M153.4 30.7a.6.6 0 0 1 .9-.52.6.6 0 0 1 0 1.039.6.6 0 0 1-.9-.52" class="mcd-H"/><path d="M153.4 30.7a.6.6 0 0 1 .9-.52.6.6 0 0 1 0 1.039.6.6 0 0 1-.9-.52z" class="mcd-B C D E"/><use href="#mcd-AB" class="mcd-H"/><use href="#mcd-AC" class="mcd-B C D E"/><use href="#mcd-AB" x="-1.9" class="mcd-H"/><use href="#mcd-AC" x="-1.9" class="mcd-B C D E"/><use href="#mcd-i" x="20.6" y="-21" class="mcd-H"/><use href="#mcd-j" x="20.6" y="-21" class="mcd-B C D E"/><path d="M150.9 34.5a.6.6 0 0 1 .6-.6.5.5 0 0 1 .6.6.6.6 0 0 1-1.2 0" class="mcd-H"/><path d="M150.9 34.5a.6.6 0 0 1 .6-.6.5.5 0 0 1 .6.6.6.6 0 0 1-1.2 0z" class="mcd-B C D E"/><path d="M151 36.4a.6.6 0 0 1 .6-.6.5.5 0 0 1 .6.6.6.6 0 0 1-.9.52.6.6 0 0 1-.3-.52" class="mcd-H"/><path d="M151 36.4a.6.6 0 0 1 .6-.6.5.5 0 0 1 .6.6.6.6 0 0 1-.9.52.6.6 0 0 1-.3-.52z" class="mcd-B C D E"/><use href="#mcd-x" x="-13.3" y="-6.6" class="mcd-H"/><use href="#mcd-y" x="-13.3" y="-6.6" class="mcd-B C D E"/><path d="M149.3 39.7a.7.7 0 0 1 .7-.6.6.6 0 0 1 0 1.2c-.4 0-.7-.2-.7-.6" class="mcd-H"/><path d="M149.3 39.7a.7.7 0 0 1 .7-.6.6.6 0 0 1 0 1.2c-.4 0-.7-.2-.7-.6z" class="mcd-B C D E"/><path d="M148.1 29.6a.6.6 0 0 1 .6-.6.7.7 0 0 1 .7.6c0 .4-.3.6-.7.6a.6.6 0 0 1-.6-.6" class="mcd-H"/><path d="M148.1 29.6a.6.6 0 0 1 .6-.6.7.7 0 0 1 .7.6c0 .4-.3.6-.7.6a.6.6 0 0 1-.6-.6z" class="mcd-B C D E"/><path d="M146.4 28.6a.6.6 0 0 1 1.2 0c0 .4-.2.7-.6.7a.7.7 0 0 1-.6-.7" class="mcd-H"/><path d="M146.4 28.6a.6.6 0 0 1 1.2 0c0 .4-.2.7-.6.7a.7.7 0 0 1-.6-.7z" class="mcd-B C D E"/><use href="#mcd-x" x="-19.2" y="-16.7" class="mcd-H"/><use href="#mcd-y" x="-19.2" y="-16.7" class="mcd-B C D E"/><use href="#mcd-z" x="-22.2" y="-9.7" class="mcd-H"/><use href="#mcd-AA" x="-22.2" y="-9.7" class="mcd-B C D E"/><use href="#mcd-AB" x="-10.8" y="-3.1" class="mcd-H"/><use href="#mcd-AC" x="-10.8" y="-3.1" class="mcd-B C D E"/><path d="M138.7 28.1c0-.4.2-.7.6-.7a.7.7 0 0 1 .6.7.6.6 0 0 1-1.2 0" class="mcd-H"/><path d="M138.7 28.1c0-.4.2-.7.6-.7a.7.7 0 0 1 .6.7.6.6 0 0 1-1.2 0z" class="mcd-B C D E"/><use href="#mcd-x" x="-26.9" y="-16" class="mcd-H"/><use href="#mcd-y" x="-26.9" y="-16" class="mcd-B C D E"/><use href="#mcd-x" x="-58.1" class="mcd-H"/><use href="#mcd-y" x="-58.1" class="mcd-B C D E"/><path d="M104.8 43.2c0-.4.2-.7.6-.7a.7.7 0 0 1 .6.7.6.6 0 0 1-1.2 0" class="mcd-H"/><path d="M104.8 43.2c0-.4.2-.7.6-.7a.7.7 0 0 1 .6.7.6.6 0 0 1-1.2 0z" class="mcd-B C D E"/><path d="M104.2 41.3a.6.6 0 0 1 .6-.6.5.5 0 0 1 .6.6.6.6 0 0 1-1.2 0" class="mcd-H"/><path d="M104.2 41.3a.6.6 0 0 1 .6-.6.5.5 0 0 1 .6.6.6.6 0 0 1-1.2 0z" class="mcd-B C D E"/><path d="M104.1 39.3a.7.7 0 0 1 .7-.6.6.6 0 0 1 .6.6.7.7 0 0 1-.6.7c-.4-.1-.7-.3-.7-.7" class="mcd-H"/><path d="M104.1 39.3a.7.7 0 0 1 .7-.6.6.6 0 0 1 .6.6.7.7 0 0 1-.6.7c-.4-.1-.7-.3-.7-.7z" class="mcd-B C D E"/><use href="#mcd-i" x="-25.3" y="-16.2" class="mcd-H"/><use href="#mcd-j" x="-25.3" y="-16.2" class="mcd-B C D E"/><path d="M105.6 35.6a.5.5 0 0 1 .6-.6.6.6 0 1 1 0 1.2.6.6 0 0 1-.6-.6" class="mcd-H"/><path d="M105.6 35.6a.5.5 0 0 1 .6-.6.6.6 0 1 1 0 1.2.6.6 0 0 1-.6-.6z" class="mcd-B C D E"/><use href="#mcd-AD" class="mcd-H"/><use href="#mcd-AE" class="mcd-B C D E"/><use href="#mcd-x" x="-55.4" y="-11.8" class="mcd-H"/><use href="#mcd-y" x="-55.4" y="-11.8" class="mcd-B C D E"/><use href="#mcd-m" x="-29.5" y="-21.6" class="mcd-H"/><use href="#mcd-n" x="-29.5" y="-21.6" class="mcd-B C D E"/><path d="M112 31.3c0-.4.2-.7.6-.7a.7.7 0 0 1 .6.7.6.6 0 0 1-1.2 0" class="mcd-H"/><path d="M112 31.3c0-.4.2-.7.6-.7a.7.7 0 0 1 .6.7.6.6 0 0 1-1.2 0z" class="mcd-B C D E"/><use href="#mcd-i" x="-15.9" y="-22.7" class="mcd-H"/><use href="#mcd-j" x="-15.9" y="-22.7" class="mcd-B C D E"/><use href="#mcd-AD" x="9.1" y="-3.4" class="mcd-H"/><use href="#mcd-AE" x="9.1" y="-3.4" class="mcd-B C D E"/><path d="M117.9 30.8a.6.6 0 0 1 1.2 0 .6.6 0 1 1-1.2 0" class="mcd-H"/><path d="M117.9 30.8a.6.6 0 0 1 1.2 0 .6.6 0 1 1-1.2 0z" class="mcd-B C D E"/><path d="M119.8 30.8a.6.6 0 0 1 1.2 0 .5.5 0 0 1-.6.6.6.6 0 0 1-.6-.6" class="mcd-H"/><path d="M119.8 30.8a.6.6 0 0 1 1.2 0 .5.5 0 0 1-.6.6.6.6 0 0 1-.6-.6z" class="mcd-B C D E"/><use href="#mcd-z" x="-45.9" y="-4.8" class="mcd-H"/><use href="#mcd-AA" x="-45.9" y="-4.8" class="mcd-B C D E"/><path d="M118.4 34.5a.6.6 0 0 1 .6-.6c.4 0 .7.2.7.6a.7.7 0 0 1-.7.6.6.6 0 0 1-.6-.6" class="mcd-H"/><path d="M118.4 34.5a.6.6 0 0 1 .6-.6c.4 0 .7.2.7.6a.7.7 0 0 1-.7.6.6.6 0 0 1-.6-.6z" class="mcd-B C D E"/><path d="M118.3 36.4c0-.4.3-.6.7-.6a.6.6 0 1 1 0 1.2.7.7 0 0 1-.7-.6" class="mcd-H"/><path d="M118.3 36.4c0-.4.3-.6.7-.6a.6.6 0 1 1 0 1.2.7.7 0 0 1-.7-.6z" class="mcd-B C D E"/><use href="#mcd-AD" x="12.1" y="4" class="mcd-H"/><use href="#mcd-AE" x="12.1" y="4" class="mcd-B C D E"/><path d="M120 39.7a.6.6 0 1 1 1.2 0 .6.6 0 0 1-1.2 0" class="mcd-H"/><path d="M120 39.7a.6.6 0 1 1 1.2 0 .6.6 0 0 1-1.2 0z" class="mcd-B C D E"/><use href="#mcd-AB" x="-30.2" y="-1.2" class="mcd-H"/><use href="#mcd-AC" x="-30.2" y="-1.2" class="mcd-B C D E"/><path d="M122.9 28.6a.7.7 0 0 1 .7-.6.6.6 0 0 1 .6.6.7.7 0 0 1-.6.7c-.4-.1-.7-.3-.7-.7" class="mcd-H"/><path d="M122.9 28.6a.7.7 0 0 1 .7-.6.6.6 0 0 1 .6.6.7.7 0 0 1-.6.7c-.4-.1-.7-.3-.7-.7z" class="mcd-B C D E"/><use href="#mcd-x" x="-38.9" y="-16.7" class="mcd-H"/><use href="#mcd-y" x="-38.9" y="-16.7" class="mcd-B C D E"/><use href="#mcd-m" x="-12.8" y="-25.9" class="mcd-H"/><use href="#mcd-n" x="-12.8" y="-25.9" class="mcd-B C D E"/><path d="M128.7 27.7a.6.6 0 0 1 1.2 0 .5.5 0 0 1-.6.6.6.6 0 0 1-.6-.6" class="mcd-H"/><path d="M128.7 27.7a.6.6 0 0 1 1.2 0 .5.5 0 0 1-.6.6.6.6 0 0 1-.6-.6z" class="mcd-B C D E"/><use href="#mcd-m" x="-8.9" y="-25.5" class="mcd-H"/><use href="#mcd-n" x="-8.9" y="-25.5" class="mcd-B C D E"/><use href="#mcd-x" x="-31.2" y="-16" class="mcd-H"/><use href="#mcd-y" x="-31.2" y="-16" class="mcd-B C D E"/><use href="#mcd-AF" class="mcd-F"/><use href="#mcd-AF" class="mcd-B C D J"/><path d="M117.1 79.5a.7.7 0 1 1 1.4 0v1.7h-1.4z" class="mcd-M"/><path d="M117.1 79.5a.7.7 0 1 1 1.4 0v1.7h-1.4z" class="mcd-B C D J"/><path d="M124 79.5a.7.7 0 1 1 1.4 0v1.7H124v-1.7z" class="mcd-M"/><path d="M124 79.5a.7.7 0 1 1 1.4 0v1.7H124v-1.7z" class="mcd-B C D J"/><path d="M119.7 87a1.6 1.6 0 0 1 1.5-1.6 1.6 1.6 0 0 1 1.6 1.6v2.7h-3.1z" class="mcd-M"/><path d="M119.7 87a1.6 1.6 0 0 1 1.5-1.6 1.6 1.6 0 0 1 1.6 1.6v2.7h-3.1z" class="mcd-B C D J"/><use href="#mcd-AG" class="mcd-F"/><use href="#mcd-AG" class="mcd-B C D G"/><path d="M152.7 65.6h.1s.1.1 0 .1h-.1" class="mcd-L"/><path d="M152.7 65.6h.1s.1.1 0 .1h-.1z" class="mcd-B C D P"/><path d="M153.2 66.1l-.2-.2h.1l.2.2h-.1z" class="mcd-L"/><path d="M153.2 66.1l-.2-.2h.1l.2.2h-.1z" class="mcd-B C D P"/><path d="M152.2 65.3h-.1s-.1 0 0-.1h.1z" class="mcd-L"/><path d="M152.2 65.3h-.1s-.1 0 0-.1h.1z" class="mcd-B C D P"/><path d="M151.6 64.9h.2v.2h-.1v-.2" class="mcd-L"/><path d="M151.6 64.9h.2v.2h-.1z" class="mcd-B C D P"/><path d="M153.8 66.5c.1 0 .1-.1 0-.1s-.1-.1-.1 0-.1.1 0 .1h.1" class="mcd-L"/><path d="M153.8 66.5c.1 0 .1-.1 0-.1s-.1-.1-.1 0-.1.1 0 .1z" class="mcd-B C D P"/><path d="M154.1 66.9h0z" class="mcd-L"/><path d="M154.1 66.9h0z" class="mcd-B C D P"/><path d="M154.7 67.4c0-.1 0-.1-.1-.2h-.1v.2h.1" class="mcd-L"/><path d="M154.7 67.4c0-.1 0-.1-.1-.2h-.1v.2z" class="mcd-B C D P"/><path d="M153.1 63.7h-.3l-.1.6h.1.1l.4-.3-.2-.3z" class="mcd-F"/><path d="M153.1 63.7h-.3l-.1.6h.1.1l.4-.3-.2-.3z" class="mcd-B C D G"/><path d="M152.2 64v.3l.5.1h.1v-.1l-.3-.4-.3.1z" class="mcd-F"/><path d="M152.2 64v.3l.5.1h.1v-.1l-.3-.4-.3.1z" class="mcd-B C D G"/><path d="M153.3 64.7l-.3.1-.3-.4v-.1h.1.5v.4z" class="mcd-F"/><path d="M153.3 64.7l-.3.1-.3-.4v-.1h.1.5v.4z" class="mcd-B C D G"/><path d="M152.6 64.3h.2a.3.3 0 0 1 .1.2h-.2c-.1 0-.1-.1-.1-.2" class="mcd-F"/><path d="M152.6 64.3h.2a.3.3 0 0 1 .1.2h-.2c-.1 0-.1-.1-.1-.2z" class="mcd-B C D G"/><path d="M151.4 63.8l-.2-.5c0-.1-.2-.2-.2-.2s.2-.2.5 0-.1.5-.1.5v.2" class="mcd-F"/><path d="M151.4 63.8l-.2-.5c0-.1-.2-.2-.2-.2s.2-.2.5 0-.1.5-.1.5z" class="mcd-B C D G"/><path d="M152 63.9l-.2.2-.4-.3v-.1-.1h.5l.1.3z" class="mcd-F"/><path d="M152 63.9l-.2.2-.4-.3v-.1-.1h.5l.1.3z" class="mcd-B C D G"/><path d="M151.3 63.7h.2a.1.1 0 0 1 0 .2.1.1 0 0 1-.1.1c-.1 0-.1-.1-.1-.2" class="mcd-F"/><path d="M151.3 63.7h.2a.1.1 0 0 1 0 .2.1.1 0 0 1-.1.1c-.1-.1-.1-.2-.1-.3z" class="mcd-B C D G"/><path d="M154.4 64.6h-.3l-.1.5v.1h.1l.4-.3-.1-.3z" class="mcd-F"/><path d="M154.4 64.6h-.3l-.1.5v.1h.1l.4-.3-.1-.3z" class="mcd-B C D G"/><path d="M153.5 64.7l-.1.4.5.1h.1v-.1l-.2-.5-.3.1z" class="mcd-F"/><path d="M153.5 64.7l-.1.4.5.1h.1v-.1l-.2-.5-.3.1z" class="mcd-B C D G"/><path d="M154.5 65.5l-.3.2-.3-.5v-.1h.1l.5.1v.3z" class="mcd-F"/><path d="M154.5 65.5l-.3.2-.3-.5v-.1h.1l.5.1v.3z" class="mcd-B C D G"/><path d="M153.8 65.1h.2v.2h-.2v-.2" class="mcd-F"/><path d="M153.8 65.1h.2v.2h-.2z" class="mcd-B C D G"/><path d="M155.6 65.7v.3l-.5.2h-.1v-.1l.2-.5.4.1z" class="mcd-F"/><path d="M155.6 65.7v.3l-.5.2h-.1v-.1l.2-.5.4.1z" class="mcd-B C D G"/><path d="M155.5 66.6l-.4.1-.1-.5v-.1h.1l.5.2-.1.3z" class="mcd-F"/><path d="M155.5 66.6l-.4.1-.1-.5v-.1h.1l.5.2-.1.3z" class="mcd-B C D G"/><path d="M154.6 65.7l-.1.3.5.2h.1v-.1l-.2-.5-.3.1z" class="mcd-F"/><path d="M154.6 65.7l-.1.3.5.2h.1v-.1l-.2-.5-.3.1z" class="mcd-B C D G"/><path d="M155.1 66.3c.1 0 .1-.1 0-.2s-.1-.1-.2 0-.1.2 0 .2.2.1.2 0" class="mcd-F"/><path d="M155.1 66.3c.1 0 .1-.1 0-.2s-.1-.1-.2 0-.1.2 0 .2.2.1.2 0z" class="mcd-B C D G"/><path d="M155.9 67.4h.7c.1 0 .1-.2-.1-.5s-.5.2-.5.2a.1.1 0 0 0-.1.1" class="mcd-F"/><path d="M155.9 67.4h.7c.1 0 .1-.2-.1-.5s-.5.2-.5.2c-.083-.028-.172.017-.2.1s.017.172.1.2z" class="mcd-B C D G"/><path d="M155.6 66.8l-.1.3.4.3h0l.1-.1-.1-.5h-.3z" class="mcd-F"/><path d="M155.6 66.8l-.1.3.4.3h0l.1-.1-.1-.5h-.3z" class="mcd-B C D G"/><path d="M155.9 67.5c.1-.1.2-.2.1-.2h-.1c-.1 0-.2.1-.1.2h.1" class="mcd-F"/><path d="M155.9 67.5c.1-.1.2-.2.1-.2h-.1c-.1 0-.2.1-.1.2z" class="mcd-B C D G"/><path d="M149 123.9a.7.7 0 0 1 .7-.7c.4 0 .6.3.6.7a.6.6 0 0 1-.6.6.7.7 0 0 1-.7-.6m9.2-5.1a.8.8 0 0 1 0 1 .8.8 0 0 1-1-.1.6.6 0 0 1 .1-.9.6.6 0 0 1 .9 0m-17.2 0a.6.6 0 0 1 .9 0 .6.6 0 0 1 .1.9.8.8 0 0 1-1 .1.8.8 0 0 1 0-1m7.9-20.2c0-.4.3-.6.7-.6a.7.7 0 0 1 .7.6.7.7 0 1 1-1.4 0m9.6 0a.6.6 0 0 1 .6-.6.7.7 0 0 1 .7.6.7.7 0 0 1-.7.7.7.7 0 0 1-.6-.7m-19.1 0c0-.4.3-.6.7-.6a.7.7 0 0 1 .7.6.7.7 0 0 1-.7.7.8.8 0 0 1-.7-.7m1.3 11.1c0 .4-.2.7-.6.7a.7.7 0 0 1-.7-.7.8.8 0 0 1 .7-.7.7.7 0 0 1 .6.7zm19.1 0a.7.7 0 0 1-.7.7.7.7 0 0 1-.6-.7c0-.3.3-.7.6-.7a.7.7 0 0 1 .7.7zm.9 0a1.3 1.3 0 0 0-1.1-1.4v-2.5l1-.3v-2.7l-1-.3v-2.4a1.5 1.5 0 0 0 1.1-1.5 1.6 1.6 0 0 0-1.6-1.6 1.5 1.5 0 0 0-1.4 1.1h-1.8l-.3-1h-2.7l-.3 1H151a1.6 1.6 0 0 0-1.5-1.1 1.6 1.6 0 0 0-1.4 1.1h-1.5l-.3-1h-2.7l-.3 1h-1.8A1.6 1.6 0 0 0 140 97a1.6 1.6 0 0 0-1.5 1.6 1.5 1.5 0 0 0 1 1.5v2.4l-.9.3v2.7l.9.3v2.4a1.5 1.5 0 0 0-1 1.5 1.4 1.4 0 0 0 1 1.4v1.7l-.9.3v2.7l1 .2a7.9 7.9 0 0 0 .6 2.2h-.1a1.4 1.4 0 0 0 .2 2.1 1.4 1.4 0 0 0 1.5.3l1.4 1.4-.2 1a10.5 10.5 0 0 0 2.3 1.3l.7-.7 2 .5a1.5 1.5 0 0 0 1.5 1.2 1.7 1.7 0 0 0 1.5-1.3l1.8-.5.7.8a10.5 10.5 0 0 0 2.3-1.3l-.2-1 1.5-1.4a2.1 2.1 0 0 0 1.5-.3 1.6 1.6 0 0 0 .1-2.2h0a17.2 17.2 0 0 0 .7-2.1l.9-.3.2-2.7-1-.3v-1.6a1.3 1.3 0 0 0 1.2-1.4zm-2.1-6.4h1v1.6h-1zm-.1-3.3a.1.1 0 0 0 .1.1v2.5l-.9.2v2.7l.9.3v2.5a1.5 1.5 0 0 0-.9 1h-1.8l-.3-1H153l-.3 1h-1.5c0-.1-.1-.2-.1-.3l2.3-2.8.9.4 1.7-2.1-.6-.9zm-3.4 9.2v1h-1.6v-1zm-2-4.4l1-1.2.8.7-1 1.2zm.4-6.6h1.6v.9h-1.6zm-3.4 1.9a1.9 1.9 0 0 0 1-1h1.6l.2 1h2.7l.3-1h1.8v.2l-3.2 3.7-.9-.4-1.7 2 .6.9-2.4 2.8h-.1v-3.8l1-.2v-2.7l-1-.3zm-5.9-1.9h1.6v.9h-1.6zm-2.6.9h1.8l.3 1h2.6l.3-1h1.6a1.3 1.3 0 0 0 .9 1v1.2l-.9.3v2.6l1 .3v3.8h-.1l-2.4-2.8.5-.9-1.7-2-.9.4-3.1-3.6a.5.5 0 0 1 .1-.3zm4.4 5.8l-.7.6-1-1.2.7-.6zm-5.4-4.8h.1l3 3.6-.6.8 1.8 2.1.9-.4 2.5 2.8v.2h-1.6l-.3-1h-2.7l-.3 1h-1.9a1.2 1.2 0 0 0-.9-.9v-2.5l1-.3v-2.7l-1-.3v-2.4zm5.1 9.1v1h-1.5v-1zm-6.1-5.9h1v1.6h-1zm.1 11.9a2.8 2.8 0 0 1-.1-.9v-.7h1v1.6zm2.3 2.6h-.8a8.4 8.4 0 0 1-.5-1.7l1-.4-.1-1.3V113l-1-.2v-1.6a1.2 1.2 0 0 0 .9-.9h1.9l.3 1h2.6l.3-1h1.6v.2l-2.3 2.7-.9-.4-1.7 2 .5.9zm4.2-3.4l-1 1.2-.7-.6 1-1.2zm-.7 9l-1.4-.8.5-.8 1.3.8zm3.7-1a1.2 1.2 0 0 0-.9.8l-1.5-.4.2-.9a7 7 0 0 1-2.4-1.3l-.7.6-1.1-1.1a2 2 0 0 0 .1-1.7l1.8-2.2 1 .4 1.7-2-.6-.9 2.3-2.6h0v4.6l-.9.3v2.7l1 .3zm.9-4.2h-.9v-1.6h.9zm0-14.6h-.9v-1.5h.9zm3.6 19.8l-.4-.8a5.7 5.7 0 0 0 1.3-.8l.5.9zm1.6-2.2l-.7-.6a8.6 8.6 0 0 1-2.3 1.3l.2 1-1.4.3a1.4 1.4 0 0 0-1-.8V119l1-.3V116l-.9-.2v-4.6h0l2.3 2.6h-.1l-.5.9 1.7 2 1-.4 1.9 2.2a1.7 1.7 0 0 0 0 1.7 4.1 4.1 0 0 1-1.2 1zm-2.3-6.8l.6-.5h.1l1 1.2-.7.6zm5.5 1.6a8.4 8.4 0 0 1-.5 1.7h-.8l-1.9-2.2.6-.9-1.8-2-.9.4h0l-2.2-2.6c0-.1.1-.2.1-.4h1.6l.2 1h2.7l.3-1h1.8a1.3 1.3 0 0 0 .9.9v1.8l-.9.2v1.4a7.2 7.2 0 0 0-.1 1.3zm1.1-1.7v.9h-1a2.8 2.8 0 0 0 .1-.9v-.7h.9z" class="mcd-F"/><path d="M126.3 94.2c0-6.1 4.1-11 9.2-11s9.3 4.9 9.3 11-4.2 11-9.3 11-9.2-5-9.2-11" class="mcd-I"/><path d="M126.3 94.2c0-6.1 4.1-11 9.2-11s9.3 4.9 9.3 11-4.2 11-9.3 11-9.2-5-9.2-11z" stroke-width=".25" class="mcd-B C D"/><path d="M129 94.1c0-4.4 2.9-8 6.5-8s6.5 3.6 6.5 8-2.9 8.1-6.5 8.1-6.5-3.6-6.5-8.1" class="mcd-M"/><path d="M129 94.1c0-4.4 2.9-8 6.5-8s6.5 3.6 6.5 8-2.9 8.1-6.5 8.1-6.5-3.6-6.5-8.1z" stroke-width=".25" class="mcd-B C D"/><path d="M132.4 88.6a3.4 3.4 0 0 0-.7 1.7 3.6 3.6 0 0 0 .3 1.5c-.083-.442-.508-.733-.95-.65s-.733.508-.65.95a.7.7 0 0 0 .1.5l.3.6a.5.5 0 0 1 .5-.3.5.5 0 0 1 .6.6h-.7v.7h.6l-.4.9.6-.2.4.5.5-.5.6.2-.5-.9h.6v-.7h-.7a.6.6 0 0 1 .6-.6.6.6 0 0 1 .6.3l.3-.6a4.3 4.3 0 0 0 .1-.5.9.9 0 0 0-.9-.8.8.8 0 0 0-.7.5 3.6 3.6 0 0 0 .3-1.5 3.2 3.2 0 0 0-.8-1.7" class="mcd-F"/><path d="M132.4 88.6a3.4 3.4 0 0 0-.7 1.7 3.6 3.6 0 0 0 .3 1.5c-.083-.442-.508-.733-.95-.65s-.733.508-.65.95a.7.7 0 0 0 .1.5l.3.6a.5.5 0 0 1 .5-.3.5.5 0 0 1 .6.6h-.7v.7h.6l-.4.9.6-.2.4.5.5-.5.6.2-.5-.9h.6v-.7h-.7a.6.6 0 0 1 .6-.6.6.6 0 0 1 .6.3l.3-.6a4.3 4.3 0 0 0 .1-.5.9.9 0 0 0-.9-.8.8.8 0 0 0-.7.5 3.6 3.6 0 0 0 .3-1.5 3.2 3.2 0 0 0-.8-1.7z" class="mcd-B C D E"/><path d="M131.2 93.6h2.5v.63h-2.5z" class="mcd-F"/><path d="M131.2 93.6h2.5v.63h-2.5z" class="mcd-B C D E"/><path d="M138.5 88.6a3.2 3.2 0 0 0-.8 1.7 2.9 2.9 0 0 0 .4 1.5 1 1 0 0 0-.8-.5.9.9 0 0 0-.9.8 4.3 4.3 0 0 0 .1.5l.3.6a.6.6 0 0 1 .6-.3.6.6 0 0 1 .6.6h-.7v.7h.6l-.5.9.6-.2.5.5.4-.5.6.2-.4-.9h.6v-.7h-.7a.6.6 0 0 1 .6-.6.5.5 0 0 1 .5.3l.3-.6a.8.8 0 0 0 .2-.5.9.9 0 0 0-.9-.8.8.8 0 0 0-.8.5 3.6 3.6 0 0 0 .3-1.5 2.7 2.7 0 0 0-.7-1.7" class="mcd-F"/><path d="M138.5 88.6a3.2 3.2 0 0 0-.8 1.7 2.9 2.9 0 0 0 .4 1.5 1 1 0 0 0-.8-.5.9.9 0 0 0-.9.8 4.3 4.3 0 0 0 .1.5l.3.6a.6.6 0 0 1 .6-.3.6.6 0 0 1 .6.6h-.7v.7h.6l-.5.9.6-.2.5.5.4-.5.6.2-.4-.9h.6v-.7h-.7a.6.6 0 0 1 .6-.6.5.5 0 0 1 .5.3l.3-.6a.8.8 0 0 0 .2-.5.9.9 0 0 0-.9-.8.8.8 0 0 0-.8.5 3.6 3.6 0 0 0 .3-1.5 2.7 2.7 0 0 0-.7-1.7z" class="mcd-B C D E"/><path d="M137.3 93.6h2.5v.63h-2.5z" class="mcd-F"/><path d="M137.3 93.6h2.5v.63h-2.5z" class="mcd-B C D E"/><path d="M135.5 94.1a3.2 3.2 0 0 0-.8 1.7 4.3 4.3 0 0 0 .3 1.5c-.083-.442-.508-.733-.95-.65s-.733.508-.65.95c0 .1.1.4.1.5l.3.6a.7.7 0 0 1 .6-.4.6.6 0 0 1 .6.6v.2h-.7v.6h.7l-.5 1 .6-.3.5.6.5-.6.6.3-.5-1h.6v-.6h-.7v-.2a.6.6 0 0 1 .6-.6.8.8 0 0 1 .6.4l.2-.6a.8.8 0 0 0 .2-.5.8.8 0 0 0-.9-.8.8.8 0 0 0-.8.5 4.3 4.3 0 0 0 .3-1.5 3.4 3.4 0 0 0-.7-1.7" class="mcd-F"/><path d="M135.5 94.1a3.2 3.2 0 0 0-.8 1.7 4.3 4.3 0 0 0 .3 1.5c-.083-.442-.508-.733-.95-.65s-.733.508-.65.95c0 .1.1.4.1.5l.3.6a.7.7 0 0 1 .6-.4.6.6 0 0 1 .6.6v.2h-.7v.6h.7l-.5 1 .6-.3.5.6.5-.6.6.3-.5-1h.6v-.6h-.7v-.2a.6.6 0 0 1 .6-.6.8.8 0 0 1 .6.4l.2-.6a.8.8 0 0 0 .2-.5.8.8 0 0 0-.9-.8.8.8 0 0 0-.8.5 4.3 4.3 0 0 0 .3-1.5 3.4 3.4 0 0 0-.8-1.7z" class="mcd-B C D E"/><path d="M134.3 99.1h2.5v.63h-2.5z" class="mcd-F"/><path d="M134.3 99h2.5v.63h-2.5z" class="mcd-B C D E"/><path d="M148.1 109.7a1.6 1.6 0 0 1 1.6-1.5 1.5 1.5 0 0 1 1.5 1.5 1.6 1.6 0 0 1-1.5 1.6 1.6 1.6 0 0 1-1.6-1.6" class="mcd-N"/><path fill="#fff200" d="M26.7 0h26.8v159.35H26.7z"/><path d="M26.7 0h26.8v40.04H26.7zm0 119.3h26.8v40.04H26.7z" fill="#ba151b"/><path fill="#001c85" d="M0 0h26.7v159.35H0z"/><path d="M16.1 44.9l1.6 5.1h5.4l-4.3 3.1 1.6 5-4.3-3.1-4.3 3.1 1.7-5L9.2 50h5.3l1.6-5.1zm0 56.4l1.6 5h5.4l-4.3 3.1 1.6 5-4.3-3.1-4.3 3.1 1.7-5-4.3-3.1h5.3l1.6-5zm-5.4-28.2l1.6 5.1 5.3-.1-4.3 3.1 1.7 5-4.3-3.1-4.3 3.1 1.6-5-4.3-3.1 5.4.1 1.6-5.1z" fill="#feee00"/><path d="M217.2 66.1h4.6v5.7a11.3 11.3 0 0 1-5 1.1 7.2 7.2 0 0 1-5.3-2 6.2 6.2 0 0 1-2-4.8 7 7 0 0 1 2-5 7.3 7.3 0 0 1 5.2-2 7.8 7.8 0 0 1 2.2.3 15.8 15.8 0 0 1 2.5.9v1.9a9.7 9.7 0 0 0-4.7-1.4 5 5 0 0 0-3.7 1.5 4.7 4.7 0 0 0-1.6 3.7 4.6 4.6 0 0 0 1.6 3.7 5.3 5.3 0 0 0 3.9 1.5 11.2 11.2 0 0 0 2.7-.5h.2v-2.9h-2.6v-1.7zm14.3-7a7.3 7.3 0 0 1 5.2 2 6.4 6.4 0 0 1 2 4.9 6.6 6.6 0 0 1-2 4.9 7.6 7.6 0 0 1-5.3 2 7.1 7.1 0 0 1-5.1-2 6.2 6.2 0 0 1-2-4.8 6.5 6.5 0 0 1 2-5 7.3 7.3 0 0 1 5.2-2zm.1 1.8a4.9 4.9 0 0 0-3.8 1.5 5 5 0 0 0-1.5 3.7 4.9 4.9 0 0 0 1.5 3.6 5.1 5.1 0 0 0 3.7 1.4 5.3 5.3 0 0 0 3.8-1.4 5 5 0 0 0 1.5-3.7 4.9 4.9 0 0 0-1.5-3.6 5.3 5.3 0 0 0-3.7-1.5zM246 72.7h-4.6V59.3h3.6a5.7 5.7 0 0 1 2.5.4A2.8 2.8 0 0 1 249 61a3.4 3.4 0 0 1 .4 1.8 2.8 2.8 0 0 1-2 2.8 3.9 3.9 0 0 1 2.3 1.2 3.3 3.3 0 0 1 .9 2.3 3.5 3.5 0 0 1-.5 1.8 4.2 4.2 0 0 1-1.6 1.3 4.7 4.7 0 0 1-2.5.5zM245 61h-1.6v4.1h1.3a3.4 3.4 0 0 0 2.2-.6 2 2 0 0 0 .6-1.5c0-1.3-.8-2-2.5-2zm.2 5.8h-1.8v4.3h1.9a5.1 5.1 0 0 0 2.1-.3 1.6 1.6 0 0 0 .9-.7 1.9 1.9 0 0 0 .4-1.2 1.7 1.7 0 0 0-.4-1.1 2.1 2.1 0 0 0-1-.8zm7.7-7.5h1.9v13.5h-1.9zm5.3 0h7.6V61h-5.7v4.1h5.5v1.7h-5.5V71h5.9v1.7h-7.8V59.3zm10.2 13.4V59.3h3.3a4.8 4.8 0 0 1 3.3 1 3.4 3.4 0 0 1 1.2 2.7 3.7 3.7 0 0 1-.6 2.1 3.5 3.5 0 0 1-1.7 1.2 7.1 7.1 0 0 1 1.3 1.2 24.4 24.4 0 0 1 1.7 2.5l1.1 1.7.7 1h-2.2l-.6-.9-.2-.2-.3-.5-.6-1-.7-1a8.5 8.5 0 0 0-1.1-1.4l-.8-.7-1.4-.2h-.5v5.9zm2.5-11.8h-.6v4.3h.7a4.3 4.3 0 0 0 2-.3 1.6 1.6 0 0 0 .9-.7 2.7 2.7 0 0 0 .3-1.2 2 2 0 0 0-.3-1.1 1.7 1.7 0 0 0-1-.7 4.9 4.9 0 0 0-2-.3zm20.4-1.6h1.8v13.5h-1.7l-8.9-10.4v10.3h-1.9V59.3h1.6l9.1 10.4zm11.6-.2a7.3 7.3 0 0 1 5.2 2 6.5 6.5 0 0 1 2.1 4.9 6.4 6.4 0 0 1-2.1 4.9 7.6 7.6 0 0 1-5.3 2 7.3 7.3 0 0 1-5.1-2 6.6 6.6 0 0 1-2-4.8 6.9 6.9 0 0 1 2-5 7.3 7.3 0 0 1 5.2-2zm.1 1.8a5 5 0 0 0-3.8 1.5 5 5 0 0 0-1.5 3.7 4.9 4.9 0 0 0 1.5 3.6 5.3 5.3 0 0 0 3.7 1.4 5.1 5.1 0 0 0 3.8-1.4 5 5 0 0 0 1.5-3.7 4.9 4.9 0 0 0-1.5-3.6 5.1 5.1 0 0 0-3.7-1.5zm-93 32.8V80.3h4.5a10.8 10.8 0 0 1 4.4.8 6.4 6.4 0 0 1 2.5 2.4 7 7 0 0 1 .9 3.5 5.8 5.8 0 0 1-.5 2.6 5.1 5.1 0 0 1-1.5 2.1 5.4 5.4 0 0 1-2.2 1.5l-1.4.4H210zm4.3-11.7h-2.4v10h2.5a6.8 6.8 0 0 0 2.2-.2 2.9 2.9 0 0 0 1.4-.5 3.1 3.1 0 0 0 .9-.7 5 5 0 0 0 1.5-3.7 4.5 4.5 0 0 0-1.5-3.5 2.5 2.5 0 0 0-1.2-.8 3.9 3.9 0 0 0-1.4-.5zm10.8-1.7h7.6V82H227v4.1h5.5v1.7H227V92h5.9v1.7h-7.8V80.3zm16 0h7.6V82H243v4.1h5.5v1.7H243V92h5.9v1.7h-7.8zm13.5 7.8l-1.4-.9a5.8 5.8 0 0 1-2-1.6 3.3 3.3 0 0 1-.6-1.9 3.6 3.6 0 0 1 1.1-2.6 4.6 4.6 0 0 1 2.9-.9 5.9 5.9 0 0 1 3.1.9v2.2a4.7 4.7 0 0 0-3.2-1.4 3.3 3.3 0 0 0-1.5.4 1.4 1.4 0 0 0-.6 1.2 2.5 2.5 0 0 0 .4 1.1 7.3 7.3 0 0 0 1.5 1.1l1.4.9a4.1 4.1 0 0 1 2.5 3.7 3.3 3.3 0 0 1-1.1 2.6 3.7 3.7 0 0 1-2.8 1 6 6 0 0 1-3.6-1.2v-2.4a4.4 4.4 0 0 0 3.6 1.9 2 2 0 0 0 1.5-.5 1.4 1.4 0 0 0 .6-1.2q0-1.3-1.8-2.4zm5.9 5.6V80.3h4.3a4.5 4.5 0 0 1 3.1 1 3.8 3.8 0 0 1 1.1 2.8 3.7 3.7 0 0 1-.6 2.1 2.9 2.9 0 0 1-1.6 1.3 7.5 7.5 0 0 1-2.9.4h-1.4v5.8zm4-11.7h-2v4.2h2.1a3 3 0 0 0 1.8-.5 2.1 2.1 0 0 0 .6-1.6c0-1.4-.8-2.1-2.5-2.1zm9.2-1.8h1.4l6 13.5h-1.9l-1.8-3.9h-5.8l-1.7 3.9H268zm2.9 7.8l-2.2-4.8-2 4.8zm17-7.7h1.8v13.4h-1.6l-9-10.3v10.3H283V80.3h1.5l9.1 10.4V80.3zm-1.3-3.7a2.4 2.4 0 0 1-.6 1.8 1.2 1.2 0 0 1-1 .6l-1.4-.4a3.3 3.3 0 0 0-1.4-.4l-.4.2a.8.8 0 0 0-.2.6h-.9q.2-1.5.6-1.8a1.1 1.1 0 0 1 1-.5 6.2 6.2 0 0 1 1.8.5l1 .3.4-.2a1.2 1.2 0 0 0 .2-.7zm10.6 3.6h1.4l6 13.5h-1.9l-1.8-3.9h-5.8l-1.7 3.9h-1.9zm2.9 7.8l-2.2-4.8-2 4.8zm69.4-28.7h1.8v13.5h-1.9V62.3l-4.1 5.2h-.4l-4.2-5.2v10.5h-1.9V59.3h1.8l4.5 5.5zm5.1 0h1.9v13.5h-1.9zm15.9 0h1.9v13.5h-1.7l-9-10.4v10.4h-1.8V59.3h1.6l9 10.5zm5.1 0h1.9v13.5h-1.9zm8.6 7.8l-1.5-.9a5.3 5.3 0 0 1-1.9-1.6 3.5 3.5 0 0 1 .5-4.5 4.3 4.3 0 0 1 2.8-1 5.5 5.5 0 0 1 3.1 1v2.2a4.1 4.1 0 0 0-3.1-1.4 2.4 2.4 0 0 0-1.5.4 1.5 1.5 0 0 0-.7 1.1 2.1 2.1 0 0 0 .5 1.2l1.4 1.1 1.5.8a4.6 4.6 0 0 1 2.5 3.8 3.5 3.5 0 0 1-1.1 2.6 3.9 3.9 0 0 1-2.8 1 6.1 6.1 0 0 1-3.7-1.2v-2.4a4.7 4.7 0 0 0 3.6 1.9 2.1 2.1 0 0 0 1.6-.5 1.4 1.4 0 0 0 .6-1.2c0-.9-.6-1.6-1.8-2.4zm4.9-7.8H426V61h-4.7v11.8h-1.9V61h-4.6zm13.4 0h7.6V61h-5.7v4.1h5.5v1.8h-5.5V71h5.9v1.8h-7.8zm10.2 13.5V59.3h3.4a5.4 5.4 0 0 1 3.3 1 3.5 3.5 0 0 1 1.2 2.8 3.6 3.6 0 0 1-.6 2 3.7 3.7 0 0 1-1.7 1.3 6 6 0 0 1 1.2 1.1 21.3 21.3 0 0 1 1.8 2.6 10.1 10.1 0 0 0 1.1 1.7l.7 1h-2.3l-.6-.9a.3.3 0 0 0-.1-.2l-.4-.5-.6-1-.6-1-1.1-1.4-.9-.7-1.3-.2h-.5v5.9zm2.5-11.8h-.5v4.2h.7l2-.2a2.4 2.4 0 0 0 .9-.8 2.1 2.1 0 0 0 .3-1.2 2.1 2.1 0 0 0-.4-1.1 1.3 1.3 0 0 0-.9-.7 5.6 5.6 0 0 0-2.1-.2zm9.8-1.7h1.9v13.5h-1.9zm11.8-.2a7.3 7.3 0 0 1 5.2 2 6.9 6.9 0 0 1 0 9.9 7.5 7.5 0 0 1-5.3 1.9 7.2 7.2 0 0 1-5.1-1.9 7.1 7.1 0 0 1 0-9.9 7.3 7.3 0 0 1 5.2-2zm.1 1.9a5 5 0 0 0-5.3 5.1 4.9 4.9 0 0 0 1.5 3.6 5 5 0 0 0 3.7 1.5 5.2 5.2 0 0 0 3.8-1.5 5 5 0 0 0 1.5-3.7 4.9 4.9 0 0 0-1.5-3.6 5 5 0 0 0-3.7-1.4zm-98.1 32.7V80.3h4.6a10 10 0 0 1 4.3.8 7.5 7.5 0 0 1 2.6 2.4 7.3 7.3 0 0 1 .9 3.5 7.5 7.5 0 0 1-.5 2.6 6.2 6.2 0 0 1-1.5 2.2 5.9 5.9 0 0 1-2.3 1.4 3.7 3.7 0 0 1-1.4.4h-6.7zm4.4-11.7h-2.4v10h2.4l2.3-.2 1.3-.5 1-.7a5.3 5.3 0 0 0 1.4-3.7 4.8 4.8 0 0 0-1.4-3.5 6 6 0 0 0-1.3-.9l-1.3-.4zm10.8-1.7h7.6V82h-5.7v4.1h5.5v1.7h-5.5V92h5.9v1.7h-7.8zm27.6 10.3v2.1a9.9 9.9 0 0 1-4.9 1.2 7.4 7.4 0 0 1-3.8-.9 6 6 0 0 1-2.5-2.5 6.9 6.9 0 0 1-.9-3.4 6.7 6.7 0 0 1 2.1-5 7.3 7.3 0 0 1 5.1-2 12.7 12.7 0 0 1 4.7 1.1v2.1a9.1 9.1 0 0 0-4.6-1.4 5.2 5.2 0 0 0-3.8 1.5 5 5 0 0 0-1.5 3.7 4.8 4.8 0 0 0 1.5 3.6 5 5 0 0 0 3.8 1.4 9 9 0 0 0 4.8-1.5zm12.1-10.3h1.9v7.6a13.4 13.4 0 0 1-.2 2.4l-.6 1.3-.8.9a7 7 0 0 1-8.4 0 3.4 3.4 0 0 1-.8-.9l-.6-1.3a12.5 12.5 0 0 1-.2-2.4v-7.6h1.9v7.6a5.6 5.6 0 0 0 .5 2.7 3 3 0 0 0 1.3 1.2 4.6 4.6 0 0 0 2.1.4 4.3 4.3 0 0 0 2.8-.9 2.8 2.8 0 0 0 .8-1.1 6.3 6.3 0 0 0 .3-2.3zm4.9 0h1.9V92h6.1v1.7h-8zm6.9 0h11.2V82h-4.7v11.7h-1.9V82h-4.6zm22.8 0h1.9v7.6a13.4 13.4 0 0 1-.2 2.4l-.6 1.3-.8.9a6.4 6.4 0 0 1-4.2 1.4 6.3 6.3 0 0 1-4.2-1.4 3.4 3.4 0 0 1-.8-.9l-.6-1.3a12.5 12.5 0 0 1-.2-2.4v-7.6h1.9v7.6a5.6 5.6 0 0 0 .5 2.7 3 3 0 0 0 1.3 1.2 4.6 4.6 0 0 0 2.1.4 4.3 4.3 0 0 0 2.8-.9 2.8 2.8 0 0 0 .8-1.1 6.3 6.3 0 0 0 .3-2.3zm5 13.4V80.3h3.3a4.8 4.8 0 0 1 3.3 1 3.4 3.4 0 0 1 1.2 2.7 3.7 3.7 0 0 1-.6 2.1 3.5 3.5 0 0 1-1.7 1.2l1.3 1.2a29.8 29.8 0 0 1 1.7 2.6l1.1 1.7.7.9H467l-.6-.8c0-.1 0-.1-.1-.2l-.3-.5-.6-1-.7-1.1a7.5 7.5 0 0 0-1.1-1.3 2.8 2.8 0 0 0-.9-.7l-1.3-.2h-.5v5.8zm2.5-11.8h-.6v4.3h.7a4.3 4.3 0 0 0 2-.3 1.6 1.6 0 0 0 .9-.7 2.7 2.7 0 0 0 .3-1.2 1.5 1.5 0 0 0-.4-1.1 1.8 1.8 0 0 0-.9-.8zm13.9-1.7h1.4l6 13.5h-1.9l-1.8-3.9h-5.8l-1.7 3.9h-1.9zm2.9 7.8l-2.2-4.8-2 4.8zm-105.7 13.3h2.4l-5 6.3v7.1h-2v-7.1l-5-6.3h2.4l3.6 4.6zm10 13.4v-13.4h4.6a8.9 8.9 0 0 1 4.3.8 5.3 5.3 0 0 1 2.5 2.4 6.2 6.2 0 0 1 1 3.5 7.5 7.5 0 0 1-.5 2.6 8 8 0 0 1-1.5 2.1 5.7 5.7 0 0 1-2.3 1.5l-1.4.4h-6.7zM387 103h-2.5v10h2.5l2.3-.2 1.3-.5a3.9 3.9 0 0 0 1-.8 4.9 4.9 0 0 0 1.4-3.6 4.4 4.4 0 0 0-1.5-3.5 2.7 2.7 0 0 0-1.2-.9 3.8 3.8 0 0 0-1.3-.4zm10.7-1.7h7.7v1.7h-5.7v4.1h5.5v1.7h-5.5v4.2h5.9v1.7h-7.9zm10.1 13.4v-13.5h4.3a4.5 4.5 0 0 1 3.1 1.1 3.8 3.8 0 0 1 1.1 2.8 3.7 3.7 0 0 1-.6 2.1 3.4 3.4 0 0 1-1.6 1.3 10 10 0 0 1-2.9.4h-1.4v5.8zm4-11.7h-2v4.2h2.1a2.4 2.4 0 0 0 1.8-.6 2.1 2.1 0 0 0 .6-1.6c0-1.4-.8-2-2.5-2zm13.1-1.9a7.3 7.3 0 0 1 5.2 1.9 6.7 6.7 0 0 1 2.1 5 6.4 6.4 0 0 1-2.1 4.9 7.4 7.4 0 0 1-5.3 2 6.9 6.9 0 0 1-5-2 6.4 6.4 0 0 1-2.1-4.9 6.7 6.7 0 0 1 2.1-5 7 7 0 0 1 5.1-1.9zm.1 1.8a5.6 5.6 0 0 0-3.8 1.4 5.3 5.3 0 0 0 0 7.4 5.6 5.6 0 0 0 3.8 1.4 5 5 0 0 0 3.7-1.5 4.9 4.9 0 0 0 1.5-3.6 4.6 4.6 0 0 0-1.5-3.6 5 5 0 0 0-3.7-1.5zm10 11.8v-13.4h3.3a4.8 4.8 0 0 1 3.3 1 3.3 3.3 0 0 1 1.2 2.7 3.2 3.2 0 0 1-.6 2 3.7 3.7 0 0 1-1.7 1.3 7.1 7.1 0 0 1 1.3 1.2 20.2 20.2 0 0 1 1.7 2.5l1.1 1.8.7.9h-2.2l-.6-.9h-.1l-.4-.6-.6-.9-.7-1.1a7.5 7.5 0 0 0-1.1-1.3 2.8 2.8 0 0 0-.9-.7c-.2-.2-.7-.2-1.3-.2h-.5v5.7zm2.5-11.8h-.6v4.2h.7a4.8 4.8 0 0 0 2-.2 1.8 1.8 0 0 0 .9-.8 2 2 0 0 0 .3-1.1 2.7 2.7 0 0 0-.3-1.2 2.3 2.3 0 0 0-1-.7zm6.7-1.7h11.3v1.8h-4.7v11.7h-1.9V103h-4.7zm13.4.1h7.7v1.7h-5.7v4.1h5.5v1.7h-5.5v4.2h5.9v1.7h-7.9z" fill="#020202"/></svg>