<svg xmlns="http://www.w3.org/2000/svg" viewBox="0 0 512 215"><path d="M511.9 21.6l.1 8.3c.2 2.7-1.1 3.8-3.5 4.3l-18.9 4.1c-3.9.8-3.8.8-3.5 4.6a121.6 121.6 0 0 1 0 20.9c-.4 4.4-.3 3.9 3.3 4.6 6.5 1.2 12.9 2.9 19.3 4.2 2.3.5 3.3 1.6 3.3 3.9l-.1 17.8c0 2.7-.7 3.3-3.4 2.7l-27.6-6.6L424.6 77c-11.9-2.8-17-9-17.4-21.8-.2-4.9.1-9.8 2-14.4 2.7-6.3 7.9-9.2 14.2-10.7L469.5 19l39.1-9.3c2.4-.6 3.3.1 3.3 2.7v9.2zm-44.5 31.8h0c0-2.5-.1-5.1 0-7.6s-1.1-2.6-3-2.1l-6.1 1.4-29 6.2c-1.1.2-2.4.6-2.4 2s1.2 1.7 2.3 2l36.2 8c1.7.4 1.9-.6 1.9-1.8l.1-8.1z" fill="#cc3632"/><g fill="var(--text,#2e2c2b)"><path d="M235.1 105.4c-2.9 0-5.9-.1-8.9 0s-3.3-1-3.8-3.2l-4.5-20.9c-.3-1.6-.9-2.1-2.5-1.9a151.7 151.7 0 0 1-24.3-.1c-1.6-.1-2.1.4-2.4 1.9l-4.4 20.1c-.7 3.5-1.3 4.1-4.9 4.1h-16.7c-3.1-.1-3.9-1.1-3.1-4.1q7.8-32.7 15.7-65.4l4.7-19.8C182.1 7.3 187.3 2 196.5.7a43 43 0 0 1 16 .4c7.5 1.8 12 6.6 13.7 13.9l20 83.1.9 3.5c.5 2.6-.3 3.7-2.8 3.7zm-31.9-45h8.3c1.1 0 1.9-.2 1.6-1.6L205 22.2c-.2-1-.5-2-1.7-2s-1.5 1-1.7 1.9l-1.7 7.4-6.3 28.7c-.3 1.5.1 2.3 1.8 2.2zM0 54.8V9.7c0-5.4 1.2-7 6.7-7.8A226 226 0 0 1 30.1.2c8.5-.2 17 .3 25.2 3 13.4 4.5 21 15 21.2 29 .1 6.3-.2 12.4-2.9 18.2C69.1 60 60.8 64.7 51 67.2c-8.1 2.2-16.4 1.8-24.7 1.5-2.3-.1-2.7.7-2.6 2.8V101c0 3.6-.8 4.4-4.5 4.4H4.3c-3.5-.1-4.3-.8-4.3-4.3zM23.7 35v12c0 1.2 0 2 1.6 2 4.9 0 9.7.4 14.6-.1 6.9-.7 11.2-4 12.5-9.9a23.5 23.5 0 0 0 .2-7c-.4-5.2-3-8.8-8-10.5s-12.9-1.4-19.4-1c-1.5.2-1.5 1.1-1.5 2.2zm307 18.3V27.9c.1-8.5 1.8-14.3 7.2-19.8s9.6-6.2 15.4-7.1c11-1.6 22.1-.8 33.1.3l5.4.7a2.9 2.9 0 0 1 2.7 3.2c-.1 3.9 0 7.9 0 11.8s-1 3.7-3.8 3.7h-27.4c-6.1.1-8.4 2-8.8 7.9-.3 4.2-.1 8.4-.1 12.5-.1 2 1.4 1.7 2.5 1.7H388c5 0 5.5.4 5.5 5.5l-.1 9.2c-.1 3.1-.8 4.3-4.3 4.3H357c-2.1 0-2.8.6-2.7 2.7.3 5.2-.4 10.4.5 15.6s2.4 5.4 6.1 5.7c9.5.7 19 .2 28.5.3 4.8.1 5.1.3 5.1 5.2v10.2a2.9 2.9 0 0 1-2.8 3.3 149.8 149.8 0 0 1-36 1.3c-8-.7-15.3-3.3-20.2-10.3-3.5-5.1-4.7-11-4.8-17.1V53.3zm-61 9.2l.1-38.7c0-2-.6-2.5-2.5-2.5h-18.8c-3.6-.1-4.3-.8-4.3-4.4v-12c0-2.4.9-3.4 3.4-3.4h68c2.9 0 3.6.8 3.6 3.8v12c0 2.9-1 3.9-3.9 4-6.4 0-12.7.1-19.1-.1-2.1 0-2.6.7-2.6 2.7v76.3c0 4.5-.5 5.1-4.9 5.1h-15.1c-3-.1-3.9-1-3.9-4zM115 41.8l.1 36.5c0 4.9 2 7 6.9 7.4 8 .7 16.1.2 24.2.3 3.8 0 4.4.6 4.4 4.4v11c.1 1.8-.7 3-2.6 3.2-13 1.9-26.1 3.3-39.1 0-9.8-2.5-16.4-10.5-17.5-20.8a103.7 103.7 0 0 1-.6-11.2q.2-33.1.1-66.3c0-4.2.4-4.7 4.6-4.7h15.6c3.2 0 3.8.6 3.8 3.9v36.3zm119 124.7l6.4-14.3 1-2.4a2.1 2.1 0 0 1 2.4-1.5c1.5.1 1.3 1.3 1.3 2.1l2 23.4c.1.8.4 1.8-1.1 1.9s-1.7-.6-1.8-1.9l-1.4-17.1a8.3 8.3 0 0 0-.2-1.3c-1 .5-1.2 1.3-1.6 2.1l-4.7 10.4c-.6 1.1-.7 2.8-2.7 2.7s-1.9-1.5-2.4-2.6c-1.6-3.3-3-6.7-4.6-10-.4-.8-.5-1.8-1.6-2.3-.9 1-.6 2.2-.7 3.2l-1.1 14.6c-.1 1.2-.2 2.4-1.9 2.2s-.9-1.6-.9-2.5l1.7-22.6c.1-.9-.2-2.1 1.2-2.3a2.4 2.4 0 0 1 2.8 1.7c2 4.9 4.3 9.7 6.4 14.5a3.1 3.1 0 0 0 1.5 2zm127.5 42v-19.7c0-1-.1-1.9 1.4-1.9s1.5 1 1.5 2l-.1 22.7c0 .9.7 2.2-.8 2.7s-2.4-.4-3.3-1.6l-10-14.2-2.8-3.9c-.3-.4-.5-1.3-1.2-1.1s-.6 1.2-.6 1.8l-.1 16.7c0 .9.6 2.3-1.2 2.3s-1.4-1.3-1.4-2.3q-.1-11.1 0-22.2c0-1-.6-2.3.8-2.8s2.3.6 3.1 1.7l13.2 18.8a1.8 1.8 0 0 0 1.5 1zm-237.6-60.6c7.8 0 13.7 6 13.7 14a13.8 13.8 0 0 1-14.1 14.2 14 14 0 0 1-13.8-14.3 13.8 13.8 0 0 1 14.2-13.9zm10.7 13.9c0-6.5-4.7-11.3-11.1-11.2a10.9 10.9 0 0 0-10.8 11.2c0 6.5 5 11.8 11.1 11.7s10.8-5.2 10.8-11.7zm38.3.2v-11.4c-.1-1.7.4-2.4 2.2-2.3l8.6.2c2.9.2 5.5 1.9 6.2 5s.6 6.8-2.6 8.9-1.6 2.1-.7 3.7a74.3 74.3 0 0 1 4 7.3c.3.7 1.5 1.5.3 2.2a2.2 2.2 0 0 1-2.9-1c-1.2-2.2-2.7-4.3-3.5-6.6s-3.5-4.1-6.7-3.8c-1.5.2-2.2.6-2.1 2.2v7c-.1 1 .4 2.3-1.3 2.3s-1.5-1.2-1.5-2.2zm7.3-11.1c-4.5 0-4.5 0-4.5 4.6 0 6.7 0 6.7 6.8 6.1a5.1 5.1 0 0 0 4.9-5.8c-.4-3.7-2.1-4.9-7.2-4.9zm-116 49.6V189c0-1.5.4-2.2 2-2.1 3.2.2 6.4-.2 9.6.4 7.4 1.3 11.6 6.8 11 14.3s-5.4 12.7-13.8 12.7c-2.2 0-4.4-.1-6.5.1s-2.4-.7-2.3-2.4c.1-3.8 0-7.7 0-11.5zm2.8.3c0 1.5-.1 3.1 0 4.7.2 7.5-1.6 6.3 6.7 6.3 5.7-.1 9.3-3.7 10-9.4s-2-10.8-7.2-12.3c-2.8-.8-5.6-.4-8.4-.4-1.2 0-1.1 1-1.1 1.9zm99.5-31.6v5.2c0 .7-.2 1.2-1 1.3s-1.3-.1-1.4-.8c-.2-2.3-1.2-1.2-2.2-.7-7.9 4.4-16.9.9-19.6-7.6-1.7-5.5.1-12.1 4.2-15.5a15.2 15.2 0 0 1 16.7-1.4c.7.4 2.2.6 1.5 2.2s-1.8.7-2.8.2c-7-3.4-13.7-1.3-16.4 5.2a12.3 12.3 0 0 0 3.8 14.3c3.7 2.7 9.1 2.3 12.9-.6 1.8-1.3 1.7-3.1 1.5-4.9s-1.4-1-2.3-1-2.1.2-2.2-1.3 1.3-1.2 2.3-1.3c5-.1 5 0 5 4.9zm-79.3-7.1v-11.8c-.1-1.6.4-2.1 2.1-2s5.9 0 8.8.2a6.6 6.6 0 0 1 6.4 5.3c.9 3.2-.1 6.9-2.8 8.6s-1.7 1.9-.8 3.5l4 7.3c.4.7 1.6 1.7.4 2.4a2.3 2.3 0 0 1-3.1-1.3l-3.6-6.9a6 6 0 0 0-7.5-3.1c-1.1.3-1 1.1-1 1.9v7c-.1 1 .5 2.4-1.4 2.5s-1.5-1.3-1.5-2.4zm2.9-5.8v3.9c0 .8.1 1.4 1.1 1.4a37.5 37.5 0 0 0 6.7-.2 4.3 4.3 0 0 0 3.8-4.3c.4-4-1.5-6.1-5.7-6.2-5.9 0-5.9 0-5.9 5.4zm59 44.4v-11.8c0-1-.1-2 1.4-1.9 3.3.1 6.6-.4 9.9.2s5.4 2.5 5.9 5.4.3 6.6-2.8 8.6c-1.6 1-1.6 1.8-.8 3.3l4.1 7.5c.3.7 1.6 1.5.5 2.1a2 2 0 0 1-3.1-.9l-3.8-7.1a5.9 5.9 0 0 0-7.4-3.2c-1.1.3-1.1 1-1.1 1.8v7.6c0 1 .3 2.1-1.4 2s-1.4-1.1-1.4-2.1zm2.8-5.7c0 5.4 0 5.4 5.5 5.4s6.2-1.8 6.2-5.5-1.9-5.2-6.2-5.2-5.5-.1-5.5 5.3zm44.3 5.6l-.1-11.8c0-1.4.5-1.9 2-1.9h11.7c1.1 0 2 .1 1.9 1.5s-.9 1.3-1.8 1.3H201c-1.4-.1-2.1.4-2 1.9a56.1 56.1 0 0 1 0 5.8c-.1 1.6.7 2.1 2.2 2h6.5c.9 0 1.7 0 1.7 1.1s-.7 1.4-1.7 1.4h-6.5c-1.7-.1-2.2.6-2.2 2.3-.1 7.7-.2 7.7 7.5 7.7h4.4c.8 0 1.6.1 1.6 1.2s-.5 1.3-1.5 1.3h-13.6c-1.3.1-1.2-.8-1.2-1.7zm53.4.1v-11.8c0-1.4.4-2 1.9-2h11.8c1 0 1.8.2 1.8 1.4s-.8 1.4-1.8 1.4h-8.9c-1.4-.1-2 .4-1.9 1.9a56.1 56.1 0 0 1 0 5.8c-.1 1.6.6 2.1 2.1 2h6.6c.8 0 1.6.1 1.6 1.2s-.7 1.3-1.6 1.3h-7.1c-1.2 0-1.7.4-1.6 1.7v6.4c-.1 1.4.5 1.9 1.8 1.8h9.4c.9 0 2.1-.3 2.1 1.2s-1 1.3-2 1.3h-12c-1.7 0-2.3-.5-2.2-2.2.1-3.8 0-7.6 0-11.4zm71.1-.2v-11.2c-.1-1.6.3-2.4 2.1-2.4h11.5c.9 0 1.8 0 1.9 1.3s-.9 1.5-1.9 1.5h-8.6c-1.7-.1-2.2.6-2.3 2.2-.1 7.5-.1 7.5 7.3 7.5h1.6c.8 0 1.6.1 1.6 1.2s-.7 1.3-1.6 1.2h-6.8c-1.5 0-2.1.6-2 2.2a54.2 54.2 0 0 1 0 5.7c-.1 1.6.6 2.1 2.1 2.1h9.4c.8 0 1.9-.2 1.9 1.2s-1 1.3-1.9 1.3c-4.1 0-8.2-.1-12.3.1-1.7 0-2-.7-2-2.2.1-3.9 0-7.8 0-11.7zm-228 .1v-11.2c-.1-1.7.3-2.6 2.2-2.5 3.8.2 7.5 0 11.3.1 1 0 2.2-.2 2.1 1.4s-1.1 1.3-2 1.3h-8.9c-1.3-.1-1.8.4-1.9 1.8-.5 7.9-.5 7.9 7.3 7.9h1.8c.8 0 1.4.2 1.4 1.1s-.5 1.4-1.4 1.3h-6.8c-1.6 0-2.4.3-2.3 2.2a36.2 36.2 0 0 1 0 5.7c-.1 1.6.5 2.2 2.1 2.1h9.4c.9 0 1.8-.1 1.9 1.2s-.9 1.3-1.8 1.3H94.6c-1.6 0-2-.6-1.9-2.1zm112.6-52.3c1.4-.3 1.8.8 2.1 1.8l8.6 23.7c.2.6 1.2 1.5-.2 1.8a1.7 1.7 0 0 1-2.4-.9l-1.9-5.4s-1.3-2.6-3.3-2.4-5.5-.6-7.7.3-2 4.6-3.2 6.8-.6 1.8-1.9 1.7-1.7-.2-1.2-1.5l9-24.7a1.7 1.7 0 0 1 2.1-1.2zm.2 4.6h-.6l-3.6 9.8c-.6 1.4-.2 1.8 1.3 1.8h5.4c.7 0 1.7 0 1.3-1.1-1.2-3.5-2.5-7-3.8-10.5zm209.2 21.7c0 .8-.4 1.1-1 1.1s-1.7 0-2.1-1.1l-2-5.6c-.5-1.9-1.4-2.2-3-2.1h-.2c-2.6.1-5.6-.7-7.8.3s-2.1 4.5-3 6.9-1.6 2-2.8 1.5-.2-1.7.1-2.4l8.3-22.7c.4-1.2.7-2.3 2.4-2.3s1.8 1.1 2.2 2.2l8.4 22.9a3.9 3.9 0 0 0 .5 1.3zm-11-22.1c-1.6 2.4-2.1 4.8-3 7-2 5.1-1.9 5.1 3.4 5.1h2.3c1.1 0 1.5-.4 1.1-1.4l-3.8-10.7zm-141.6-4.2a1.8 1.8 0 0 1 2.1 1.4l8.7 23.9c.3.6 1 1.6-.2 2a1.8 1.8 0 0 1-2.5-1.2l-2.1-5.9a2 2 0 0 0-2.3-1.6h-.8c-2.6.1-5.5-.6-7.7.4s-2.1 4.4-3.1 6.8-1.3 1.9-2.5 1.5-.4-1.7-.1-2.5l8.4-23c.4-1.1.7-1.9 2.1-1.8zm0 3.7l-2.2 6.1c-2.6 7-2.6 7 4.9 6.5h.5c1 0 1.1-.7.9-1.4zm43.7 62.9c-7.2 0-12.5-3.7-14.3-9.3s-.1-12.9 4.7-16.4 12.2-3.5 16.7-.2c.7.5 1.6.8.9 2s-1.7.6-2.6.1c-5.9-3.3-12.2-2.2-15.5 2.7a12.1 12.1 0 0 0 2.5 16.2c4 3 8.2 2.8 12.5.5a6.2 6.2 0 0 0 1.7-1.1c.8-.7 1.3-.6 2 .2a1.3 1.3 0 0 1-.3 2 15 15 0 0 1-8.3 3.3z"/><path d="M371.4 174.5c.2.7 0 1.1-.7 1.2a1.9 1.9 0 0 1-2.3-1.2l-2-5.7c-.6-1.9-1.1-2.1-2.6-1.9h-.8c-2.6.1-5.6-.6-7.6.4s-2 4.4-2.9 6.7-1.3 2.1-2.5 1.6-.5-1.7-.2-2.5l8.4-23c.4-1 .7-1.8 2.1-1.8s1.9.8 2.3 1.9l8.6 23.4a3.7 3.7 0 0 1 .2.9zm-11-22.4l-4 10.6c-.5 1.4-.2 2 1.3 1.9h5.5c1 0 1.6-.4 1.2-1.4l-4-11.1zm34.4 34.6a13 13 0 0 1 8 2.2c.8.5 1.7 1 .9 2.2s-1.5.6-2.3.1c-6.2-3.6-12.7-2.3-16.1 3.1a12.4 12.4 0 0 0 1.9 14.9 11.3 11.3 0 0 0 14.2.9 6.6 6.6 0 0 1 2-1.1c.7-.2 1 .6 1.3 1.1s-.4 1.3-.9 1.7a14.8 14.8 0 0 1-16.6 1 14.5 14.5 0 0 1-6.3-14.7c1.4-7.2 6.5-11.4 13.9-11.4zm23.9 19.1c-5.3 0-5.2.1-7.2 5-.5 1.3-.1 3.4-2.4 3.5s-1.9.1-1.3-1.5l8.9-24.2c.3-.9.7-1.7 2-1.7s1.8.7 2.2 1.8l8.7 23.7c.2.7 1 1.5-.3 1.8s-1.9.5-2.4-.9-1.2-3-1.6-4.6-1.9-3.3-4.3-2.9zm.1-14.9l-2.2 5.8c-2.6 7.7-4 6.4 4.9 6.5h.3c1 0 1.4-.3 1-1.4l-4-10.9zm-274.3 22.4c.1.9-.4 1-1 1s-1.7 0-2.1-1-1.4-3.9-2-5.9a2 2 0 0 0-2.3-1.6h-7.5a2 2 0 0 0-2.3 1.6c-.5 1.9-1.4 3.8-2 5.7s-1.4 1.4-2.4 1.1-.5-1.4-.2-2.1l8.5-23.2c.4-1.1.7-2 2.2-2s1.7.8 2.1 1.9l8.6 23.4a7.6 7.6 0 0 1 .4 1.1zm-11.1-22.6l-4 10.8c-.5 1.1-.2 1.7 1 1.7h5.8c1.2 0 1.5-.6 1.1-1.6l-3.9-10.9zM288.3 162v-11.8c0-1.5.5-2 2-1.9H302c1.1 0 1.9.1 1.9 1.5s-1.1 1.1-1.9 1.1h-8.9c-1.5 0-2 .5-1.9 2s-1 5.6.5 7.3 4.6.3 7 .6h1.6c.9-.1 1.1.5 1.1 1.3s-.5 1-1.2 1h-7.1c-1.5-.1-2 .5-1.9 2s.1 4.1 0 6.2.4 1.8 1.8 1.8h9.4c.9 0 2-.4 2 1.2s-.9 1.4-1.9 1.4h-12.3c-1.6.1-1.9-.6-1.9-2 .1-3.9 0-7.8 0-11.7zm-224.1-.1c0-3.6.2-7.3 0-10.9s.7-2.9 2.8-2.7 5.9-.3 8.8.3 6.2 3.6 6.2 8.1-2.3 7.2-6.2 8a22.2 22.2 0 0 1-6.3.3c-1.9 0-2.7.5-2.6 2.5a56.1 56.1 0 0 1 .1 5.8c-.1 1 .3 2.4-1.5 2.4s-1.2-1.4-1.3-2.3v-11.5zm2.8-5.4v4.4c0 .8.1 1.5 1 1.5 2.5 0 4.9.3 7.3-.3a5.4 5.4 0 0 0 3.9-6.2 5.3 5.3 0 0 0-5.4-5c-6.8-.2-6.8-.2-6.8 5.6zm211.9 30.2a9.8 9.8 0 0 1 5.8 1.4c.8.5 1.6.9.9 2.2s-1.3.9-2.3.3-4.6-2-7.2-.8a4.8 4.8 0 0 0-2.9 3.7 3.8 3.8 0 0 0 2.3 4l6.6 3.2c4.7 2.4 6 6.8 3.4 10.8s-7.6 4.4-12.1 2.4l-2.7-1.6a1.2 1.2 0 0 1-.3-2 1.2 1.2 0 0 1 2-.3 9.9 9.9 0 0 0 6.2 2.1c2.5-.1 4.4-1 5-3.4s-.5-4.2-2.7-5.4l-5.3-2.6c-4.3-2.1-6-4.7-5.3-8s4-6.1 8.6-6zm163.1 0a9.8 9.8 0 0 1 5.5 1.4c.8.5 1.8.8 1 2.2s-1.4.9-2.3.3-4.5-2-7-.9-2.9 1.9-3.1 3.8a3.9 3.9 0 0 0 2.4 4c1.9 1.1 4 2 6.1 3 4.1 2 5.7 5 4.7 9s-4.1 5.5-8.3 5.4a13.1 13.1 0 0 1-6.9-2.2c-.9-.6-1.8-1.2-.8-2.5s1.5-.5 2.4.1a9.4 9.4 0 0 0 6.1 1.8c2.3-.2 4-1.2 4.7-3.4s-.5-4.1-2.5-5.3-3.7-1.8-5.6-2.7c-4.2-2.1-6-4.9-5.2-8.3s4.2-5.8 8.8-5.7zm-216.3 0a10.5 10.5 0 0 1 5.8 1.5c.9.6 1.3 1.1.6 2.3s-1.3.6-2 .2-4.5-2.1-7-1a4.9 4.9 0 0 0-3.3 3.7 4 4 0 0 0 2.5 4.2l5.9 2.8c4.1 2 5.9 5.1 5 8.7s-4 5.8-8.5 5.8a11.8 11.8 0 0 1-6.8-2.3c-.8-.5-1.8-1-.9-2.2s1.5-.8 2.4-.2a9.6 9.6 0 0 0 6.3 1.9 4.8 4.8 0 0 0 4.6-3.4c.6-2.2-.3-3.9-2.2-5.1s-4-2-6.1-3c-4.1-2.1-5.8-4.7-5-8.1s4.1-5.9 8.7-5.8zm92.3-38.8a8.8 8.8 0 0 1 5.5 1.6c.9.5 1.6 1 .8 2.2s-1.3.8-2.1.2a8.5 8.5 0 0 0-6.8-1 4.6 4.6 0 0 0-3.4 3.6c-.4 2 .6 3.4 2.3 4.3l5.4 2.6c5 2.3 6.8 5.6 5.3 9.7s-5.8 6-10.6 4.8a13 13 0 0 1-4.5-2c-.8-.6-1.6-1.1-.8-2.3s1.5-.8 2.4-.1a8.6 8.6 0 0 0 7.6 1.6 4.6 4.6 0 0 0 3.4-3.6c.4-1.7-.5-3-1.7-4.1a16 16 0 0 0-4-2.3l-2.4-1c-4.3-2.1-6-4.9-5.3-8.3s4.1-5.9 8.9-5.9zm22.2 15.5v9.9c0 1 .5 2.5-1.4 2.4s-1.3-1.3-1.3-2.3v-19.9c0-2-.5-2.8-2.6-2.6a56.1 56.1 0 0 1-5.8 0c-.8.1-1.5-.1-1.5-1.2s.6-1.4 1.6-1.4h19.1c.9 0 1.7 0 1.7 1.3s-.7 1.4-1.6 1.3a46.9 46.9 0 0 1-5.3 0c-2.5-.3-3 .8-2.9 3.1s0 6.2 0 9.4zm-160.6 38.5c0-3.4-.1-6.8 0-10.1 0-1.6-.5-2.3-2.1-2.2h-6c-.9 0-1.5-.2-1.6-1.3s.6-1.5 1.6-1.5h18.8c.9 0 1.8.1 1.8 1.3s-.9 1.5-1.9 1.4a50.5 50.5 0 0 1-5.5 0c-1.8-.1-2.4.5-2.4 2.4l.1 20.1c0 .8.6 2.2-1.2 2.2s-1.7-1-1.7-2.2c.1-3.3.1-6.7.1-10.1z"/><path d="M383.4 163.3v8.9c-.1 1.2 1.1 3.3-1.4 3.4s-1.4-2.1-1.4-3.3c-.1-6.3-.1-12.7 0-19 0-1.8-.4-2.6-2.3-2.4s-4 0-6 0-1.5-.1-1.5-1.2a1.2 1.2 0 0 1 1.4-1.4h19.4c.9 0 1.4.3 1.5 1.3s-.6 1.3-1.5 1.3h-6.3c-1.5-.1-1.9.5-1.9 2 .1 3.4 0 6.9 0 10.4zm35.9-1.3v-10.9c0-1-.8-2.7 1.3-2.8s1.4 1.8 1.4 3l.1 18.5c0 3.3 0 3.3 3.4 3.3h7.3c.9 0 2-.2 1.9 1.3s-1.1 1.3-2 1.3h-11.5c-1.5.1-2-.5-1.9-1.9zM372 200.4v-11.5c0-1-.1-2 1.4-2s1.4 1.1 1.4 2.1v23.4c0 1.1 0 1.9-1.4 1.9s-1.4-1-1.4-1.9zM333.2 181l-2.8 3.7a1.5 1.5 0 0 1-2.1.4c-.9-.6.1-1.2.3-1.7s1.8-3.7 4.6-2.4z"/></g></svg>